0
SECTION
2
HEADER
9
$INSUNITS
70
4
9
$ACADVER
1
AC1014
9
$HANDSEED
5
FFFF
0
ENDSEC
0
SECTION
2
TABLES
0
TABLE
2
VPORT
5
8
100
AcDbSymbolTable
0
ENDTAB
0
TABLE
2
LTYPE
5
5
100
AcDbSymbolTable
0
LTYPE
5
14
100
AcDbSymbolTableRecord
100
AcDbLinetypeTableRecord
2
BYBLOCK
70
0
0
LTYPE
5
15
100
AcDbSymbolTableRecord
100
AcDbLinetypeTableRecord
2
BYLAYER
70
0
0
LTYPE
5
16
100
AcDbSymbolTableRecord
100
AcDbLinetypeTableRecord
2
DASHED
70
0
3
Dashed __ __ __ __ __ __ __ __ __ __ __ __ __ _
72
65
73
2
40
0.75
49
0.5
74
0
49
-0.25
74
0
0
ENDTAB
0
TABLE
2
LAYER
5
2
100
AcDbSymbolTable
70
2
0
LAYER
5
50
100
AcDbSymbolTableRecord
100
AcDbLayerTableRecord
2
0
70
0
62
7
6
CONTINUOUS
0
ENDTAB
0
TABLE
2
STYLE
5
3
100
AcDbSymbolTable
70
1
0
STYLE
5
11
100
AcDbSymbolTableRecord
100
AcDbTextStyleTableRecord
2
STANDARD
70
0
0
ENDTAB
0
TABLE
2
VIEW
5
6
100
AcDbSymbolTable
70
0
0
ENDTAB
0
TABLE
2
UCS
5
7
100
AcDbSymbolTable
70
0
0
ENDTAB
0
TABLE
2
APPID
5
9
100
AcDbSymbolTable
70
2
0
APPID
5
12
100
AcDbSymbolTableRecord
100
AcDbRegAppTableRecord
2
ACAD
70
0
0
ENDTAB
0
TABLE
2
DIMSTYLE
5
A
100
AcDbSymbolTable
70
1
0
ENDTAB
0
TABLE
2
BLOCK_RECORD
5
1
100
AcDbSymbolTable
70
1
0
BLOCK_RECORD
5
1F
100
AcDbSymbolTableRecord
100
AcDbBlockTableRecord
2
*MODEL_SPACE
0
BLOCK_RECORD
5
1B
100
AcDbSymbolTableRecord
100
AcDbBlockTableRecord
2
*PAPER_SPACE
0
ENDTAB
0
ENDSEC
0
SECTION
2
BLOCKS
0
BLOCK
5
20
100
AcDbEntity
100
AcDbBlockBegin
2
*MODEL_SPACE
0
ENDBLK
5
21
100
AcDbEntity
100
AcDbBlockEnd
0
BLOCK
5
1C
100
AcDbEntity
100
AcDbBlockBegin
2
*PAPER_SPACE
0
ENDBLK
5
1D
100
AcDbEntity
100
AcDbBlockEnd
0
ENDSEC
0
SECTION
2
ENTITIES
0
CIRCLE
5
100
100
AcDbEntity
8
0
100
AcDbCircle
10
3.9924791650491898e-06
20
20.000000295794777
30
0
40
4.0000000000000062
210
-7.1746481373466319e-43
220
-1.577721810442024e-30
230
1
0
LWPOLYLINE
5
101
100
AcDbEntity
8
0
100
AcDbPolyline
90
360
70
1
43
0.0
10
10.171353698728538
20
76.73840003431603
10
10.171353698728801
20
66.820400034316009
10
10.171353698728751
20
66.81090003431602
10
10.186353698728752
20
66.779100034316031
10
10.208353698728772
20
66.783400034316031
10
10.214353698728758
20
66.806700034316037
10
10.182353698728761
20
66.820400034316009
10
10.171353698728801
20
66.820400034316009
10
-9.6286463012712495
20
66.820400034315497
10
-9.6376463012713032
20
66.820400034315497
10
-9.6696463012713014
20
66.806700034315512
10
-9.665646301271309
20
66.783400034315505
10
-9.6416463012712921
20
66.779100034315505
10
-9.6286463012712886
20
66.810900034315495
10
-9.6286463012712495
20
66.820400034315497
10
-9.6286463012715515
20
76.738400034315504
10
-9.6576463012715426
20
76.792000034315492
10
-9.7106463012715256
20
76.821000034315503
10
-29.744646301271477
20
76.821000034314977
10
-29.798646301271603
20
76.792000034314981
10
-29.828646301271604
20
76.738400034314978
10
-29.828646301271341
20
66.820400034314957
10
-29.82864630127132
20
66.810900034314969
10
-29.813646301271248
20
66.779100034314979
10
-29.790646301271337
20
66.78340003431498
10
-29.786646301271205
20
66.806700034314986
10
-29.817646301271381
20
66.820400034314972
10
-29.828646301271341
20
66.820400034314957
10
-49.628646301271395
20
66.820400034314446
10
-49.638646301271265
20
66.820400034314446
10
-49.6696463012713
20
66.80670003431446
10
-49.665646301271309
20
66.783400034314454
10
-49.642646301271256
20
66.779100034314467
10
-49.62864630127136
20
66.810900034314443
10
-49.628646301271395
20
66.820400034314446
10
-49.62864630127163
20
76.738400034314452
10
-49.657646301271612
20
76.792000034314455
10
-49.711646301271557
20
76.821000034314451
10
-69.744646301271558
20
76.821000034313926
10
-69.798646301271603
20
76.792000034313929
10
-69.829646301271495
20
76.738400034313926
10
-69.829646301271225
20
66.820400034313906
10
-69.829646301271211
20
66.810900034313917
10
-69.814646301271281
20
66.779100034313927
10
-69.790646301271337
20
66.783400034313928
10
-69.786646301271347
20
66.806700034313934
10
-69.818646301271272
20
66.820400034313906
10
-69.829646301271225
20
66.820400034313906
10
-89.628646301271402
20
66.820400034313394
10
-89.638646301271407
20
66.820400034313394
10
-89.670646301271475
20
66.806700034313423
10
-89.666646301271484
20
66.783400034313416
10
-89.642646301271398
20
66.779100034313416
10
-89.628646301271502
20
66.810900034313391
10
-89.628646301271402
20
66.820400034313394
10
-89.628646301271772
20
76.738400034313401
10
-89.657646301271754
20
76.792000034313403
10
-89.710646301271666
20
76.821000034313414
10
-109.74564630127173
20
76.821000034312888
10
-109.79964630127178
20
76.792000034312878
10
-109.82764630127171
20
76.738400034312875
10
-109.82764630127144
20
66.820400034312854
10
-109.82764630127143
20
66.810900034312866
10
-109.8126463012715
20
66.779100034312876
10
-109.79064630127148
20
66.783400034312876
10
-109.78564630127146
20
66.806700034312883
10
-109.81764630127152
20
66.820400034312854
10
-109.82764630127144
20
66.820400034312854
10
-129.62964630127144
20
66.820400034312343
10
-129.63864630127142
20
66.820400034312343
10
-129.67064630127146
20
66.806700034312371
10
-129.6666463012715
20
66.783400034312365
10
-129.64264630127138
20
66.779100034312364
10
-129.62964630127141
20
66.810900034312354
10
-129.62964630127144
20
66.820400034312343
10
-129.62964630127166
20
76.738400034312363
10
-129.65764630127177
20
76.792000034312352
10
-129.71064630127165
20
76.821000034312362
10
-149.7446463012717
20
76.821000034311822
10
-149.79664630127166
20
76.792000034311826
10
-149.82864630127176
20
76.738400034311823
10
-149.82864630127148
20
66.820400034311817
10
-149.82864630127148
20
66.810900034311814
10
-149.81464630127141
20
66.779100034311824
10
-149.78964630127143
20
66.783400034311825
10
-149.7866463012715
20
66.806700034311831
10
-149.81864630127143
20
66.820400034311817
10
-149.82864630127148
20
66.820400034311817
10
-169.62664630127148
20
66.820400034311291
10
-169.63764630127167
20
66.820400034311291
10
-169.66864630127156
20
66.806700034311305
10
-169.66564630127158
20
66.783400034311299
10
-169.64064630127149
20
66.779100034311313
10
-169.62664630127159
20
66.810900034311288
10
-169.62664630127148
20
66.820400034311291
10
-169.62664630127182
20
76.738400034311312
10
-169.6586463012718
20
76.7920000343113
10
-169.71164630127186
20
76.821000034311297
10
-199.74664630127191
20
76.821000034310515
10
-199.79964630127193
20
76.792000034310504
10
-199.82764630127201
20
76.738400034310516
10
-199.82764630127124
20
48.204300034310492
10
-199.79964630127108
20
48.15030003431049
10
-199.74664630127103
20
48.119900034310497
10
-189.83064630127097
20
48.11990003431076
10
-189.81664630127108
20
48.11990003431076
10
-189.78464630127115
20
48.135100034310753
10
-189.7916463012711
20
48.158700034310741
10
-189.81264630127106
20
48.162600034310756
10
-189.83064630127097
20
48.131200034310751
10
-189.83064630127097
20
48.11990003431076
10
-189.83064630127043
20
28.320300034310748
10
-189.83064630127052
20
28.310800034310724
10
-189.81264630127077
20
28.279000034310684
10
-189.79164630127065
20
28.28320003431072
10
-189.7846463012707
20
28.306500034310709
10
-189.81664630127079
20
28.32030003431079
10
-189.83064630127043
20
28.320300034310748
10
-199.74664630127057
20
28.320300034310474
10
-199.79964630127063
20
28.291400034310492
10
-199.8276463012707
20
28.239100034310475
10
-199.82764630126997
20
-0.29499996568946862
10
-199.79964630126977
20
-0.34879996568952287
10
-199.74664630126972
20
-0.37909996568954635
10
-169.71164630126967
20
-0.37909996568875842
10
-169.65864630126964
20
-0.3487999656887672
10
-169.62664630126972
20
-0.29499996568877829
10
-169.62664630126997
20
9.6213000343112682
10
-169.62664630127017
20
9.6323000343113137
10
-169.64064630127007
20
9.6640000343113215
10
-169.66564630127004
20
9.6585000343112455
10
-169.66864630126997
20
9.6365000343112612
10
-169.63764630127008
20
9.6213000343112682
10
-169.62664630126997
20
9.6213000343112682
10
-149.82864630127
20
9.6213000343117887
10
-149.81864630126984
20
9.6213000343117887
10
-149.78664630127008
20
9.6365000343117462
10
-149.78964630127018
20
9.658500034311837
10
-149.81464630126987
20
9.6640000343117709
10
-149.82864630126988
20
9.6323000343117631
10
-149.82864630127
20
9.6213000343117887
10
-149.82864630126977
20
-0.29499996568818743
10
-149.79664630126956
20
-0.34879996568821042
10
-149.74464630126954
20
-0.37909996568823406
10
-129.71064630126949
20
-0.3790999656877086
10
-129.65764630126978
20
-0.34879996568775357
10
-129.62964630126953
20
-0.2949999656876926
10
-129.62964630126982
20
9.6213000343123181
10
-129.62964630126982
20
9.632300034312328
10
-129.64264630126985
20
9.664000034312302
10
-129.66664630126991
20
9.6585000343123291
10
-129.67064630126993
20
9.6365000343123093
10
-129.63864630126983
20
9.6213000343123181
10
-129.62964630126982
20
9.6213000343123181
10
-109.82764630126982
20
9.6213000343128368
10
-109.81764630126996
20
9.6213000343128368
10
-109.78564630126989
20
9.6365000343128315
10
-109.79064630126992
20
9.6585000343128176
10
-109.81264630127008
20
9.6640000343128545
10
-109.82764630126987
20
9.6323000343128111
10
-109.82764630126982
20
9.6213000343128368
10
-109.8276463012696
20
-0.29499996568717379
10
-109.79964630126965
20
-0.3487999656871259
10
-109.74564630126984
20
-0.37909996568711385
10
-89.710646301269492
20
-0.37909996568665943
10
-89.657646301269622
20
-0.34879996568663224
10
-89.628646301269654
20
-0.29499996568664344
10
-89.628646301269924
20
9.6213000343133679
10
-89.628646301269939
20
9.6323000343133778
10
-89.642646301269835
20
9.6640000343133501
10
-89.666646301269921
20
9.6585000343133451
10
-89.670646301269912
20
9.6365000343133609
10
-89.638646301269844
20
9.6213000343133679
10
-89.628646301269924
20
9.6213000343133679
10
-69.829646301269747
20
9.6213000343138884
10
-69.818646301269709
20
9.6213000343138528
10
-69.786646301269784
20
9.6365000343138458
10
-69.790646301269916
20
9.6585000343138656
10
-69.814646301269718
20
9.664000034313835
10
-69.82964630126979
20
9.6323000343138627
10
-69.829646301269747
20
9.6213000343138884
10
-69.829646301269378
20
-0.29499996568608799
10
-69.798646301269471
20
-0.34879996568611105
10
-69.744646301269526
20
-0.37909996568610022
10
-49.71164630126939
20
-0.37909996568560922
10
-49.65764630126948
20
-0.34879996568558302
10
-49.628646301269512
20
-0.29499996568559317
10
-49.628646301269782
20
9.6213000343144177
10
50.1713536987304
20
9.6213000343170361
10
50.171353698730655
20
-0.29499996568297493
10
50.200353698730638
20
-0.34879996568299798
10
50.254353698730654
20
-0.37909996568298604
10
70.28935369873065
20
-0.37909996568246057
10
70.342353698730591
20
-0.34879996568243338
10
70.370353698730597
20
-0.29499996568244458
10
70.370353698730327
20
9.6213000343175672
10
70.370353698730383
20
9.6323000343175416
10
70.357353698730449
20
9.6640000343175494
10
70.333353698730434
20
9.6585000343175427
10
70.329353698730372
20
9.6365000343175584
10
70.361353698730369
20
9.6213000343176027
10
70.370353698730327
20
9.6213000343175672
10
90.171353698730428
20
9.6213000343180859
10
90.1833536987305
20
9.6213000343180859
10
90.214353698730463
20
9.6365000343180807
10
90.209353698730439
20
9.6585000343180649
10
90.18735369873049
20
9.6640000343181036
10
90.171353698730456
20
9.6323000343180603
10
90.171353698730428
20
9.6213000343180859
10
90.171353698730726
20
-0.29499996568192466
10
90.200353698730709
20
-0.34879996568191218
10
90.254353698730725
20
-0.37909996568193688
10
110.29035369873074
20
-0.37909996568141024
10
110.34235369873066
20
-0.34879996568138422
10
110.3713536987307
20
-0.2949999656813943
10
110.37135369873043
20
9.6213000343186152
10
110.37135369873049
20
9.6323000343185896
10
110.35735369873045
20
9.6640000343185974
10
110.33435369873047
20
9.6585000343185925
10
110.33035369873048
20
9.6365000343186082
10
110.36135369873051
20
9.6213000343186152
10
110.37135369873043
20
9.6213000343186152
10
130.17085369873047
20
9.6213000343191357
10
130.18175369873049
20
9.6213000343191357
10
130.21355369873049
20
9.636500034319095
10
130.20965369873045
20
9.6585000343191147
10
130.18605369873043
20
9.6640000343191179
10
130.17085369873044
20
9.6323000343191101
10
130.17085369873047
20
9.6213000343191357
10
130.1708536987307
20
-0.29499996568091102
10
130.20115369873068
20
-0.34879996568086302
10
130.25485369873067
20
-0.37909996568088661
10
150.28875369873074
20
-0.37909996568036114
10
150.34265369873077
20
-0.34879996568033389
10
150.3716536987308
20
-0.29499996568034514
10
150.37165369873054
20
9.6213000343196668
10
150.3716536987306
20
9.6323000343197105
10
150.35785369873054
20
9.664000034319649
10
150.33425369873049
20
9.6585000343196423
10
150.33035369873056
20
9.6365000343196581
10
150.36205369873051
20
9.6213000343196668
10
150.37165369873054
20
9.6213000343196668
10
170.1712536987306
20
9.6213000343201855
10
170.18225369873056
20
9.6213000343201855
10
170.21395369873056
20
9.6365000343201803
10
170.20975369873048
20
9.6585000343201646
10
170.18645369873056
20
9.6640000343201677
10
170.17125369873057
20
9.6323000343201599
10
170.1712536987306
20
9.6213000343201855
10
170.17125369873082
20
-0.29499996567982523
10
170.20165369873075
20
-0.34879996567981275
10
170.2552536987308
20
-0.37909996567983745
10
200.2896536987308
20
-0.37909996567904841
10
200.34195369873083
20
-0.34879996567902166
10
200.37095369873086
20
-0.29499996567903286
10
200.37095369873012
20
28.239100034320984
10
200.34195369873009
20
28.291400034320986
10
200.28965369873015
20
28.320300034320979
10
190.37185369873009
20
28.320300034320717
10
190.36225369873017
20
28.320300034320709
10
190.33055369873017
20
28.30650003432072
10
190.33465369873014
20
28.283200034320714
10
190.35805369873009
20
28.279000034320717
10
190.37185369873009
20
28.310800034320703
10
190.37185369873009
20
28.320300034320717
10
190.37185369872955
20
48.119900034320722
10
190.37185369872952
20
48.131200034320727
10
190.35805369872952
20
48.162600034320732
10
190.33465369872957
20
48.158700034320717
10
190.33055369872955
20
48.135100034320722
10
190.3622536987296
20
48.119900034320729
10
190.37185369872955
20
48.119900034320722
10
200.28965369872958
20
48.119900034320992
10
200.34195369872953
20
48.150300034320999
10
200.37095369872958
20
48.204300034321001
10
200.37095369872884
20
76.738400034321018
10
200.34195369872884
20
76.792000034321021
10
200.28965369872884
20
76.821000034321017
10
170.25525369872884
20
76.821000034320221
10
170.20165369872876
20
76.792000034320225
10
170.17125369872878
20
76.738400034320222
10
170.17125369872903
20
66.820400034320201
10
170.171253698729
20
66.810900034320213
10
170.186453698729
20
66.779100034320237
10
170.209753698729
20
66.783400034320238
10
170.21395369872897
20
66.806700034320244
10
170.18225369872903
20
66.820400034320201
10
170.17125369872903
20
66.820400034320201
10
150.37165369872898
20
66.820400034319675
10
150.36205369872897
20
66.82040003431969
10
150.33035369872897
20
66.806700034319718
10
150.33425369872896
20
66.783400034319712
10
150.35785369872897
20
66.779100034319711
10
150.37165369872901
20
66.810900034319701
10
150.37165369872898
20
66.820400034319675
10
150.37165369872875
20
76.73840003431971
10
150.34265369872878
20
76.792000034319699
10
150.28875369872878
20
76.821000034319709
10
130.25485369872871
20
76.821000034319184
10
130.20115369872869
20
76.792000034319173
10
130.17085369872865
20
76.73840003431917
10
130.17085369872893
20
66.82040003431915
10
130.17085369872888
20
66.810900034319161
10
130.18605369872893
20
66.779100034319171
10
130.20965369872891
20
66.783400034319172
10
130.21355369872893
20
66.806700034319178
10
130.18175369872893
20
66.820400034319164
10
130.17085369872893
20
66.82040003431915
10
110.37135369872888
20
66.820400034318638
10
110.36135369872895
20
66.820400034318638
10
110.33035369872891
20
66.806700034318666
10
110.3343536987289
20
66.78340003431866
10
110.35735369872896
20
66.77910003431866
10
110.37135369872892
20
66.810900034318649
10
110.37135369872888
20
66.820400034318638
10
110.37135369872865
20
76.738400034318659
10
110.34235369872867
20
76.792000034318647
10
110.29035369872872
20
76.821000034318658
10
90.254353698728693
20
76.821000034318132
10
90.200353698728719
20
76.792000034318121
10
90.17135369872868
20
76.738400034318119
10
90.17135369872895
20
66.820400034318098
10
90.171353698728893
20
66.810900034318109
10
90.187353698728927
20
66.779100034318134
10
90.209353698728876
20
66.78340003431812
10
90.2143536987289
20
66.806700034318126
10
90.183353698728936
20
66.820400034318112
10
90.17135369872895
20
66.820400034318098
10
70.370353698728849
20
66.820400034317586
10
70.361353698728877
20
66.820400034317586
10
70.329353698728809
20
66.806700034317601
10
70.333353698728871
20
66.783400034317609
10
70.357353698728815
20
66.779100034317608
10
70.37035369872882
20
66.810900034317598
10
70.370353698728849
20
66.820400034317586
10
70.37035369872855
20
76.738400034317621
10
70.342353698728601
20
76.79200003431761
10
70.289353698728618
20
76.821000034317606
10
50.254353698728629
20
76.82100003431708
10
50.200353698728648
20
76.79200003431707
10
50.171353698728609
20
76.738400034317081
10
50.171353698728879
20
66.820400034317061
10
50.171353698728822
20
66.810900034317072
10
50.187353698728856
20
66.779100034317082
10
50.208353698728914
20
66.783400034317083
10
50.214353698728829
20
66.806700034317089
10
50.182353698728903
20
66.820400034317061
10
50.171353698728879
20
66.820400034317061
10
30.372353698728784
20
66.820400034316549
10
30.362353698728768
20
66.820400034316535
10
30.330353698728771
20
66.806700034316563
10
30.334353698728762
20
66.783400034316557
10
30.358353698728777
20
66.779100034316556
10
30.372353698728745
20
66.810900034316546
10
30.372353698728784
20
66.820400034316549
10
30.372353698728482
20
76.738400034316555
10
30.343353698728563
20
76.792000034316544
10
30.289353698728618
20
76.821000034316555
10
10.25435369872849
20
76.821000034316029
10
10.201353698728539
20
76.792000034316018
0
ENDSEC
0
SECTION
2
OBJECTS
0
DICTIONARY
5
C
100
AcDbDictionary
3
ACAD_GROUP
350
D
3
ACAD_MLINESTYLE
350
17
0
DICTIONARY
5
D
100
AcDbDictionary
0
DICTIONARY
5
1A
330
C
100
AcDbDictionary
0
DICTIONARY
5
17
100
AcDbDictionary
0
ENDSEC
0
EOF
