0
SECTION
2
HEADER
9
$INSUNITS
70
4
9
$ACADVER
1
AC1014
9
$HANDSEED
5
FFFF
0
ENDSEC
0
SECTION
2
TABLES
0
TABLE
2
VPORT
5
8
100
AcDbSymbolTable
0
ENDTAB
0
TABLE
2
LTYPE
5
5
100
AcDbSymbolTable
0
LTYPE
5
14
100
AcDbSymbolTableRecord
100
AcDbLinetypeTableRecord
2
BYBLOCK
70
0
0
LTYPE
5
15
100
AcDbSymbolTableRecord
100
AcDbLinetypeTableRecord
2
BYLAYER
70
0
0
LTYPE
5
16
100
AcDbSymbolTableRecord
100
AcDbLinetypeTableRecord
2
DASHED
70
0
3
Dashed __ __ __ __ __ __ __ __ __ __ __ __ __ _
72
65
73
2
40
0.75
49
0.5
74
0
49
-0.25
74
0
0
ENDTAB
0
TABLE
2
LAYER
5
2
100
AcDbSymbolTable
70
2
0
LAYER
5
50
100
AcDbSymbolTableRecord
100
AcDbLayerTableRecord
2
0
70
0
62
7
6
CONTINUOUS
0
ENDTAB
0
TABLE
2
STYLE
5
3
100
AcDbSymbolTable
70
1
0
STYLE
5
11
100
AcDbSymbolTableRecord
100
AcDbTextStyleTableRecord
2
STANDARD
70
0
0
ENDTAB
0
TABLE
2
VIEW
5
6
100
AcDbSymbolTable
70
0
0
ENDTAB
0
TABLE
2
UCS
5
7
100
AcDbSymbolTable
70
0
0
ENDTAB
0
TABLE
2
APPID
5
9
100
AcDbSymbolTable
70
2
0
APPID
5
12
100
AcDbSymbolTableRecord
100
AcDbRegAppTableRecord
2
ACAD
70
0
0
ENDTAB
0
TABLE
2
DIMSTYLE
5
A
100
AcDbSymbolTable
70
1
0
ENDTAB
0
TABLE
2
BLOCK_RECORD
5
1
100
AcDbSymbolTable
70
1
0
BLOCK_RECORD
5
1F
100
AcDbSymbolTableRecord
100
AcDbBlockTableRecord
2
*MODEL_SPACE
0
BLOCK_RECORD
5
1B
100
AcDbSymbolTableRecord
100
AcDbBlockTableRecord
2
*PAPER_SPACE
0
ENDTAB
0
ENDSEC
0
SECTION
2
BLOCKS
0
BLOCK
5
20
100
AcDbEntity
100
AcDbBlockBegin
2
*MODEL_SPACE
0
ENDBLK
5
21
100
AcDbEntity
100
AcDbBlockEnd
0
BLOCK
5
1C
100
AcDbEntity
100
AcDbBlockBegin
2
*PAPER_SPACE
0
ENDBLK
5
1D
100
AcDbEntity
100
AcDbBlockEnd
0
ENDSEC
0
SECTION
2
ENTITIES
0
LWPOLYLINE
5
100
100
AcDbEntity
8
0
100
AcDbPolyline
90
433
70
1
43
0.0
10
49.653646301269418
20
269.60060100555404
10
49.653646301269418
20
279.51860100555405
10
49.625646301269626
20
279.57160100555404
10
49.572646301269572
20
279.60060100555404
10
29.534646301269557
20
279.60060100555404
10
29.454631879925728
20
279.60059363394959
10
29.453526804946222
20
291.59553113156068
10
15.304745665087061
20
291.59422762630851
10
15.301066735372686
20
269.59422793391133
10
10.301066805282408
20
269.59506405430096
10
10.304745734996885
20
291.59506374669814
10
2.0547457452990736
20
291.59547604055058
10
2.0536462950272494
20
269.59547609549566
10
-2.9463536987304275
20
269.59572594308526
10
-2.945254248458582
20
291.59572588814024
10
-11.195254238156394
20
291.59613818199267
10
-11.196353688429639
20
269.59613820946515
10
-16.196353675942142
20
269.59638808452701
10
-16.195254225668876
20
291.59638805705447
10
-30.380454399180103
20
291.55467891132122
10
-30.430353698730457
20
279.60060100555404
10
-50.461353698730527
20
279.60060100555404
10
-50.517353698730503
20
279.57160100555404
10
-50.546353698730542
20
279.51860100555405
10
-50.546353698730542
20
269.60060100555404
10
-50.546353698730542
20
269.59060100555405
10
-50.531353698730541
20
269.55860100555407
10
-50.507353698730526
20
269.56360100555401
10
-50.503353698730606
20
269.58660100555403
10
-50.535353698730532
20
269.60060100555404
10
-50.546353698730542
20
269.60060100555404
10
-70.343353698730652
20
269.60060100555404
10
-70.358353698730625
20
269.60060100555404
10
-70.389353698730588
20
269.58660100555403
10
-70.382353698730498
20
269.56360100555401
10
-70.361353698730582
20
269.55860100555407
10
-70.343353698730624
20
269.59060100555405
10
-70.343353698730652
20
269.60060100555404
10
-70.343353698730624
20
279.51860100555405
10
-70.375353698730549
20
279.57160100555404
10
-70.428353698730604
20
279.60060100555404
10
-90.462353698730624
20
279.60060100555404
10
-90.51535369873065
20
279.57160100555404
10
-90.544353698730617
20
279.51860100555405
10
-90.544353698730617
20
269.60060100555404
10
-90.544353698730617
20
269.59060100555405
10
-90.529353698730617
20
269.55860100555407
10
-90.508353698730701
20
269.56360100555401
10
-90.501353698730611
20
269.58660100555403
10
-90.533353698730679
20
269.60060100555404
10
-90.544353698730617
20
269.60060100555404
10
-110.34535369873072
20
269.60060100555404
10
-110.35635369873063
20
269.60060100555404
10
-110.38735369873066
20
269.58660100555403
10
-110.38435369873064
20
269.56360100555401
10
-110.35935369873066
20
269.55860100555407
10
-110.34535369873069
20
269.59060100555405
10
-110.34535369873072
20
269.60060100555404
10
-110.34535369873069
20
279.51860100555405
10
-110.3733536987307
20
279.57160100555404
10
-110.43035369873067
20
279.60060100555404
10
-130.46435369873069
20
279.60060100555404
10
-130.51735369873063
20
279.57160100555404
10
-130.54535369873065
20
279.51860100555405
10
-130.54535369873065
20
269.60060100555404
10
-130.54535369873065
20
269.59060100555405
10
-130.5313536987307
20
269.55860100555407
10
-130.50635369873063
20
269.56360100555401
10
-130.50335369873068
20
269.58660100555403
10
-130.53435369873063
20
269.60060100555404
10
-130.54535369873065
20
269.60060100555404
10
-150.3463536987307
20
269.60060100555404
10
-150.35735369873066
20
269.60060100555404
10
-150.38935369873073
20
269.58660100555403
10
-150.38235369873064
20
269.56360100555401
10
-150.36135369873074
20
269.55860100555407
10
-150.34635369873072
20
269.59060100555405
10
-150.3463536987307
20
269.60060100555404
10
-150.34635369873072
20
279.51860100555405
10
-150.37535369873069
20
279.57160100555404
10
-150.42835369873075
20
279.60060100555404
10
-170.46235369873077
20
279.60060100555404
10
-170.51535369873073
20
279.57160100555404
10
-170.54735369873072
20
279.51860100555405
10
-170.54735369873072
20
269.60060100555404
10
-170.54735369873072
20
269.59060100555405
10
-170.53235369873073
20
269.55860100555407
10
-170.50835369873079
20
269.56360100555401
10
-170.50435369873071
20
269.58660100555403
10
-170.53635369873069
20
269.60060100555404
10
-170.54735369873072
20
269.60060100555404
10
-190.46435369873078
20
269.60060100555404
10
-190.51435369873082
20
269.57160100555399
10
-190.54535369873079
20
269.51760100555407
10
-190.54535369873079
20
249.60060100555407
10
-190.54535369873079
20
249.59160100555405
10
-190.53135369873081
20
249.5596010055541
10
-190.50735369873075
20
249.56360100555401
10
-190.50335369873082
20
249.58760100555406
10
-190.53535369873083
20
249.60060100555407
10
-190.54535369873079
20
249.60060100555407
10
-200.46235369873079
20
249.60060100555407
10
-200.51535369873079
20
249.57160100555399
10
-200.54335369873081
20
249.51860100555407
10
-200.54335369873081
20
229.48460100555405
10
-200.51535369873079
20
229.43060100555411
10
-200.46235369873079
20
229.40060100555414
10
-190.54535369873079
20
229.40060100555411
10
-190.53535369873083
20
229.40060100555414
10
-190.50335369873082
20
229.41560100555409
10
-190.50735369873075
20
229.43860100555406
10
-190.53135369873081
20
229.44360100555406
10
-190.54535369873079
20
229.41160100555408
10
-190.54535369873079
20
229.40060100555411
10
-190.54535369873079
20
209.6006010055541
10
-190.54535369873079
20
209.59060100555411
10
-190.53135369873081
20
209.5596010055541
10
-190.50735369873075
20
209.56360100555406
10
-190.50335369873082
20
209.58660100555409
10
-190.53535369873083
20
209.60060100555413
10
-190.54535369873079
20
209.6006010055541
10
-200.46235369873079
20
209.60060100555413
10
-200.51535369873079
20
209.57160100555404
10
-200.54335369873081
20
209.51760100555404
10
-200.54335369873081
20
189.48460100555411
10
-200.51535369873079
20
189.43060100555411
10
-200.46235369873079
20
189.40060100555411
10
-190.54535369873079
20
189.40060100555411
10
-190.53535369873083
20
189.40060100555411
10
-190.50335369873082
20
189.41560100555407
10
-190.50735369873075
20
189.43860100555409
10
-190.53135369873081
20
189.44260100555411
10
-190.54535369873079
20
189.4116010055541
10
-190.54535369873079
20
189.40060100555411
10
-190.54535369873079
20
169.60060100555413
10
-190.54535369873079
20
169.59060100555408
10
-190.53135369873081
20
169.55960100555413
10
-190.50735369873075
20
169.56360100555412
10
-190.50335369873082
20
169.58660100555409
10
-190.53535369873083
20
169.60060100555413
10
-190.54535369873079
20
169.60060100555413
10
-200.46235369873079
20
169.60060100555413
10
-200.51535369873079
20
169.5716010055541
10
-200.54335369873081
20
169.5186010055541
10
-200.54335369873081
20
149.48360100555408
10
-200.51535369873079
20
149.43060100555411
10
-200.46235369873079
20
149.40160100555408
10
-190.54535369873079
20
149.40160100555408
10
-190.53535369873083
20
149.40160100555408
10
-190.50335369873082
20
149.4166010055541
10
-190.50735369873075
20
149.43860100555412
10
-190.53135369873081
20
149.44360100555411
10
-190.54535369873079
20
149.41260100555411
10
-190.54535369873079
20
149.40160100555408
10
-190.54535369873079
20
129.48460100555411
10
-190.51435369873082
20
129.43060100555411
10
-190.4643536987308
20
129.40060100555411
10
-170.54735369873075
20
129.40060100555411
10
-170.53635369873069
20
129.40060100555411
10
-170.50435369873071
20
129.41560100555409
10
-170.50835369873079
20
129.43860100555412
10
-170.53235369873073
20
129.44360100555411
10
-170.54735369873072
20
129.41160100555408
10
-170.54735369873075
20
129.40060100555411
10
-170.54735369873072
20
119.48360100555408
10
-170.51535369873073
20
119.43060100555411
10
-170.46235369873074
20
119.4016010055541
10
-150.42835369873072
20
119.4016010055541
10
-150.37535369873069
20
119.43060100555411
10
-150.34635369873072
20
119.48360100555408
10
-150.34635369873072
20
129.40060100555411
10
-150.34635369873072
20
129.41160100555408
10
-150.36135369873074
20
129.44360100555411
10
-150.38235369873064
20
129.43860100555412
10
-150.38935369873073
20
129.41560100555409
10
-150.35735369873066
20
129.40060100555411
10
-150.34635369873072
20
129.40060100555411
10
-130.54535369873068
20
129.40060100555411
10
-130.53435369873063
20
129.40060100555411
10
-130.50335369873068
20
129.41560100555409
10
-130.50635369873063
20
129.43860100555412
10
-130.5313536987307
20
129.44360100555411
10
-130.54535369873065
20
129.41160100555408
10
-130.54535369873068
20
129.40060100555411
10
-130.54535369873065
20
119.48360100555408
10
-130.51735369873063
20
119.43060100555411
10
-130.46435369873066
20
119.4016010055541
10
-110.43035369873064
20
119.4016010055541
10
-110.3733536987307
20
119.43060100555411
10
-110.34535369873069
20
119.48360100555408
10
-110.34535369873069
20
129.40060100555411
10
-110.34535369873069
20
129.41160100555408
10
-110.35935369873066
20
129.44360100555411
10
-110.38435369873064
20
129.43860100555412
10
-110.38735369873066
20
129.41560100555409
10
-110.35635369873063
20
129.40060100555411
10
-110.34535369873069
20
129.40060100555411
10
-90.544353698730589
20
129.40060100555411
10
-90.533353698730679
20
129.40060100555411
10
-90.501353698730611
20
129.41560100555409
10
-90.508353698730701
20
129.43860100555412
10
-90.529353698730617
20
129.44360100555411
10
-90.544353698730617
20
129.41160100555408
10
-90.544353698730589
20
129.40060100555411
10
-90.544353698730617
20
119.48360100555408
10
-90.51535369873065
20
119.43060100555411
10
-90.462353698730666
20
119.4016010055541
10
-70.428353698730632
20
119.4016010055541
10
-70.375353698730549
20
119.43060100555411
10
-70.343353698730624
20
119.48360100555408
10
-70.343353698730624
20
129.40060100555411
10
-70.343353698730624
20
129.41160100555408
10
-70.361353698730582
20
129.44360100555411
10
-70.382353698730498
20
129.43860100555412
10
-70.389353698730588
20
129.41560100555409
10
-70.358353698730625
20
129.40060100555411
10
-70.343353698730624
20
129.40060100555411
10
-50.546353698730506
20
129.40060100555411
10
-50.535353698730532
20
129.40060100555411
10
-50.503353698730606
20
129.41560100555409
10
-50.507353698730526
20
129.43860100555412
10
-50.531353698730541
20
129.44360100555411
10
-50.546353698730542
20
129.41160100555408
10
-50.546353698730506
20
129.40060100555411
10
-50.546353698730542
20
119.48360100555408
10
-50.517353698730503
20
119.43060100555411
10
-50.461353698730562
20
119.4016010055541
10
-30.561726324167719
20
119.4016010055541
10
-9.6845141818018412
20
119.40553478861656
10
-9.6845141820067937
20
129.40553478861656
10
-3.5245141820067873
20
129.40553478874278
10
-3.5245141818018766
20
119.40553478874278
10
2.6354857139822583
20
119.40666789909152
10
2.633646249161643
20
129.40666756072844
10
8.7936461449458498
20
129.40780067107713
10
8.7954856097976375
20
119.40780084025867
10
29.534646301269621
20
119.4016010055541
10
49.572646301269607
20
119.4016010055541
10
49.625646301269626
20
119.43060100555411
10
49.653646301269418
20
119.48360100555408
10
49.653646301269418
20
129.40060100555411
10
49.653646301269418
20
129.41160100555408
10
49.639646301269522
20
129.44360100555411
10
49.618646301269536
20
129.43860100555412
10
49.611646301269587
20
129.41560100555409
10
49.642646301269622
20
129.40060100555411
10
49.653646301269418
20
129.40060100555411
10
69.454646301269662
20
129.40060100555411
10
69.465646301269572
20
129.40060100555411
10
69.49764630126964
20
129.41560100555409
10
69.493646301269507
20
129.43860100555412
10
69.46864630126953
20
129.44360100555411
10
69.454646301269634
20
129.41160100555408
10
69.454646301269662
20
129.40060100555411
10
69.454646301269634
20
119.48360100555408
10
69.483646301269459
20
119.43060100555411
10
69.535646301269622
20
119.4016010055541
10
89.570646301269676
20
119.4016010055541
10
89.626646301269659
20
119.43060100555411
10
89.654646301269736
20
119.48360100555408
10
89.654646301269736
20
129.40060100555411
10
89.654646301269736
20
129.41160100555408
10
89.64064630126984
20
129.44360100555411
10
89.616646301269611
20
129.43860100555412
10
89.612646301269763
20
129.41560100555409
10
89.644646301269688
20
129.40060100555411
10
89.654646301269736
20
129.40060100555411
10
109.45264630126974
20
129.40060100555411
10
109.46364630126965
20
129.40060100555411
10
109.49564630126986
20
129.41560100555409
10
109.49164630126972
20
129.43860100555412
10
109.46664630126975
20
129.44360100555411
10
109.45264630126971
20
129.41160100555408
10
109.45264630126974
20
129.40060100555411
10
109.45264630126971
20
119.48360100555408
10
109.48464630126978
20
119.43060100555411
10
109.53764630126969
20
119.4016010055541
10
129.57164630126971
20
119.4016010055541
10
129.62464630126973
20
119.43060100555411
10
129.65664630126966
20
119.48360100555408
10
129.65664630126966
20
129.40060100555411
10
129.65664630126966
20
129.41160100555408
10
129.63864630126963
20
129.44360100555411
10
129.61764630126979
20
129.43860100555412
10
129.61064630126984
20
129.41560100555409
10
129.64264630126976
20
129.40060100555411
10
129.65664630126966
20
129.40060100555411
10
149.4546463012698
20
129.40060100555411
10
149.46464630126968
20
129.40060100555411
10
149.49664630126961
20
129.41560100555409
10
149.49264630126976
20
129.43860100555412
10
149.46864630126967
20
129.44360100555411
10
149.45464630126978
20
129.41160100555408
10
149.4546463012698
20
129.40060100555411
10
149.45464630126978
20
119.48360100555408
10
149.48264630126971
20
119.43060100555411
10
149.53564630126976
20
119.4016010055541
10
169.56964630126978
20
119.4016010055541
10
169.6266463012698
20
119.43060100555411
10
169.65464630126988
20
119.48360100555408
10
169.65464630126988
20
129.40060100555411
10
169.65464630126988
20
129.41160100555408
10
169.64064630126998
20
129.44360100555411
10
169.61564630127
20
129.43860100555412
10
169.61164630126987
20
129.41560100555409
10
169.6436463012698
20
129.40060100555411
10
169.65464630126988
20
129.40060100555411
10
189.57264630126988
20
129.40060100555411
10
189.62464630126988
20
129.43060100555411
10
189.6536463012697
20
129.48460100555411
10
189.6536463012697
20
149.40160100555408
10
189.6536463012697
20
149.41260100555411
10
189.63964630126981
20
149.44360100555411
10
189.61464630126983
20
149.43860100555412
10
189.61064630126998
20
149.4166010055541
10
189.64264630126991
20
149.40160100555408
10
189.6536463012697
20
149.40160100555408
10
199.5696463012699
20
149.40160100555408
10
199.6266463012698
20
149.43060100555411
10
199.65464630126988
20
149.48360100555408
10
199.65464630126988
20
169.5186010055541
10
199.6266463012698
20
169.5716010055541
10
199.5696463012699
20
169.60060100555413
10
189.6536463012697
20
169.60060100555413
10
189.64264630126991
20
169.60060100555413
10
189.61064630126998
20
169.58660100555409
10
189.61464630126983
20
169.56360100555412
10
189.63964630126981
20
169.55960100555413
10
189.6536463012697
20
169.59060100555408
10
189.6536463012697
20
169.60060100555413
10
189.6536463012697
20
189.40060100555411
10
189.6536463012697
20
189.41160100555408
10
189.63964630126981
20
189.44260100555408
10
189.61464630126983
20
189.43860100555412
10
189.61064630126998
20
189.41560100555409
10
189.64264630126991
20
189.40060100555411
10
189.6536463012697
20
189.40060100555411
10
199.5696463012699
20
189.40060100555411
10
199.6266463012698
20
189.43060100555411
10
199.65464630126988
20
189.48460100555411
10
199.65464630126988
20
209.51760100555407
10
199.6266463012698
20
209.57160100555404
10
199.5696463012699
20
209.6006010055541
10
189.6536463012697
20
209.60060100555413
10
189.64264630126991
20
209.60060100555413
10
189.61064630126998
20
209.58660100555406
10
189.61464630126983
20
209.56360100555406
10
189.63964630126981
20
209.5596010055541
10
189.6536463012697
20
209.59060100555411
10
189.6536463012697
20
209.60060100555413
10
189.6536463012697
20
229.40060100555414
10
189.6536463012697
20
229.41160100555408
10
189.63964630126981
20
229.44360100555406
10
189.61464630126983
20
229.43860100555409
10
189.61064630126998
20
229.41560100555407
10
189.64264630126991
20
229.40060100555411
10
189.6536463012697
20
229.40060100555414
10
199.5696463012699
20
229.40060100555411
10
199.6266463012698
20
229.43060100555408
10
199.65464630126988
20
229.48460100555411
10
199.65464630126988
20
249.5186010055541
10
199.6266463012698
20
249.57160100555399
10
199.5696463012699
20
249.6006010055541
10
189.6536463012697
20
249.60060100555407
10
189.64264630126991
20
249.60060100555407
10
189.61064630126998
20
249.58760100555409
10
189.61464630126983
20
249.56360100555401
10
189.63964630126981
20
249.55960100555404
10
189.6536463012697
20
249.59160100555405
10
189.6536463012697
20
249.60060100555407
10
189.6536463012697
20
269.51760100555401
10
189.62464630126988
20
269.57160100555399
10
189.57264630126986
20
269.6006010055541
10
169.65464630126985
20
269.60060100555404
10
169.6436463012698
20
269.60060100555404
10
169.61164630126987
20
269.58660100555403
10
169.61564630127
20
269.56360100555401
10
169.64064630126998
20
269.55860100555407
10
169.65464630126988
20
269.59060100555405
10
169.65464630126985
20
269.60060100555404
10
169.65464630126988
20
279.51860100555405
10
169.6266463012698
20
279.57160100555404
10
169.5696463012699
20
279.60060100555404
10
149.53564630126988
20
279.60060100555404
10
149.48264630126971
20
279.57160100555404
10
149.45464630126978
20
279.51860100555405
10
149.45464630126978
20
269.60060100555404
10
149.45464630126978
20
269.59060100555405
10
149.46864630126967
20
269.55860100555407
10
149.49264630126976
20
269.56360100555401
10
149.49664630126961
20
269.58660100555403
10
149.46464630126968
20
269.60060100555404
10
149.45464630126978
20
269.60060100555404
10
129.65664630126963
20
269.60060100555404
10
129.64264630126976
20
269.60060100555404
10
129.61064630126984
20
269.58660100555403
10
129.61764630126979
20
269.56360100555401
10
129.63864630126963
20
269.55860100555407
10
129.65664630126966
20
269.59060100555405
10
129.65664630126963
20
269.60060100555404
10
129.65664630126966
20
279.51860100555405
10
129.62464630126973
20
279.57160100555404
10
129.57164630126968
20
279.60060100555404
10
109.53764630126966
20
279.60060100555404
10
109.48464630126978
20
279.57160100555404
10
109.45264630126971
20
279.51860100555405
10
109.45264630126971
20
269.60060100555404
10
109.45264630126971
20
269.59060100555405
10
109.46664630126975
20
269.55860100555407
10
109.49164630126972
20
269.56360100555401
10
109.49564630126986
20
269.58660100555403
10
109.46364630126965
20
269.60060100555404
10
109.45264630126971
20
269.60060100555404
10
89.654646301269707
20
269.60060100555404
10
89.644646301269688
20
269.60060100555404
10
89.612646301269763
20
269.58660100555403
10
89.616646301269611
20
269.56360100555401
10
89.64064630126984
20
269.55860100555407
10
89.654646301269736
20
269.59060100555405
10
89.654646301269707
20
269.60060100555404
10
89.654646301269736
20
279.51860100555405
10
89.626646301269659
20
279.57160100555404
10
89.57064630126979
20
279.60060100555404
10
69.535646301269736
20
279.60060100555404
10
69.483646301269459
20
279.57160100555404
10
69.454646301269634
20
279.51860100555405
10
69.454646301269634
20
269.60060100555404
10
69.454646301269634
20
269.59060100555405
10
69.46864630126953
20
269.55860100555407
10
69.493646301269507
20
269.56360100555401
10
69.49764630126964
20
269.58660100555403
10
69.465646301269572
20
269.60060100555404
10
69.454646301269634
20
269.60060100555404
0
LWPOLYLINE
5
101
100
AcDbEntity
8
0
100
AcDbPolyline
90
6
70
1
43
0.0
10
49.653646301269418
20
269.60060100555404
10
49.653646301269418
20
269.59060100555405
10
49.639646301269522
20
269.55860100555407
10
49.618646301269536
20
269.56360100555401
10
49.611646301269587
20
269.58660100555403
10
49.642646301269622
20
269.60060100555404
0
ENDSEC
0
SECTION
2
OBJECTS
0
DICTIONARY
5
C
100
AcDbDictionary
3
ACAD_GROUP
350
D
3
ACAD_MLINESTYLE
350
17
0
DICTIONARY
5
D
100
AcDbDictionary
0
DICTIONARY
5
1A
330
C
100
AcDbDictionary
0
DICTIONARY
5
17
100
AcDbDictionary
0
ENDSEC
0
EOF
