0
SECTION
2
HEADER
9
$INSUNITS
70
4
9
$ACADVER
1
AC1014
9
$HANDSEED
5
FFFF
0
ENDSEC
0
SECTION
2
TABLES
0
TABLE
2
VPORT
5
8
100
AcDbSymbolTable
0
ENDTAB
0
TABLE
2
LTYPE
5
5
100
AcDbSymbolTable
0
LTYPE
5
14
100
AcDbSymbolTableRecord
100
AcDbLinetypeTableRecord
2
BYBLOCK
70
0
0
LTYPE
5
15
100
AcDbSymbolTableRecord
100
AcDbLinetypeTableRecord
2
BYLAYER
70
0
0
LTYPE
5
16
100
AcDbSymbolTableRecord
100
AcDbLinetypeTableRecord
2
DASHED
70
0
3
Dashed __ __ __ __ __ __ __ __ __ __ __ __ __ _
72
65
73
2
40
0.75
49
0.5
74
0
49
-0.25
74
0
0
ENDTAB
0
TABLE
2
LAYER
5
2
100
AcDbSymbolTable
70
2
0
LAYER
5
50
100
AcDbSymbolTableRecord
100
AcDbLayerTableRecord
2
0
70
0
62
7
6
CONTINUOUS
0
ENDTAB
0
TABLE
2
STYLE
5
3
100
AcDbSymbolTable
70
1
0
STYLE
5
11
100
AcDbSymbolTableRecord
100
AcDbTextStyleTableRecord
2
STANDARD
70
0
0
ENDTAB
0
TABLE
2
VIEW
5
6
100
AcDbSymbolTable
70
0
0
ENDTAB
0
TABLE
2
UCS
5
7
100
AcDbSymbolTable
70
0
0
ENDTAB
0
TABLE
2
APPID
5
9
100
AcDbSymbolTable
70
2
0
APPID
5
12
100
AcDbSymbolTableRecord
100
AcDbRegAppTableRecord
2
ACAD
70
0
0
ENDTAB
0
TABLE
2
DIMSTYLE
5
A
100
AcDbSymbolTable
70
1
0
ENDTAB
0
TABLE
2
BLOCK_RECORD
5
1
100
AcDbSymbolTable
70
1
0
BLOCK_RECORD
5
1F
100
AcDbSymbolTableRecord
100
AcDbBlockTableRecord
2
*MODEL_SPACE
0
BLOCK_RECORD
5
1B
100
AcDbSymbolTableRecord
100
AcDbBlockTableRecord
2
*PAPER_SPACE
0
ENDTAB
0
ENDSEC
0
SECTION
2
BLOCKS
0
BLOCK
5
20
100
AcDbEntity
100
AcDbBlockBegin
2
*MODEL_SPACE
0
ENDBLK
5
21
100
AcDbEntity
100
AcDbBlockEnd
0
BLOCK
5
1C
100
AcDbEntity
100
AcDbBlockBegin
2
*PAPER_SPACE
0
ENDBLK
5
1D
100
AcDbEntity
100
AcDbBlockEnd
0
ENDSEC
0
SECTION
2
ENTITIES
0
LWPOLYLINE
5
100
100
AcDbEntity
8
0
100
AcDbPolyline
90
36
70
1
43
0.0
10
-15.893510189527618
20
-30.594466478397777
10
-9.7345101895275725
20
-30.594466478397777
10
-9.7345101895275832
20
-40.594466478397813
10
-3.3345101895275677
20
-40.594466478397813
10
-3.3345101895276485
20
-30.594468862583643
10
2.7254898104724479
20
-30.594468862583604
10
2.72548981047251
20
-40.594466478397813
10
9.1254898104725264
20
-40.594466478397813
10
9.1254898104725157
20
-30.594468862583607
10
15.284489810472488
20
-30.594468862583604
10
15.284489810472479
20
-46.594468862583611
10
11.284489810472486
20
-46.594468862583618
10
11.284489810472493
20
-51.594468862583618
10
24.955489810472521
20
-51.594468862583618
10
24.9554898104725
20
-25.594468862583653
10
14.955489810472484
20
-25.594468862583639
10
14.955489810472571
20
114.40553352160211
10
24.955489810472518
20
114.40553352160214
10
24.9554898104725
20
119.40553352160214
10
9.0754898104725363
20
119.40553352160214
10
9.0754898104725612
20
129.40553352160214
10
2.7754898104725969
20
129.40553352160214
10
2.7754898104726067
20
119.40553352160214
10
-3.3845101895273997
20
119.40553352160214
10
-3.384510189527461
20
129.40553352160214
10
-9.6845101895274972
20
129.40553352160214
10
-9.6845101895274865
20
119.40553352160214
10
-25.844510189527583
20
119.40553352160221
10
-25.844510189527554
20
114.40553352160221
10
-15.844510189527538
20
114.40553352160221
10
-15.844510189527554
20
-25.594466478397795
10
-25.844510189527572
20
-25.594466478397777
10
-25.844510189527554
20
-51.594466478397777
10
-11.893510189527539
20
-51.594466478397791
10
-11.893510189527561
20
-46.594466478397791
10
-15.893510189527625
20
-46.594466478397791
0
ENDSEC
0
SECTION
2
OBJECTS
0
DICTIONARY
5
C
100
AcDbDictionary
3
ACAD_GROUP
350
D
3
ACAD_MLINESTYLE
350
17
0
DICTIONARY
5
D
100
AcDbDictionary
0
DICTIONARY
5
1A
330
C
100
AcDbDictionary
0
DICTIONARY
5
17
100
AcDbDictionary
0
ENDSEC
0
EOF
