0
SECTION
2
HEADER
9
$INSUNITS
70
4
9
$ACADVER
1
AC1014
9
$HANDSEED
5
FFFF
0
ENDSEC
0
SECTION
2
TABLES
0
TABLE
2
VPORT
5
8
100
AcDbSymbolTable
0
ENDTAB
0
TABLE
2
LTYPE
5
5
100
AcDbSymbolTable
0
LTYPE
5
14
100
AcDbSymbolTableRecord
100
AcDbLinetypeTableRecord
2
BYBLOCK
70
0
0
LTYPE
5
15
100
AcDbSymbolTableRecord
100
AcDbLinetypeTableRecord
2
BYLAYER
70
0
0
LTYPE
5
16
100
AcDbSymbolTableRecord
100
AcDbLinetypeTableRecord
2
DASHED
70
0
3
Dashed __ __ __ __ __ __ __ __ __ __ __ __ __ _
72
65
73
2
40
0.75
49
0.5
74
0
49
-0.25
74
0
0
ENDTAB
0
TABLE
2
LAYER
5
2
100
AcDbSymbolTable
70
2
0
LAYER
5
50
100
AcDbSymbolTableRecord
100
AcDbLayerTableRecord
2
0
70
0
62
7
6
CONTINUOUS
0
ENDTAB
0
TABLE
2
STYLE
5
3
100
AcDbSymbolTable
70
1
0
STYLE
5
11
100
AcDbSymbolTableRecord
100
AcDbTextStyleTableRecord
2
STANDARD
70
0
0
ENDTAB
0
TABLE
2
VIEW
5
6
100
AcDbSymbolTable
70
0
0
ENDTAB
0
TABLE
2
UCS
5
7
100
AcDbSymbolTable
70
0
0
ENDTAB
0
TABLE
2
APPID
5
9
100
AcDbSymbolTable
70
2
0
APPID
5
12
100
AcDbSymbolTableRecord
100
AcDbRegAppTableRecord
2
ACAD
70
0
0
ENDTAB
0
TABLE
2
DIMSTYLE
5
A
100
AcDbSymbolTable
70
1
0
ENDTAB
0
TABLE
2
BLOCK_RECORD
5
1
100
AcDbSymbolTable
70
1
0
BLOCK_RECORD
5
1F
100
AcDbSymbolTableRecord
100
AcDbBlockTableRecord
2
*MODEL_SPACE
0
BLOCK_RECORD
5
1B
100
AcDbSymbolTableRecord
100
AcDbBlockTableRecord
2
*PAPER_SPACE
0
ENDTAB
0
ENDSEC
0
SECTION
2
BLOCKS
0
BLOCK
5
20
100
AcDbEntity
100
AcDbBlockBegin
2
*MODEL_SPACE
0
ENDBLK
5
21
100
AcDbEntity
100
AcDbBlockEnd
0
BLOCK
5
1C
100
AcDbEntity
100
AcDbBlockBegin
2
*PAPER_SPACE
0
ENDBLK
5
1D
100
AcDbEntity
100
AcDbBlockEnd
0
ENDSEC
0
SECTION
2
ENTITIES
0
CIRCLE
5
100
100
AcDbEntity
8
0
100
AcDbCircle
10
4.372193514195919
20
19.999999417071834
30
-7.1054273576010019e-14
40
3.9999999999999996
210
1.2572566974192339e-29
220
-6.5365884860558948e-47
230
1
0
LWPOLYLINE
5
101
100
AcDbEntity
8
0
100
AcDbPolyline
90
132
70
1
43
0.0
10
-22.880656779544708
20
31.980598894127684
10
-22.912656779544722
20
31.964598894127686
10
-22.923656779544714
20
31.964598894127683
10
-27.839656779544704
20
31.964598894127555
10
-27.892656779544708
20
31.993598894127558
10
-27.9236567795447
20
32.047598894127539
10
-27.92365677954497
20
42.082598894127557
10
-27.892656779544982
20
42.134598894127578
10
-27.839656779544978
20
42.164598894127579
10
-22.923656779544977
20
42.164598894127693
10
-22.912656779544989
20
42.164598894127707
10
-22.880656779544974
20
42.150598894127668
10
-22.885656779544981
20
42.126598894127689
10
-22.908656779544962
20
42.122598894127663
10
-22.923656779544981
20
42.154598894127659
10
-22.923656779544977
20
42.164598894127693
10
-22.923656779545432
20
59.582598894127663
10
-22.893656779545431
20
59.63659889412768
10
-22.839656779545436
20
59.665598894127655
10
-10.423656779545446
20
59.665598894127996
10
-10.412656779545433
20
59.665598894127989
10
-10.380656779545454
20
59.651598894128021
10
-10.384656779545445
20
59.627598894128006
10
-10.408656779545442
20
59.623598894128016
10
-10.423656779545443
20
59.655598894128012
10
-10.423656779545446
20
59.665598894127996
10
-10.423656779545574
20
64.581598894128007
10
-10.393656779545575
20
64.635598894127995
10
-10.339656779545576
20
64.664598894128034
10
-0.30565677954559406
20
64.664598894128304
10
-0.25265677954557614
20
64.635598894128265
10
-0.22365677954558455
20
64.581598894128277
10
-0.22365677954545138
20
59.665598894128244
10
-0.22365677954545554
20
59.655598894128275
10
-0.23765677954544012
20
59.623598894128278
10
-0.26065677954545846
20
59.627598894128269
10
-0.26465677954544969
20
59.651598894128284
10
-0.23265677954545302
20
59.665598894128252
10
-0.22365677954545138
20
59.665598894128244
10
9.5763432204545431
20
59.665598894128507
10
9.5863432204545376
20
59.6655988941285
10
9.6183432204545518
20
59.651598894128533
10
9.6143432204545416
20
59.627598894128518
10
9.5913432204545437
20
59.623598894128527
10
9.5763432204545431
20
59.655598894128524
10
9.5763432204545431
20
59.665598894128507
10
9.5763432204544117
20
64.581598894128533
10
9.6063432204544092
20
64.635598894128506
10
9.6593432204544083
20
64.664598894128545
10
19.694643220454395
20
64.664598894128815
10
19.747143220454401
20
64.635598894128776
10
19.776043220454408
20
64.581598894128788
10
19.77604322045454
20
59.665598894128777
10
19.77604322045454
20
59.655598894128794
10
19.76234322045454
20
59.623598894128797
10
19.738643220454534
20
59.627598894128788
10
19.73444322045453
20
59.651598894128803
10
19.766243220454534
20
59.66559889412877
10
19.77604322045454
20
59.665598894128777
10
32.193543220454529
20
59.665598894129104
10
32.247143220454518
20
59.636598894129136
10
32.276043220454525
20
59.582598894129134
10
32.276043220454987
20
42.164598894129163
10
32.27604322045498
20
42.154598894129109
10
32.262343220454987
20
42.122598894129112
10
32.239043220454981
20
42.126598894129131
10
32.234743220454988
20
42.150598894129104
10
32.266543220454992
20
42.164598894129142
10
32.276043220454987
20
42.164598894129163
10
37.194443220454986
20
42.164598894129284
10
37.246743220454974
20
42.134598894129283
10
37.275643220454981
20
42.082598894129262
10
37.275643220455244
20
32.047598894129244
10
37.246743220455237
20
31.993598894129263
10
37.194443220455256
20
31.964598894129253
10
32.27604322045525
20
31.964598894129125
10
32.266543220455254
20
31.964598894129125
10
32.23474322045525
20
31.980598894129123
10
32.239043220455244
20
32.002598894129143
10
32.26234322045525
20
32.007598894129131
10
32.27604322045525
20
31.976598894129133
10
32.27604322045525
20
31.964598894129125
10
32.276043220455712
20
14.548598894129148
10
32.247143220455705
20
14.494598894129131
10
32.193543220455709
20
14.464598894129129
10
19.776043220455719
20
14.464598894128804
10
19.766243220455717
20
14.464598894128804
10
19.734443220455713
20
14.479598894128804
10
19.738643220455714
20
14.50259889412882
10
19.762343220455723
20
14.50659889412881
10
19.776043220455719
20
14.474598894128816
10
19.776043220455719
20
14.464598894128804
10
19.776043220455847
20
9.5485988941287889
10
19.74714322045584
20
9.4945988941288064
10
19.694643220455838
20
9.4645988941288053
10
9.6593432204558578
20
9.4645988941285406
10
9.606343220455857
20
9.4945988941285417
10
9.5763432204558541
20
9.5485988941285207
10
9.5763432204557208
20
14.464598894128537
10
9.5763432204557262
20
14.474598894128549
10
9.591343220455725
20
14.506598894128546
10
9.6143432204557264
20
14.502598894128555
10
9.6183432204557349
20
14.479598894128538
10
9.5863432204557153
20
14.464598894128537
10
9.5763432204557208
20
14.464598894128537
10
-0.22365677954427893
20
14.464598894128279
10
-0.23265677954427133
20
14.464598894128279
10
-0.26465677954426814
20
14.47959889412828
10
-0.26065677954427774
20
14.502598894128298
10
-0.23765677954425982
20
14.506598894128288
10
-0.22365677954427371
20
14.474598894128292
10
-0.22365677954427893
20
14.464598894128279
10
-0.22365677954414276
20
9.5485988941282649
10
-0.25265677954412785
20
9.4945988941282824
10
-0.30565677954414561
20
9.4645988941282813
10
-10.339656779544129
20
9.4645988941280166
10
-10.393656779544134
20
9.4945988941280177
10
-10.423656779544132
20
9.5485988941279984
10
-10.423656779544263
20
14.464598894128011
10
-10.423656779544261
20
14.474598894128025
10
-10.408656779544261
20
14.506598894128022
10
-10.384656779544263
20
14.502598894128031
10
-10.380656779544273
20
14.479598894128014
10
-10.412656779544252
20
14.464598894128013
10
-10.423656779544263
20
14.464598894128011
10
-22.839656779544253
20
14.46459889412769
10
-22.893656779544251
20
14.494598894127686
10
-22.923656779544256
20
14.548598894127704
10
-22.923656779544714
20
31.964598894127683
10
-22.923656779544714
20
31.97659889412769
10
-22.908656779544696
20
32.007598894127689
10
-22.885656779544714
20
32.002598894127708
0
ENDSEC
0
SECTION
2
OBJECTS
0
DICTIONARY
5
C
100
AcDbDictionary
3
ACAD_GROUP
350
D
3
ACAD_MLINESTYLE
350
17
0
DICTIONARY
5
D
100
AcDbDictionary
0
DICTIONARY
5
1A
330
C
100
AcDbDictionary
0
DICTIONARY
5
17
100
AcDbDictionary
0
ENDSEC
0
EOF
