0
SECTION
2
HEADER
9
$INSUNITS
70
4
9
$ACADVER
1
AC1014
9
$HANDSEED
5
FFFF
0
ENDSEC
0
SECTION
2
TABLES
0
TABLE
2
VPORT
5
8
100
AcDbSymbolTable
0
ENDTAB
0
TABLE
2
LTYPE
5
5
100
AcDbSymbolTable
0
LTYPE
5
14
100
AcDbSymbolTableRecord
100
AcDbLinetypeTableRecord
2
BYBLOCK
70
0
0
LTYPE
5
15
100
AcDbSymbolTableRecord
100
AcDbLinetypeTableRecord
2
BYLAYER
70
0
0
LTYPE
5
16
100
AcDbSymbolTableRecord
100
AcDbLinetypeTableRecord
2
DASHED
70
0
3
Dashed __ __ __ __ __ __ __ __ __ __ __ __ __ _
72
65
73
2
40
0.75
49
0.5
74
0
49
-0.25
74
0
0
ENDTAB
0
TABLE
2
LAYER
5
2
100
AcDbSymbolTable
70
2
0
LAYER
5
50
100
AcDbSymbolTableRecord
100
AcDbLayerTableRecord
2
0
70
0
62
7
6
CONTINUOUS
0
ENDTAB
0
TABLE
2
STYLE
5
3
100
AcDbSymbolTable
70
1
0
STYLE
5
11
100
AcDbSymbolTableRecord
100
AcDbTextStyleTableRecord
2
STANDARD
70
0
0
ENDTAB
0
TABLE
2
VIEW
5
6
100
AcDbSymbolTable
70
0
0
ENDTAB
0
TABLE
2
UCS
5
7
100
AcDbSymbolTable
70
0
0
ENDTAB
0
TABLE
2
APPID
5
9
100
AcDbSymbolTable
70
2
0
APPID
5
12
100
AcDbSymbolTableRecord
100
AcDbRegAppTableRecord
2
ACAD
70
0
0
ENDTAB
0
TABLE
2
DIMSTYLE
5
A
100
AcDbSymbolTable
70
1
0
ENDTAB
0
TABLE
2
BLOCK_RECORD
5
1
100
AcDbSymbolTable
70
1
0
BLOCK_RECORD
5
1F
100
AcDbSymbolTableRecord
100
AcDbBlockTableRecord
2
*MODEL_SPACE
0
BLOCK_RECORD
5
1B
100
AcDbSymbolTableRecord
100
AcDbBlockTableRecord
2
*PAPER_SPACE
0
ENDTAB
0
ENDSEC
0
SECTION
2
BLOCKS
0
BLOCK
5
20
100
AcDbEntity
100
AcDbBlockBegin
2
*MODEL_SPACE
0
ENDBLK
5
21
100
AcDbEntity
100
AcDbBlockEnd
0
BLOCK
5
1C
100
AcDbEntity
100
AcDbBlockBegin
2
*PAPER_SPACE
0
ENDBLK
5
1D
100
AcDbEntity
100
AcDbBlockEnd
0
ENDSEC
0
SECTION
2
ENTITIES
0
LWPOLYLINE
5
100
100
AcDbEntity
8
0
100
AcDbPolyline
90
132
70
1
43
0.0
10
-626.43625583496384
20
32.111998894119395
10
-626.43625583496384
20
32.122998894119405
10
-626.43625583496396
20
41.922998894119409
10
-626.43625583496396
20
41.9329988941194
10
-626.42105583496402
20
41.964998894119397
10
-626.39765583496398
20
41.959998894119408
10
-626.39345583496402
20
41.936998894119391
10
-626.42515583496413
20
41.922998894119409
10
-626.43625583496396
20
41.922998894119409
10
-631.35305583496404
20
41.922998894119338
10
-631.40675583496409
20
41.95199889411932
10
-631.43575583496408
20
42.004998894119332
10
-631.43575583496431
20
59.539998894119321
10
-631.40675583496431
20
59.593998894119338
10
-631.35305583496427
20
59.622998894119313
10
-612.93695583496435
20
59.622998894119583
10
-612.92605583496436
20
59.622998894119576
10
-612.89435583496436
20
59.607998894119575
10
-612.89815583496431
20
59.58599889411957
10
-612.92185583496439
20
59.579998894119583
10
-612.93695583496435
20
59.611998894119566
10
-612.93695583496435
20
59.622998894119583
10
-612.93695583496435
20
64.539998894119577
10
-612.90665583496434
20
64.593998894119594
10
-612.85305583496438
20
64.622998894119604
10
-602.81795583496444
20
64.622998894119746
10
-602.76575583496447
20
64.59399889411975
10
-602.73675583496447
20
64.539998894119734
10
-602.73675583496436
20
59.622998894119718
10
-602.73675583496436
20
59.611998894119722
10
-602.7505558349643
20
59.57999889411974
10
-602.77385583496437
20
59.585998894119726
10
-602.77805583496433
20
59.607998894119731
10
-602.74635583496445
20
59.622998894119732
10
-602.73675583496436
20
59.622998894119718
10
-592.93625583496441
20
59.622998894119867
10
-592.92495583496441
20
59.62299889411986
10
-592.89325583496429
20
59.607998894119859
10
-592.89745583496438
20
59.585998894119854
10
-592.92105583496436
20
59.579998894119868
10
-592.93625583496441
20
59.61199889411985
10
-592.93625583496441
20
59.622998894119867
10
-592.93625583496441
20
64.539998894119861
10
-592.9059558349644
20
64.593998894119878
10
-592.85195583496454
20
64.62299889411986
10
-582.8185558349644
20
64.62299889412003
10
-582.76465583496451
20
64.593998894120034
10
-582.73565583496452
20
64.539998894120018
10
-582.7356558349644
20
59.622998894120009
10
-582.7356558349644
20
59.611998894120006
10
-582.74985583496436
20
59.579998894120024
10
-582.77305583496445
20
59.58599889412001
10
-582.7773558349644
20
59.607998894120016
10
-582.74555583496431
20
59.622998894120016
10
-582.7356558349644
20
59.622998894120009
10
-564.31825583496448
20
59.622998894120265
10
-564.26465583496451
20
59.593998894120276
10
-564.2356558349644
20
59.539998894120281
10
-564.23565583496429
20
42.004998894120291
10
-564.26465583496429
20
41.951998894120273
10
-564.31825583496425
20
41.922998894120283
10
-569.23665583496415
20
41.922998894120227
10
-569.24615583496416
20
41.922998894120212
10
-569.27795583496413
20
41.936998894120201
10
-569.2736558349643
20
41.959998894120218
10
-569.25045583496421
20
41.964998894120207
10
-569.23665583496415
20
41.93299889412021
10
-569.23665583496415
20
41.922998894120227
10
-569.23665583496404
20
32.122998894120215
10
-569.23665583496404
20
32.111998894120212
10
-569.25045583496399
20
32.07999889412023
10
-569.27365583496407
20
32.084998894120218
10
-569.27795583496413
20
32.107998894120215
10
-569.24615583496404
20
32.122998894120215
10
-569.23665583496404
20
32.122998894120215
10
-564.31825583496413
20
32.122998894120286
10
-564.26465583496406
20
32.093998894120304
10
-564.23565583496406
20
32.039998894120281
10
-564.23565583496384
20
14.505798894120286
10
-564.26465583496383
20
14.45219889412029
10
-564.31825583496379
20
14.423298894120283
10
-582.73565583496384
20
14.423298894120023
10
-582.74555583496374
20
14.42329889412002
10
-582.77735583496383
20
14.436998894120016
10
-582.77305583496377
20
14.460298894120022
10
-582.74985583496368
20
14.464598894120019
10
-582.73565583496372
20
14.432798894120015
10
-582.73565583496384
20
14.423298894120023
10
-582.73565583496384
20
9.5048988941200161
10
-582.76465583496372
20
9.452598894120035
10
-582.81855583496372
20
9.4236988941200259
10
-592.85195583496363
20
9.4236988941198838
10
-592.90595583496361
20
9.4525988941198875
10
-592.93625583496362
20
9.5048988941198704
10
-592.93625583496373
20
14.423298894119878
10
-592.93625583496373
20
14.432798894119871
10
-592.92105583496368
20
14.464598894119876
10
-592.89745583496369
20
14.460298894119878
10
-592.89325583496372
20
14.436998894119872
10
-592.92495583496373
20
14.423298894119876
10
-592.93625583496373
20
14.423298894119878
10
-602.73675583496367
20
14.423298894119739
10
-602.74635583496365
20
14.423298894119739
10
-602.77805583496377
20
14.436998894119732
10
-602.7738558349638
20
14.460298894119738
10
-602.75055583496373
20
14.464598894119735
10
-602.73675583496367
20
14.432798894119731
10
-602.73675583496367
20
14.423298894119739
10
-602.73675583496367
20
9.5048988941197337
10
-602.76575583496367
20
9.4525988941197507
10
-602.81795583496364
20
9.4236988941197417
10
-612.85305583496358
20
9.4236988941195996
10
-612.90665583496354
20
9.4525988941196051
10
-612.93695583496367
20
9.5048988941195862
10
-612.93695583496378
20
14.423298894119593
10
-612.93695583496378
20
14.432798894119587
10
-612.92185583496371
20
14.464598894119591
10
-612.89815583496375
20
14.460298894119594
10
-612.89435583496368
20
14.43699889411959
10
-612.92605583496368
20
14.423298894119593
10
-612.93695583496378
20
14.423298894119593
10
-631.3530558349637
20
14.423298894119331
10
-631.40675583496363
20
14.452198894119338
10
-631.43575583496363
20
14.505798894119334
10
-631.43575583496386
20
32.039998894119329
10
-631.40675583496386
20
32.093998894119352
10
-631.35305583496393
20
32.122998894119334
10
-626.43625583496384
20
32.122998894119405
10
-626.4251558349639
20
32.122998894119405
10
-626.3934558349639
20
32.107998894119405
10
-626.39765583496387
20
32.084998894119401
10
-626.42105583496391
20
32.079998894119413
0
ENDSEC
0
SECTION
2
OBJECTS
0
DICTIONARY
5
C
100
AcDbDictionary
3
ACAD_GROUP
350
D
3
ACAD_MLINESTYLE
350
17
0
DICTIONARY
5
D
100
AcDbDictionary
0
DICTIONARY
5
1A
330
C
100
AcDbDictionary
0
DICTIONARY
5
17
100
AcDbDictionary
0
ENDSEC
0
EOF
