0
SECTION
2
HEADER
9
$INSUNITS
70
4
9
$ACADVER
1
AC1014
9
$HANDSEED
5
FFFF
0
ENDSEC
0
SECTION
2
TABLES
0
TABLE
2
VPORT
5
8
100
AcDbSymbolTable
0
ENDTAB
0
TABLE
2
LTYPE
5
5
100
AcDbSymbolTable
0
LTYPE
5
14
100
AcDbSymbolTableRecord
100
AcDbLinetypeTableRecord
2
BYBLOCK
70
0
0
LTYPE
5
15
100
AcDbSymbolTableRecord
100
AcDbLinetypeTableRecord
2
BYLAYER
70
0
0
LTYPE
5
16
100
AcDbSymbolTableRecord
100
AcDbLinetypeTableRecord
2
DASHED
70
0
3
Dashed __ __ __ __ __ __ __ __ __ __ __ __ __ _
72
65
73
2
40
0.75
49
0.5
74
0
49
-0.25
74
0
0
ENDTAB
0
TABLE
2
LAYER
5
2
100
AcDbSymbolTable
70
2
0
LAYER
5
50
100
AcDbSymbolTableRecord
100
AcDbLayerTableRecord
2
0
70
0
62
7
6
CONTINUOUS
0
ENDTAB
0
TABLE
2
STYLE
5
3
100
AcDbSymbolTable
70
1
0
STYLE
5
11
100
AcDbSymbolTableRecord
100
AcDbTextStyleTableRecord
2
STANDARD
70
0
0
ENDTAB
0
TABLE
2
VIEW
5
6
100
AcDbSymbolTable
70
0
0
ENDTAB
0
TABLE
2
UCS
5
7
100
AcDbSymbolTable
70
0
0
ENDTAB
0
TABLE
2
APPID
5
9
100
AcDbSymbolTable
70
2
0
APPID
5
12
100
AcDbSymbolTableRecord
100
AcDbRegAppTableRecord
2
ACAD
70
0
0
ENDTAB
0
TABLE
2
DIMSTYLE
5
A
100
AcDbSymbolTable
70
1
0
ENDTAB
0
TABLE
2
BLOCK_RECORD
5
1
100
AcDbSymbolTable
70
1
0
BLOCK_RECORD
5
1F
100
AcDbSymbolTableRecord
100
AcDbBlockTableRecord
2
*MODEL_SPACE
0
BLOCK_RECORD
5
1B
100
AcDbSymbolTableRecord
100
AcDbBlockTableRecord
2
*PAPER_SPACE
0
ENDTAB
0
ENDSEC
0
SECTION
2
BLOCKS
0
BLOCK
5
20
100
AcDbEntity
100
AcDbBlockBegin
2
*MODEL_SPACE
0
ENDBLK
5
21
100
AcDbEntity
100
AcDbBlockEnd
0
BLOCK
5
1C
100
AcDbEntity
100
AcDbBlockBegin
2
*PAPER_SPACE
0
ENDBLK
5
1D
100
AcDbEntity
100
AcDbBlockEnd
0
ENDSEC
0
SECTION
2
ENTITIES
0
LWPOLYLINE
5
100
100
AcDbEntity
8
0
100
AcDbPolyline
90
172
70
1
43
0.0
10
-189.37560100555419
20
9.6790000343144005
10
-189.40660100555417
20
9.6640000343143999
10
-189.41760100555416
20
9.6640000343143999
10
-209.21560100555422
20
9.6640000343142578
10
-209.22660100555416
20
9.6640000343142578
10
-209.25760100555419
20
9.6790000343142584
10
-209.25460100555424
20
9.7010000343142604
10
-209.22960100555417
20
9.7070000343142464
10
-209.21560100555422
20
9.6750000343142499
10
-209.21560100555422
20
9.6640000343142578
10
-209.21560100555413
20
-0.25219996568575742
10
-209.24360100555407
20
-0.30579996568575418
10
-209.30060100555411
20
-0.33619996568575727
10
-229.33460100555411
20
-0.3361999656858935
10
-229.3876010055541
20
-0.30579996568588991
10
-229.41560100555409
20
-0.2521999656858942
10
-229.41560100555418
20
9.664000034314121
10
-229.41560100555418
20
9.6750000343141132
10
-229.40160100555414
20
9.7070000343141096
10
-229.37660100555416
20
9.7010000343141236
10
-229.37360100555412
20
9.6790000343141216
10
-229.40460100555424
20
9.664000034314121
10
-229.41560100555418
20
9.664000034314121
10
-249.21660100555425
20
9.6640000343139789
10
-249.22760100555419
20
9.6640000343139789
10
-249.25960100555426
20
9.6790000343139795
10
-249.25260100555417
20
9.7010000343139797
10
-249.23160100555418
20
9.7070000343139657
10
-249.21660100555425
20
9.675000034313971
10
-249.21660100555425
20
9.6640000343139789
10
-249.21660100555417
20
-0.2521999656860372
10
-249.24560100555414
20
-0.3057999656860329
10
-249.29860100555405
20
-0.33619996568603705
10
-269.33260100555407
20
-0.33619996568617205
10
-269.38860100555405
20
-0.30579996568616968
10
-269.41660100555401
20
-0.25219996568617731
10
-269.41660100555418
20
28.165000034313831
10
-269.41660100555418
20
28.176000034313823
10
-269.40260100555429
20
28.20800003431382
10
-269.37860100555434
20
28.202000034313816
10
-269.37460100555438
20
28.180000034313814
10
-269.40660100555431
20
28.165000034313831
10
-269.41660100555418
20
28.165000034313831
10
-279.33360100555421
20
28.165000034313763
10
-279.38660100555427
20
28.194000034313767
10
-279.41460100555435
20
28.247000034313761
10
-279.41460100555452
20
48.281000034313777
10
-279.38660100555444
20
48.335000034313779
10
-279.33360100555439
20
48.364000034313761
10
-269.41660100555436
20
48.364000034313825
10
-269.40660100555442
20
48.364000034313833
10
-269.3746010055545
20
48.350000034313865
10
-269.37860100555451
20
48.327000034313834
10
-269.40260100555446
20
48.323000034313843
10
-269.41660100555436
20
48.354000034313856
10
-269.41660100555436
20
48.364000034313825
10
-269.41660100555458
20
76.783000034313872
10
-269.38860100555462
20
76.83500003431385
10
-269.33260100555464
20
76.864000034313861
10
-249.29860100555462
20
76.864000034314003
10
-249.2456010055547
20
76.835000034313993
10
-249.21660100555474
20
76.783000034314014
10
-249.21660100555468
20
66.863000034313984
10
-249.21660100555468
20
66.854000034313998
10
-249.23160100555461
20
66.822000034313987
10
-249.2526010055546
20
66.826000034314021
10
-249.25960100555469
20
66.849000034314003
10
-249.22760100555462
20
66.863000034313984
10
-249.21660100555468
20
66.863000034313984
10
-229.41560100555461
20
66.863000034314112
10
-229.40460100555467
20
66.863000034314112
10
-229.37360100555455
20
66.84900003431413
10
-229.37660100555459
20
66.826000034314148
10
-229.40160100555457
20
66.822000034314129
10
-229.41560100555461
20
66.85400003431414
10
-229.41560100555461
20
66.863000034314112
10
-229.41560100555466
20
76.783000034314142
10
-229.38760100555467
20
76.835000034314135
10
-229.33460100555467
20
76.864000034314145
10
-209.30060100555468
20
76.864000034314273
10
-209.24360100555464
20
76.835000034314277
10
-209.2156010055547
20
76.783000034314298
10
-209.21560100555465
20
66.863000034314268
10
-209.21560100555465
20
66.854000034314282
10
-209.2296010055546
20
66.822000034314271
10
-209.25460100555466
20
66.826000034314305
10
-209.25760100555462
20
66.849000034314287
10
-209.22660100555458
20
66.863000034314268
10
-209.21560100555465
20
66.863000034314268
10
-189.41760100555459
20
66.863000034314396
10
-189.40660100555459
20
66.863000034314396
10
-189.37560100555461
20
66.849000034314415
10
-189.37860100555457
20
66.826000034314433
10
-189.39960100555464
20
66.822000034314414
10
-189.41760100555459
20
66.854000034314424
10
-189.41760100555459
20
66.863000034314396
10
-189.41760100555467
20
76.783000034314426
10
-189.38560100555466
20
76.835000034314419
10
-189.33260100555461
20
76.864000034314415
10
-169.29860100555462
20
76.864000034314557
10
-169.2456010055547
20
76.835000034314561
10
-169.21760100555463
20
76.783000034314583
10
-169.2176010055546
20
66.863000034314538
10
-169.21760100555457
20
66.854000034314566
10
-169.22860100555457
20
66.822000034314556
10
-169.2526010055546
20
66.826000034314575
10
-169.25660100555459
20
66.849000034314557
10
-169.22460100555466
20
66.863000034314538
10
-169.2176010055546
20
66.863000034314538
10
-149.41660100555458
20
66.86300003431468
10
-149.40560100555467
20
66.86300003431468
10
-149.37360100555458
20
66.849000034314685
10
-149.38060100555469
20
66.826000034314717
10
-149.4016010055546
20
66.822000034314684
10
-149.41660100555458
20
66.854000034314694
10
-149.41660100555458
20
66.86300003431468
10
-149.41660100555467
20
76.783000034314711
10
-149.3876010055547
20
76.835000034314689
10
-149.3346010055547
20
76.864000034314699
10
-129.2976010055547
20
76.864000034314827
10
-129.24760100555466
20
76.835000034314831
10
-129.21660100555471
20
76.783000034314853
10
-129.21660100555448
20
48.364000034314813
10
-129.21660100555448
20
48.354000034314836
10
-129.23060100555446
20
48.323000034314816
10
-129.25460100555455
20
48.327000034314807
10
-129.25860100555445
20
48.350000034314846
10
-129.22660100555447
20
48.364000034314813
10
-129.21660100555448
20
48.364000034314813
10
-119.29960100555448
20
48.364000034314884
10
-119.2466010055545
20
48.335000034314895
10
-119.21860100555449
20
48.281000034314886
10
-119.21860100555435
20
28.247000034314873
10
-119.24660100555435
20
28.19400003431489
10
-119.29960100555434
20
28.165000034314886
10
-129.21660100555437
20
28.165000034314815
10
-129.22660100555433
20
28.165000034314815
10
-129.25860100555434
20
28.180000034314794
10
-129.25460100555441
20
28.2020000343148
10
-129.23060100555432
20
28.2080000343148
10
-129.21660100555437
20
28.176000034314804
10
-129.21660100555437
20
28.165000034314815
10
-129.21660100555414
20
-0.25219996568519898
10
-129.24760100555409
20
-0.30579996568519469
10
-129.29760100555413
20
-0.33619996568519883
10
-149.33460100555413
20
-0.33619996568533506
10
-149.38760100555413
20
-0.30579996568533147
10
-149.4166010055541
20
-0.25219996568533576
10
-149.41660100555413
20
9.6640000343146788
10
-149.41660100555418
20
9.6750000343146709
10
-149.40160100555417
20
9.7070000343146674
10
-149.38060100555424
20
9.7010000343146814
10
-149.37360100555418
20
9.6790000343146794
10
-149.40560100555422
20
9.6640000343146788
10
-149.41660100555413
20
9.6640000343146788
10
-169.21760100555414
20
9.6640000343145367
10
-169.22460100555423
20
9.6640000343145367
10
-169.25660100555416
20
9.6790000343145373
10
-169.25260100555417
20
9.7010000343145393
10
-169.22860100555414
20
9.7070000343145253
10
-169.21760100555414
20
9.6750000343145288
10
-169.21760100555414
20
9.6640000343145367
10
-169.21760100555406
20
-0.25219996568547876
10
-169.24560100555414
20
-0.30579996568547446
10
-169.29860100555405
20
-0.33619996568547861
10
-189.33260100555404
20
-0.33619996568561372
10
-189.38560100555409
20
-0.30579996568561119
10
-189.4176010055541
20
-0.25219996568561442
10
-189.41760100555416
20
9.6640000343143999
10
-189.41760100555416
20
9.675000034314392
10
-189.39960100555422
20
9.7070000343143885
10
-189.37860100555415
20
9.7010000343144025
0
ENDSEC
0
SECTION
2
OBJECTS
0
DICTIONARY
5
C
100
AcDbDictionary
3
ACAD_GROUP
350
D
3
ACAD_MLINESTYLE
350
17
0
DICTIONARY
5
D
100
AcDbDictionary
0
DICTIONARY
5
1A
330
C
100
AcDbDictionary
0
DICTIONARY
5
17
100
AcDbDictionary
0
ENDSEC
0
EOF
