0
SECTION
2
HEADER
9
$INSUNITS
70
4
9
$ACADVER
1
AC1014
9
$HANDSEED
5
FFFF
0
ENDSEC
0
SECTION
2
TABLES
0
TABLE
2
VPORT
5
8
100
AcDbSymbolTable
0
ENDTAB
0
TABLE
2
LTYPE
5
5
100
AcDbSymbolTable
0
LTYPE
5
14
100
AcDbSymbolTableRecord
100
AcDbLinetypeTableRecord
2
BYBLOCK
70
0
0
LTYPE
5
15
100
AcDbSymbolTableRecord
100
AcDbLinetypeTableRecord
2
BYLAYER
70
0
0
LTYPE
5
16
100
AcDbSymbolTableRecord
100
AcDbLinetypeTableRecord
2
DASHED
70
0
3
Dashed __ __ __ __ __ __ __ __ __ __ __ __ __ _
72
65
73
2
40
0.75
49
0.5
74
0
49
-0.25
74
0
0
ENDTAB
0
TABLE
2
LAYER
5
2
100
AcDbSymbolTable
70
2
0
LAYER
5
50
100
AcDbSymbolTableRecord
100
AcDbLayerTableRecord
2
0
70
0
62
7
6
CONTINUOUS
0
ENDTAB
0
TABLE
2
STYLE
5
3
100
AcDbSymbolTable
70
1
0
STYLE
5
11
100
AcDbSymbolTableRecord
100
AcDbTextStyleTableRecord
2
STANDARD
70
0
0
ENDTAB
0
TABLE
2
VIEW
5
6
100
AcDbSymbolTable
70
0
0
ENDTAB
0
TABLE
2
UCS
5
7
100
AcDbSymbolTable
70
0
0
ENDTAB
0
TABLE
2
APPID
5
9
100
AcDbSymbolTable
70
2
0
APPID
5
12
100
AcDbSymbolTableRecord
100
AcDbRegAppTableRecord
2
ACAD
70
0
0
ENDTAB
0
TABLE
2
DIMSTYLE
5
A
100
AcDbSymbolTable
70
1
0
ENDTAB
0
TABLE
2
BLOCK_RECORD
5
1
100
AcDbSymbolTable
70
1
0
BLOCK_RECORD
5
1F
100
AcDbSymbolTableRecord
100
AcDbBlockTableRecord
2
*MODEL_SPACE
0
BLOCK_RECORD
5
1B
100
AcDbSymbolTableRecord
100
AcDbBlockTableRecord
2
*PAPER_SPACE
0
ENDTAB
0
ENDSEC
0
SECTION
2
BLOCKS
0
BLOCK
5
20
100
AcDbEntity
100
AcDbBlockBegin
2
*MODEL_SPACE
0
ENDBLK
5
21
100
AcDbEntity
100
AcDbBlockEnd
0
BLOCK
5
1C
100
AcDbEntity
100
AcDbBlockBegin
2
*PAPER_SPACE
0
ENDBLK
5
1D
100
AcDbEntity
100
AcDbBlockEnd
0
ENDSEC
0
SECTION
2
ENTITIES
0
LWPOLYLINE
5
100
100
AcDbEntity
8
0
100
AcDbPolyline
90
172
70
1
43
0.0
10
23.084756779492032
20
583.05425583496572
10
23.095756779492042
20
583.05425583496572
10
28.012756779492033
20
583.05425583496617
10
28.066356779492029
20
583.02525583496617
10
28.095256779492036
20
582.97135583496618
10
28.095256779493688
20
564.43675583496622
10
28.066356779493681
20
564.38315583496626
10
28.012756779493699
20
564.35415583496615
10
10.478656779493713
20
564.35415583496467
10
10.424656779493709
20
564.38315583496467
10
10.395756779493698
20
564.43675583496463
10
10.395756779493261
20
569.35515583496465
10
10.395756779493261
20
569.36465583496454
10
10.409456779493265
20
569.39645583496463
10
10.433156779493267
20
569.39215583496457
10
10.436956779493267
20
569.36895583496459
10
10.405556779493265
20
569.35515583496465
10
10.395756779493261
20
569.35515583496465
10
0.59655677949326946
20
569.35515583496363
10
0.58565677949327544
20
569.35515583496374
10
0.55395677949327526
20
569.36895583496369
10
0.55775677949327263
20
569.39215583496377
10
0.58145677949326524
20
569.39645583496383
10
0.59655677949327424
20
569.36465583496374
10
0.59655677949326946
20
569.35515583496363
10
0.59655677949371066
20
564.43675583496383
10
0.56625677949371411
20
564.38315583496376
10
0.5126567794937209
20
564.35415583496376
10
-9.5224432205062719
20
564.35415583496285
10
-9.5746432205062746
20
564.38315583496296
10
-9.6036432205062834
20
564.43675583496292
10
-9.6036432205067221
20
569.35515583496283
10
-9.6036432205067221
20
569.36465583496283
10
-9.5898432205067188
20
569.39645583496281
10
-9.5665432205067233
20
569.39215583496298
10
-9.5623432205067243
20
569.36895583496278
10
-9.5940432205067196
20
569.35515583496283
10
-9.6036432205067221
20
569.35515583496283
10
-19.404343220506711
20
569.35515583496203
10
-19.41534322050671
20
569.35515583496203
10
-19.447043220506714
20
569.36895583496198
10
-19.442843220506713
20
569.39215583496195
10
-19.419443220506714
20
569.39645583496201
10
-19.404343220506714
20
569.36465583496192
10
-19.404343220506711
20
569.35515583496203
10
-19.404343220506274
20
564.43675583496201
10
-19.43464322050627
20
564.38315583496194
10
-19.488343220506266
20
564.35415583496194
10
-37.02254322050625
20
564.35415583496047
10
-37.074843220506246
20
564.38315583496046
10
-37.103843220506263
20
564.43675583496042
10
-37.103843220507905
20
582.97135583496038
10
-37.074843220507908
20
583.02525583496038
10
-37.022543220507913
20
583.05425583496037
10
-32.104343220507914
20
583.05425583496083
10
-32.094643220507919
20
583.05425583496083
10
-32.062943220507918
20
583.03905583496078
10
-32.067043220507912
20
583.01685583496078
10
-32.090543220507911
20
583.01155583496075
10
-32.104343220507914
20
583.04325583496075
10
-32.104343220507914
20
583.05425583496083
10
-32.104343220508788
20
592.85475583496077
10
-32.104343220508788
20
592.86425583496077
10
-32.090543220508792
20
592.89605583496075
10
-32.067043220508793
20
592.89215583496082
10
-32.062943220508792
20
592.86845583496074
10
-32.094643220508786
20
592.85475583496077
10
-32.104343220508788
20
592.85475583496077
10
-37.02254322050878
20
592.85475583496032
10
-37.074843220508782
20
592.88365583496034
10
-37.103843220508793
20
592.93625583496032
10
-37.103843220509681
20
602.97095583496025
10
-37.074843220509685
20
603.02465583496019
10
-37.022543220509689
20
603.05495583496031
10
-32.104343220509691
20
603.05495583496065
10
-32.094643220509695
20
603.05495583496065
10
-32.062943220509695
20
603.03975583496072
10
-32.067043220509689
20
603.01645583496065
10
-32.090543220509687
20
603.01225583496068
10
-32.104343220509691
20
603.04405583496077
10
-32.104343220509691
20
603.05495583496065
10
-32.104343220510565
20
612.85445583496073
10
-32.104343220510565
20
612.86395583496062
10
-32.090543220510568
20
612.89565583496073
10
-32.06704322051057
20
612.89145583496077
10
-32.062943220510569
20
612.86815583496082
10
-32.094643220510562
20
612.85445583496073
10
-32.104343220510565
20
612.85445583496073
10
-37.022543220510556
20
612.85445583496028
10
-37.074843220510559
20
612.88335583496041
10
-37.103843220510569
20
612.93695583496026
10
-37.103843220512218
20
631.47155583496021
10
-37.074843220512214
20
631.52525583496026
10
-37.022543220512219
20
631.55425583496014
10
-19.488343220512238
20
631.55425583496185
10
-19.434643220512235
20
631.52525583496185
10
-19.404343220512231
20
631.47155583496192
10
-19.404343220511791
20
626.55475583496184
10
-19.404343220511791
20
626.5436558349619
10
-19.419443220511788
20
626.51195583496178
10
-19.442843220511786
20
626.51615583496186
10
-19.447043220511794
20
626.5395558349619
10
-19.41534322051179
20
626.55475583496184
10
-19.404343220511791
20
626.55475583496184
10
-9.6036432205118043
20
626.55475583496263
10
-9.5940432205118
20
626.55475583496263
10
-9.5623432205118011
20
626.5395558349627
10
-9.5665432205117966
20
626.51615583496266
10
-9.5898432205117956
20
626.51195583496269
10
-9.6036432205118007
20
626.54365583496269
10
-9.6036432205118043
20
626.55475583496263
10
-9.6036432205122413
20
631.47155583496271
10
-9.5746432205122396
20
631.52525583496276
10
-9.5224432205122422
20
631.55425583496265
10
0.5126567794877499
20
631.55425583496356
10
0.56625677948775244
20
631.52525583496356
10
0.5965567794877541
20
631.47155583496362
10
0.59655677948819097
20
626.55475583496366
10
0.59655677948819197
20
626.5436558349636
10
0.58145677948818819
20
626.5119558349636
10
0.55775677948819402
20
626.51615583496357
10
0.553956779488194
20
626.53955583496361
10
0.58565677948819372
20
626.55475583496366
10
0.59655677948819097
20
626.55475583496366
10
10.395756779488183
20
626.55475583496445
10
10.405556779488183
20
626.55475583496445
10
10.436956779488186
20
626.53955583496452
10
10.433156779488188
20
626.51615583496448
10
10.409456779488186
20
626.51195583496451
10
10.395756779488179
20
626.54365583496451
10
10.395756779488183
20
626.55475583496445
10
10.395756779487741
20
631.47155583496453
10
10.424656779487746
20
631.52525583496447
10
10.478656779487741
20
631.55425583496447
10
28.012756779487727
20
631.55425583496606
10
28.066356779487723
20
631.52525583496606
10
28.09525677948773
20
631.47155583496601
10
28.095256779489382
20
612.93695583496606
10
28.066356779489375
20
612.8833558349661
10
28.012756779489397
20
612.85445583496607
10
23.095756779489392
20
612.85445583496562
10
23.084756779489382
20
612.85445583496562
10
23.053056779489403
20
612.86815583496559
10
23.058656779489386
20
612.89145583496565
10
23.080556779489392
20
612.89565583496574
10
23.095756779489388
20
612.86395583496562
10
23.095756779489392
20
612.85445583496562
10
23.095756779490259
20
603.05495583496565
10
23.095756779490266
20
603.04405583496566
10
23.080556779490266
20
603.01225583496569
10
23.058656779490256
20
603.01645583496554
10
23.053056779490273
20
603.03975583496572
10
23.084756779490256
20
603.05495583496565
10
23.095756779490259
20
603.05495583496565
10
28.012756779490257
20
603.05495583496599
10
28.066356779490253
20
603.0246558349661
10
28.09525677949026
20
602.97095583496616
10
28.095256779491159
20
592.93625583496612
10
28.066356779491151
20
592.88365583496613
10
28.012756779491173
20
592.85475583496611
10
23.095756779491168
20
592.85475583496566
10
23.084756779491158
20
592.85475583496566
10
23.053056779491179
20
592.86845583496563
10
23.058656779491162
20
592.89215583496571
10
23.080556779491168
20
592.89605583496575
10
23.095756779491175
20
592.86425583496566
10
23.095756779491168
20
592.85475583496566
10
23.095756779492042
20
583.05425583496572
10
23.095756779492042
20
583.04325583496575
10
23.080556779492042
20
583.01155583496563
10
23.058656779492033
20
583.01685583496567
10
23.053056779492049
20
583.03905583496567
0
ENDSEC
0
SECTION
2
OBJECTS
0
DICTIONARY
5
C
100
AcDbDictionary
3
ACAD_GROUP
350
D
3
ACAD_MLINESTYLE
350
17
0
DICTIONARY
5
D
100
AcDbDictionary
0
DICTIONARY
5
1A
330
C
100
AcDbDictionary
0
DICTIONARY
5
17
100
AcDbDictionary
0
ENDSEC
0
EOF
