0
SECTION
2
HEADER
9
$INSUNITS
70
4
9
$ACADVER
1
AC1014
9
$HANDSEED
5
FFFF
0
ENDSEC
0
SECTION
2
TABLES
0
TABLE
2
VPORT
5
8
100
AcDbSymbolTable
0
ENDTAB
0
TABLE
2
LTYPE
5
5
100
AcDbSymbolTable
0
LTYPE
5
14
100
AcDbSymbolTableRecord
100
AcDbLinetypeTableRecord
2
BYBLOCK
70
0
0
LTYPE
5
15
100
AcDbSymbolTableRecord
100
AcDbLinetypeTableRecord
2
BYLAYER
70
0
0
LTYPE
5
16
100
AcDbSymbolTableRecord
100
AcDbLinetypeTableRecord
2
DASHED
70
0
3
Dashed __ __ __ __ __ __ __ __ __ __ __ __ __ _
72
65
73
2
40
0.75
49
0.5
74
0
49
-0.25
74
0
0
ENDTAB
0
TABLE
2
LAYER
5
2
100
AcDbSymbolTable
70
2
0
LAYER
5
50
100
AcDbSymbolTableRecord
100
AcDbLayerTableRecord
2
0
70
0
62
7
6
CONTINUOUS
0
ENDTAB
0
TABLE
2
STYLE
5
3
100
AcDbSymbolTable
70
1
0
STYLE
5
11
100
AcDbSymbolTableRecord
100
AcDbTextStyleTableRecord
2
STANDARD
70
0
0
ENDTAB
0
TABLE
2
VIEW
5
6
100
AcDbSymbolTable
70
0
0
ENDTAB
0
TABLE
2
UCS
5
7
100
AcDbSymbolTable
70
0
0
ENDTAB
0
TABLE
2
APPID
5
9
100
AcDbSymbolTable
70
2
0
APPID
5
12
100
AcDbSymbolTableRecord
100
AcDbRegAppTableRecord
2
ACAD
70
0
0
ENDTAB
0
TABLE
2
DIMSTYLE
5
A
100
AcDbSymbolTable
70
1
0
ENDTAB
0
TABLE
2
BLOCK_RECORD
5
1
100
AcDbSymbolTable
70
1
0
BLOCK_RECORD
5
1F
100
AcDbSymbolTableRecord
100
AcDbBlockTableRecord
2
*MODEL_SPACE
0
BLOCK_RECORD
5
1B
100
AcDbSymbolTableRecord
100
AcDbBlockTableRecord
2
*PAPER_SPACE
0
ENDTAB
0
ENDSEC
0
SECTION
2
BLOCKS
0
BLOCK
5
20
100
AcDbEntity
100
AcDbBlockBegin
2
*MODEL_SPACE
0
ENDBLK
5
21
100
AcDbEntity
100
AcDbBlockEnd
0
BLOCK
5
1C
100
AcDbEntity
100
AcDbBlockBegin
2
*PAPER_SPACE
0
ENDBLK
5
1D
100
AcDbEntity
100
AcDbBlockEnd
0
ENDSEC
0
SECTION
2
ENTITIES
0
CIRCLE
5
100
100
AcDbEntity
8
0
100
AcDbCircle
10
119.52744645028112
20
200.00160473084432
30
0
40
4.874999999999992
210
-5.1548942616171691e-57
220
1.577721810442024e-30
230
1
0
CIRCLE
5
101
100
AcDbEntity
8
0
100
AcDbCircle
10
-0.47255354971916574
20
200.00160473084432
30
0
40
4.8750000000000169
210
-0
220
0
230
1
0
CIRCLE
5
102
100
AcDbEntity
8
0
100
AcDbCircle
10
-120.47255354971931
20
200.00160473084432
30
0
40
4.875000000000008
210
3.1554436208840472e-30
220
-1.1394674610032088e-56
230
1
0
LWPOLYLINE
5
103
100
AcDbEntity
8
0
100
AcDbPolyline
90
492
70
1
43
0.0
10
149.53744630126943
20
269.80160100555406
10
149.5684463012696
20
269.787601005554
10
149.5654463012695
20
269.76460100555403
10
149.54044630126953
20
269.75960100555398
10
149.52644630126963
20
269.79160100555407
10
149.52644630126963
20
269.80160100555406
10
149.52644630126963
20
279.71960100555401
10
149.55444630126942
20
279.77260100555395
10
149.61144630126969
20
279.80160100555406
10
169.64544630126971
20
279.80160100555406
10
169.69844630126966
20
279.77260100555395
10
169.72644630126956
20
279.71960100555401
10
169.72644630126953
20
269.80160100555406
10
169.72644630126956
20
269.79160100555401
10
169.71244630126967
20
269.75960100555398
10
169.69144630126954
20
269.76460100555403
10
169.68444630126959
20
269.787601005554
10
169.71644630126968
20
269.80160100555406
10
169.72644630126953
20
269.80160100555406
10
189.64444630126968
20
269.80160100555406
10
189.69744630126974
20
269.77260100555395
10
189.72944630126966
20
269.71860100555398
10
189.72944630126966
20
249.80160100555406
10
189.72944630126966
20
249.79260100555405
10
189.71144630126963
20
249.76060100555404
10
189.69044630126967
20
249.764601005554
10
189.68344630126973
20
249.78860100555403
10
189.71544630126976
20
249.80160100555406
10
189.72944630126966
20
249.80160100555406
10
199.64544630126971
20
249.80160100555401
10
199.69844630126966
20
249.77260100555398
10
199.72644630126973
20
249.71960100555404
10
199.72644630126973
20
229.68560100555405
10
199.69844630126966
20
229.63160100555405
10
199.64544630126971
20
229.6016010055541
10
189.72944630126966
20
229.60160100555407
10
189.71544630126976
20
229.6016010055541
10
189.68344630126973
20
229.61660100555406
10
189.69044630126967
20
229.639601005554
10
189.71144630126963
20
229.64460100555399
10
189.72944630126966
20
229.61260100555407
10
189.72944630126966
20
229.60160100555407
10
189.72944630126966
20
209.80160100555406
10
189.72944630126966
20
209.79160100555404
10
189.71144630126963
20
209.76060100555407
10
189.69044630126967
20
209.764601005554
10
189.68344630126973
20
209.78760100555405
10
189.71544630126976
20
209.80160100555406
10
189.72944630126966
20
209.80160100555406
10
199.64544630126971
20
209.80160100555409
10
199.69844630126966
20
209.77260100555398
10
199.72644630126973
20
209.71860100555401
10
199.72644630126973
20
189.68560100555405
10
199.69844630126966
20
189.63160100555402
10
199.64544630126971
20
189.60160100555402
10
189.72944630126966
20
189.60160100555402
10
189.71544630126976
20
189.60160100555402
10
189.68344630126973
20
189.61660100555403
10
189.69044630126967
20
189.63960100555403
10
189.71144630126963
20
189.64360100555407
10
189.72944630126966
20
189.61260100555407
10
189.72944630126966
20
189.60160100555402
10
189.72944630126966
20
169.80160100555406
10
189.72944630126966
20
169.79160100555401
10
189.71144630126963
20
169.76060100555404
10
189.69044630126967
20
169.76460100555403
10
189.68344630126973
20
169.78760100555402
10
189.71544630126976
20
169.80160100555406
10
189.72944630126966
20
169.80160100555406
10
199.64544630126971
20
169.80160100555406
10
199.69844630126966
20
169.77260100555401
10
199.72644630126973
20
169.7196010055541
10
199.72644630126973
20
149.68460100555407
10
199.69844630126966
20
149.6316010055541
10
199.64544630126971
20
149.60260100555411
10
189.72944630126966
20
149.60260100555411
10
189.71544630126976
20
149.60260100555411
10
189.68344630126973
20
149.61760100555409
10
189.69044630126967
20
149.63960100555411
10
189.71144630126963
20
149.64460100555411
10
189.72944630126966
20
149.6136010055541
10
189.72944630126966
20
149.60260100555411
10
189.72944630126966
20
129.6856010055541
10
189.69744630126974
20
129.6316010055541
10
189.64444630126974
20
129.6016010055541
10
169.72644630126956
20
129.6016010055541
10
169.71644630126968
20
129.6016010055541
10
169.68444630126959
20
129.61660100555409
10
169.69144630126954
20
129.63960100555411
10
169.71244630126967
20
129.64460100555411
10
169.72644630126956
20
129.61260100555407
10
169.72644630126956
20
129.6016010055541
10
169.72644630126956
20
119.68460100555407
10
169.69844630126966
20
119.6316010055541
10
169.64544630126963
20
119.60260100555409
10
149.61144630126961
20
119.60260100555409
10
149.55444630126942
20
119.6316010055541
10
149.52644630126963
20
119.68460100555407
10
149.52644630126966
20
129.6016010055541
10
149.52644630126963
20
129.61260100555407
10
149.54044630126953
20
129.64460100555411
10
149.5654463012695
20
129.63960100555411
10
149.5684463012696
20
129.61660100555409
10
149.53744630126943
20
129.6016010055541
10
149.52644630126966
20
129.6016010055541
10
129.72844630126951
20
129.6016010055541
10
129.71644630126951
20
129.6016010055541
10
129.68544630126951
20
129.61660100555409
10
129.68944630126947
20
129.63960100555411
10
129.71244630126955
20
129.64460100555411
10
129.72844630126951
20
129.61260100555407
10
129.72844630126951
20
129.6016010055541
10
129.72844630126951
20
119.68460100555407
10
129.69744630126962
20
119.6316010055541
10
129.64344630126956
20
119.60260100555409
10
109.60944630126953
20
119.60260100555409
10
109.55644630126947
20
119.6316010055541
10
109.52744630126951
20
119.68460100555407
10
109.52744630126955
20
129.6016010055541
10
109.52744630126951
20
129.61260100555407
10
109.54144630126954
20
129.64460100555411
10
109.56444630126946
20
129.63960100555411
10
109.56844630126959
20
129.61660100555409
10
109.53644630126952
20
129.6016010055541
10
109.52744630126955
20
129.6016010055541
10
89.727446301269467
20
129.6016010055541
10
89.716446301269528
20
129.6016010055541
10
89.68444630126946
20
129.61660100555409
10
89.689446301269626
20
129.63960100555411
10
89.712446301269537
20
129.64460100555411
10
89.727446301269467
20
129.61260100555407
10
89.727446301269467
20
129.6016010055541
10
89.727446301269467
20
119.68460100555407
10
89.697446301269608
20
119.6316010055541
10
89.643446301269421
20
119.60260100555409
10
69.609446301269386
20
119.60260100555409
10
69.555446301269441
20
119.6316010055541
10
69.526446301269473
20
119.68460100555407
10
69.526446301269516
20
129.6016010055541
10
69.526446301269473
20
129.61260100555407
10
69.54044630126937
20
129.64460100555411
10
69.564446301269456
20
129.63960100555411
10
69.568446301269447
20
129.61660100555409
10
69.536446301269379
20
129.6016010055541
10
69.526446301269516
20
129.6016010055541
10
49.727446301269325
20
129.6016010055541
10
49.716446301269386
20
129.6016010055541
10
49.684446301269318
20
129.61660100555409
10
49.690446301269375
20
129.63960100555411
10
49.712446301269395
20
129.64460100555411
10
49.727446301269325
20
129.61260100555407
10
49.727446301269325
20
129.6016010055541
10
49.727446301269325
20
119.68460100555407
10
49.698446301269357
20
119.6316010055541
10
49.644446301269447
20
119.60260100555409
10
29.609446301269386
20
119.60260100555409
10
29.556446301269332
20
119.6316010055541
10
29.527446301269364
20
119.68460100555407
10
29.527446301269325
20
129.6016010055541
10
29.527446301269364
20
129.61260100555407
10
29.541446301269403
20
129.64460100555411
10
29.565446301269347
20
129.63960100555411
10
29.569446301269338
20
129.61660100555409
10
29.537446301269412
20
129.6016010055541
10
29.527446301269325
20
129.6016010055541
10
9.7274463012692536
20
129.6016010055541
10
9.7154463012692815
20
129.6016010055541
10
9.6844463012693183
20
129.61660100555409
10
9.6894463012692711
20
129.63960100555411
10
9.7114463012692909
20
129.64460100555411
10
9.7274463012692536
20
129.61260100555407
10
9.7274463012692536
20
129.6016010055541
10
9.7274463012692536
20
119.68460100555407
10
9.6974463012692524
20
119.6316010055541
10
9.6444463012693014
20
119.60260100555409
10
-10.389553698730722
20
119.60260100555409
10
-10.443553698730739
20
119.6316010055541
10
-10.472553698730778
20
119.68460100555407
10
-10.472553698730746
20
129.6016010055541
10
-10.472553698730778
20
129.61260100555407
10
-10.458553698730739
20
129.64460100555411
10
-10.435553698730757
20
129.63960100555411
10
-10.430553698730805
20
129.61660100555409
10
-10.46255369873073
20
129.6016010055541
10
-10.472553698730746
20
129.6016010055541
10
-30.271553698730784
20
129.6016010055541
10
-30.283553698730756
20
129.6016010055541
10
-30.314553698730791
20
129.61660100555409
10
-30.3105536987308
20
129.63960100555411
10
-30.287553698730747
20
129.64460100555411
10
-30.271553698730784
20
129.61260100555407
10
-30.271553698730784
20
129.6016010055541
10
-30.271553698730784
20
119.68460100555407
10
-30.302553698730819
20
119.6316010055541
10
-30.356553698730803
20
119.60260100555409
10
-50.390553698730827
20
119.60260100555409
10
-50.443553698730881
20
119.6316010055541
10
-50.472553698730849
20
119.68460100555407
10
-50.472553698730813
20
129.6016010055541
10
-50.472553698730849
20
129.61260100555407
10
-50.45855369873081
20
129.64460100555411
10
-50.435553698730828
20
129.63960100555411
10
-50.431553698730838
20
129.61660100555409
10
-50.463553698730834
20
129.6016010055541
10
-50.472553698730813
20
129.6016010055541
10
-70.272553698730889
20
129.6016010055541
10
-70.283553698730827
20
129.6016010055541
10
-70.314553698730862
20
129.61660100555409
10
-70.310553698730871
20
129.63960100555411
10
-70.287553698730818
20
129.64460100555411
10
-70.272553698730889
20
129.61260100555407
10
-70.272553698730889
20
129.6016010055541
10
-70.272553698730889
20
119.68460100555407
10
-70.30255369873089
20
119.6316010055541
10
-70.356553698730863
20
119.60260100555409
10
-90.390553698730898
20
119.60260100555409
10
-90.444553698730914
20
119.6316010055541
10
-90.473553698730953
20
119.68460100555407
10
-90.47355369873091
20
129.6016010055541
10
-90.473553698730953
20
129.61260100555407
10
-90.459553698730915
20
129.64460100555411
10
-90.435553698730899
20
129.63960100555411
10
-90.431553698730909
20
129.61660100555409
10
-90.463553698730905
20
129.6016010055541
10
-90.47355369873091
20
129.6016010055541
10
-110.27255369873089
20
129.6016010055541
10
-110.2835536987309
20
129.6016010055541
10
-110.31555369873089
20
129.61660100555409
10
-110.3115536987309
20
129.63960100555411
10
-110.28755369873089
20
129.64460100555411
10
-110.27255369873089
20
129.61260100555407
10
-110.27255369873089
20
129.6016010055541
10
-110.27255369873089
20
119.68460100555407
10
-110.30355369873092
20
119.6316010055541
10
-110.35655369873086
20
119.60260100555409
10
-130.39055369873091
20
119.60260100555409
10
-130.4431536987309
20
119.6316010055541
10
-130.47205369873092
20
119.68460100555407
10
-130.47205369873095
20
129.6016010055541
10
-130.47205369873092
20
129.61260100555407
10
-130.4579536987309
20
129.64460100555411
10
-130.4346536987309
20
129.63960100555411
10
-130.4304536987309
20
129.61660100555409
10
-130.4621536987309
20
129.6016010055541
10
-130.47205369873095
20
129.6016010055541
10
-150.27275369873095
20
129.6016010055541
10
-150.28405369873099
20
129.6016010055541
10
-150.31585369873099
20
129.61660100555409
10
-150.31015369873103
20
129.63960100555411
10
-150.28795369873095
20
129.64460100555411
10
-150.27275369873095
20
129.61260100555407
10
-150.27275369873095
20
129.6016010055541
10
-150.27275369873095
20
119.68460100555407
10
-150.30175369873098
20
119.6316010055541
10
-150.35565369873095
20
119.60260100555409
10
-170.39095369873095
20
119.60260100555409
10
-170.44325369873098
20
119.6316010055541
10
-170.47215369873101
20
119.68460100555407
10
-170.47215369873103
20
129.6016010055541
10
-170.47215369873101
20
129.61260100555407
10
-170.45835369873095
20
129.64460100555411
10
-170.43505369873094
20
129.63960100555411
10
-170.43085369873097
20
129.61660100555409
10
-170.46265369873097
20
129.6016010055541
10
-170.47215369873103
20
129.6016010055541
10
-190.39035369873105
20
129.6016010055541
10
-190.44415369873107
20
129.6316010055541
10
-190.47305369873106
20
129.6856010055541
10
-190.47305369873106
20
149.60260100555411
10
-190.47305369873106
20
149.6136010055541
10
-190.45925369873103
20
149.64460100555411
10
-190.43585369873108
20
149.63960100555411
10
-190.43175369873103
20
149.61760100555409
10
-190.46345369873109
20
149.60260100555411
10
-190.47305369873106
20
149.60260100555411
10
-200.39085369873106
20
149.60260100555411
10
-200.44315369873104
20
149.6316010055541
10
-200.47215369873106
20
149.68460100555401
10
-200.47215369873106
20
169.71960100555404
10
-200.44315369873104
20
169.77260100555401
10
-200.39085369873106
20
169.80160100555406
10
-190.47305369873106
20
169.80160100555406
10
-190.46345369873109
20
169.80160100555406
10
-190.43175369873103
20
169.78760100555402
10
-190.43585369873108
20
169.76460100555403
10
-190.45925369873103
20
169.76060100555404
10
-190.47305369873106
20
169.79160100555401
10
-190.47305369873106
20
169.80160100555406
10
-190.47305369873106
20
189.60160100555402
10
-190.47305369873106
20
189.61260100555404
10
-190.45925369873103
20
189.64360100555405
10
-190.43585369873108
20
189.63960100555408
10
-190.43175369873103
20
189.61660100555406
10
-190.46345369873109
20
189.60160100555402
10
-190.47305369873106
20
189.60160100555402
10
-200.39085369873106
20
189.60160100555402
10
-200.44315369873104
20
189.63160100555402
10
-200.47215369873106
20
189.68560100555405
10
-200.47215369873106
20
209.71860100555404
10
-200.44315369873104
20
209.77260100555398
10
-200.39085369873106
20
209.80160100555406
10
-190.47305369873106
20
209.80160100555409
10
-190.46345369873109
20
209.80160100555406
10
-190.43175369873103
20
209.78760100555402
10
-190.43585369873108
20
209.764601005554
10
-190.45925369873103
20
209.76060100555407
10
-190.47305369873106
20
209.79160100555404
10
-190.47305369873106
20
209.80160100555409
10
-190.47305369873106
20
229.6016010055541
10
-190.47305369873106
20
229.61260100555407
10
-190.45925369873103
20
229.64460100555399
10
-190.43585369873108
20
229.63960100555403
10
-190.43175369873103
20
229.61660100555403
10
-190.46345369873109
20
229.60160100555407
10
-190.47305369873106
20
229.6016010055541
10
-200.39085369873106
20
229.60160100555407
10
-200.44315369873104
20
229.63160100555402
10
-200.47215369873106
20
229.68560100555405
10
-200.47215369873106
20
249.71960100555401
10
-200.44315369873104
20
249.77260100555398
10
-200.39085369873106
20
249.80160100555406
10
-190.47305369873106
20
249.80160100555406
10
-190.46345369873109
20
249.80160100555406
10
-190.43175369873103
20
249.78860100555406
10
-190.43585369873108
20
249.764601005554
10
-190.45925369873103
20
249.76060100555401
10
-190.47305369873106
20
249.79260100555405
10
-190.47305369873106
20
249.80160100555406
10
-190.47305369873106
20
269.71860100555398
10
-190.44415369873107
20
269.77260100555395
10
-190.39035369873102
20
269.80160100555406
10
-170.47215369873101
20
269.80160100555406
10
-170.46265369873097
20
269.80160100555406
10
-170.43085369873097
20
269.787601005554
10
-170.43505369873094
20
269.76460100555403
10
-170.45835369873095
20
269.75960100555398
10
-170.47215369873101
20
269.79160100555407
10
-170.47215369873101
20
269.80160100555406
10
-170.47215369873101
20
279.71960100555401
10
-170.44325369873098
20
279.77260100555395
10
-170.39095369873098
20
279.80160100555406
10
-150.35565369873098
20
279.80160100555406
10
-150.30175369873098
20
279.77260100555395
10
-150.27275369873095
20
279.71960100555401
10
-150.27275369873092
20
269.80160100555406
10
-150.27275369873095
20
269.79160100555401
10
-150.28795369873095
20
269.75960100555398
10
-150.31015369873103
20
269.76460100555403
10
-150.31585369873099
20
269.787601005554
10
-150.28405369873099
20
269.80160100555406
10
-150.27275369873092
20
269.80160100555406
10
-130.47205369873092
20
269.80160100555406
10
-130.4621536987309
20
269.80160100555406
10
-130.4304536987309
20
269.787601005554
10
-130.4346536987309
20
269.76460100555403
10
-130.4579536987309
20
269.75960100555398
10
-130.47205369873092
20
269.79160100555407
10
-130.47205369873092
20
269.80160100555406
10
-130.47205369873092
20
279.71960100555401
10
-130.4431536987309
20
279.77260100555395
10
-130.39055369873094
20
279.80160100555406
10
-110.35655369873091
20
279.80160100555406
10
-110.30355369873092
20
279.77260100555395
10
-110.27255369873089
20
279.71960100555401
10
-110.27255369873092
20
269.80160100555406
10
-110.27255369873089
20
269.79160100555401
10
-110.28755369873089
20
269.75960100555398
10
-110.3115536987309
20
269.76460100555403
10
-110.31555369873089
20
269.787601005554
10
-110.2835536987309
20
269.80160100555406
10
-110.27255369873092
20
269.80160100555406
10
-90.473553698730953
20
269.80160100555406
10
-90.463553698730905
20
269.80160100555406
10
-90.431553698730909
20
269.787601005554
10
-90.435553698730899
20
269.76460100555403
10
-90.459553698730915
20
269.75960100555398
10
-90.473553698730953
20
269.79160100555407
10
-90.473553698730953
20
269.80160100555406
10
-90.473553698730953
20
279.71960100555401
10
-90.444553698730914
20
279.77260100555395
10
-90.390553698730855
20
279.80160100555406
10
-70.356553698730835
20
279.80160100555406
10
-70.30255369873089
20
279.77260100555395
10
-70.272553698730889
20
279.71960100555401
10
-70.272553698730917
20
269.80160100555406
10
-70.272553698730889
20
269.79160100555401
10
-70.287553698730818
20
269.75960100555398
10
-70.310553698730871
20
269.76460100555403
10
-70.314553698730862
20
269.787601005554
10
-70.283553698730827
20
269.80160100555406
10
-70.272553698730917
20
269.80160100555406
10
-50.472553698730849
20
269.80160100555406
10
-50.463553698730834
20
269.80160100555406
10
-50.431553698730838
20
269.787601005554
10
-50.435553698730828
20
269.76460100555403
10
-50.45855369873081
20
269.75960100555398
10
-50.472553698730849
20
269.79160100555407
10
-50.472553698730849
20
269.80160100555406
10
-50.472553698730849
20
279.71960100555401
10
-50.443553698730881
20
279.77260100555395
10
-50.390553698730791
20
279.80160100555406
10
-30.356553698730764
20
279.80160100555406
10
-30.302553698730819
20
279.77260100555395
10
-30.271553698730784
20
279.71960100555401
10
-30.271553698730816
20
269.80160100555406
10
-30.271553698730784
20
269.79160100555401
10
-30.287553698730747
20
269.75960100555398
10
-30.3105536987308
20
269.76460100555403
10
-30.314553698730791
20
269.787601005554
10
-30.283553698730756
20
269.80160100555406
10
-30.271553698730816
20
269.80160100555406
10
-10.472553698730778
20
269.80160100555406
10
-10.46255369873073
20
269.80160100555406
10
-10.430553698730805
20
269.787601005554
10
-10.435553698730757
20
269.76460100555403
10
-10.458553698730739
20
269.75960100555398
10
-10.472553698730778
20
269.79160100555407
10
-10.472553698730778
20
269.80160100555406
10
-10.472553698730778
20
279.71960100555401
10
-10.443553698730739
20
279.77260100555395
10
-10.389553698730683
20
279.80160100555406
10
9.6444463012693404
20
279.80160100555406
10
9.6974463012692524
20
279.77260100555395
10
9.7274463012692536
20
279.71960100555401
10
9.7274463012692927
20
269.80160100555406
10
9.7274463012692536
20
269.79160100555401
10
9.7114463012692909
20
269.75960100555398
10
9.6894463012692711
20
269.76460100555403
10
9.6844463012693183
20
269.787601005554
10
9.7154463012692815
20
269.80160100555406
10
9.7274463012692927
20
269.80160100555406
10
29.527446301269364
20
269.80160100555406
10
29.537446301269412
20
269.80160100555406
10
29.569446301269338
20
269.787601005554
10
29.565446301269347
20
269.76460100555403
10
29.541446301269403
20
269.75960100555398
10
29.527446301269364
20
269.79160100555407
10
29.527446301269364
20
269.80160100555406
10
29.527446301269364
20
279.71960100555401
10
29.556446301269332
20
279.77260100555395
10
29.609446301269355
20
279.80160100555406
10
49.644446301269411
20
279.80160100555406
10
49.698446301269357
20
279.77260100555395
10
49.727446301269325
20
279.71960100555401
10
49.727446301269289
20
269.80160100555406
10
49.727446301269325
20
269.79160100555401
10
49.712446301269395
20
269.75960100555398
10
49.690446301269375
20
269.76460100555403
10
49.684446301269318
20
269.787601005554
10
49.716446301269386
20
269.80160100555406
10
49.727446301269289
20
269.80160100555406
10
69.526446301269473
20
269.80160100555406
10
69.536446301269379
20
269.80160100555406
10
69.568446301269447
20
269.787601005554
10
69.564446301269456
20
269.76460100555403
10
69.54044630126937
20
269.75960100555398
10
69.526446301269473
20
269.79160100555407
10
69.526446301269473
20
269.80160100555406
10
69.526446301269473
20
279.71960100555401
10
69.555446301269441
20
279.77260100555395
10
69.609446301269486
20
279.80160100555406
10
89.64344630126952
20
279.80160100555406
10
89.697446301269608
20
279.77260100555395
10
89.727446301269467
20
279.71960100555401
10
89.727446301269424
20
269.80160100555406
10
89.727446301269467
20
269.79160100555401
10
89.712446301269537
20
269.75960100555398
10
89.689446301269626
20
269.76460100555403
10
89.68444630126946
20
269.787601005554
10
89.716446301269528
20
269.80160100555406
10
89.727446301269424
20
269.80160100555406
10
109.52744630126951
20
269.80160100555406
10
109.53644630126952
20
269.80160100555406
10
109.56844630126959
20
269.787601005554
10
109.56444630126946
20
269.76460100555403
10
109.54144630126954
20
269.75960100555398
10
109.52744630126951
20
269.79160100555407
10
109.52744630126951
20
269.80160100555406
10
109.52744630126951
20
279.71960100555401
10
109.55644630126947
20
279.77260100555395
10
109.60944630126949
20
279.80160100555406
10
129.64344630126953
20
279.80160100555406
10
129.69744630126962
20
279.77260100555395
10
129.72844630126951
20
279.71960100555401
10
129.72844630126946
20
269.80160100555406
10
129.72844630126951
20
269.79160100555401
10
129.71244630126955
20
269.75960100555398
10
129.68944630126947
20
269.76460100555403
10
129.68544630126951
20
269.787601005554
10
129.71644630126951
20
269.80160100555406
10
129.72844630126946
20
269.80160100555406
10
149.52644630126963
20
269.80160100555406
0
ENDSEC
0
SECTION
2
OBJECTS
0
DICTIONARY
5
C
100
AcDbDictionary
3
ACAD_GROUP
350
D
3
ACAD_MLINESTYLE
350
17
0
DICTIONARY
5
D
100
AcDbDictionary
0
DICTIONARY
5
1A
330
C
100
AcDbDictionary
0
DICTIONARY
5
17
100
AcDbDictionary
0
ENDSEC
0
EOF
