0
SECTION
2
HEADER
9
$INSUNITS
70
4
9
$ACADVER
1
AC1014
9
$HANDSEED
5
FFFF
0
ENDSEC
0
SECTION
2
TABLES
0
TABLE
2
VPORT
5
8
100
AcDbSymbolTable
0
ENDTAB
0
TABLE
2
LTYPE
5
5
100
AcDbSymbolTable
0
LTYPE
5
14
100
AcDbSymbolTableRecord
100
AcDbLinetypeTableRecord
2
BYBLOCK
70
0
0
LTYPE
5
15
100
AcDbSymbolTableRecord
100
AcDbLinetypeTableRecord
2
BYLAYER
70
0
0
LTYPE
5
16
100
AcDbSymbolTableRecord
100
AcDbLinetypeTableRecord
2
DASHED
70
0
3
Dashed __ __ __ __ __ __ __ __ __ __ __ __ __ _
72
65
73
2
40
0.75
49
0.5
74
0
49
-0.25
74
0
0
ENDTAB
0
TABLE
2
LAYER
5
2
100
AcDbSymbolTable
70
2
0
LAYER
5
50
100
AcDbSymbolTableRecord
100
AcDbLayerTableRecord
2
0
70
0
62
7
6
CONTINUOUS
0
ENDTAB
0
TABLE
2
STYLE
5
3
100
AcDbSymbolTable
70
1
0
STYLE
5
11
100
AcDbSymbolTableRecord
100
AcDbTextStyleTableRecord
2
STANDARD
70
0
0
ENDTAB
0
TABLE
2
VIEW
5
6
100
AcDbSymbolTable
70
0
0
ENDTAB
0
TABLE
2
UCS
5
7
100
AcDbSymbolTable
70
0
0
ENDTAB
0
TABLE
2
APPID
5
9
100
AcDbSymbolTable
70
2
0
APPID
5
12
100
AcDbSymbolTableRecord
100
AcDbRegAppTableRecord
2
ACAD
70
0
0
ENDTAB
0
TABLE
2
DIMSTYLE
5
A
100
AcDbSymbolTable
70
1
0
ENDTAB
0
TABLE
2
BLOCK_RECORD
5
1
100
AcDbSymbolTable
70
1
0
BLOCK_RECORD
5
1F
100
AcDbSymbolTableRecord
100
AcDbBlockTableRecord
2
*MODEL_SPACE
0
BLOCK_RECORD
5
1B
100
AcDbSymbolTableRecord
100
AcDbBlockTableRecord
2
*PAPER_SPACE
0
ENDTAB
0
ENDSEC
0
SECTION
2
BLOCKS
0
BLOCK
5
20
100
AcDbEntity
100
AcDbBlockBegin
2
*MODEL_SPACE
0
ENDBLK
5
21
100
AcDbEntity
100
AcDbBlockEnd
0
BLOCK
5
1C
100
AcDbEntity
100
AcDbBlockBegin
2
*PAPER_SPACE
0
ENDBLK
5
1D
100
AcDbEntity
100
AcDbBlockEnd
0
ENDSEC
0
SECTION
2
ENTITIES
0
CIRCLE
5
100
100
AcDbEntity
8
0
100
AcDbCircle
10
-68.835471744303774
20
4.0416464190518928
30
0
40
1.5000000000000036
210
-1.9608347394993984e-63
220
-5.6814933359423458e-33
230
1
0
CIRCLE
5
101
100
AcDbEntity
8
0
100
AcDbCircle
10
-77.980778454171812
20
24.655325060467778
30
0
40
1.5000000000000036
210
-1.9608347394993984e-63
220
-5.6814933359423458e-33
230
1
0
CIRCLE
5
102
100
AcDbEntity
8
0
100
AcDbCircle
10
-65.675436641143492
20
16.968191868732767
30
0
40
4.2500000000000089
210
6.1629758220391239e-33
220
9.6296497219381396e-34
230
1
0
CIRCLE
5
103
100
AcDbEntity
8
0
100
AcDbCircle
10
-13.060152389383322
20
114.07876102696603
30
0
40
1.5000000000000036
210
-1.9608347394993984e-63
220
-5.6814933359423458e-33
230
1
0
CIRCLE
5
104
100
AcDbEntity
8
0
100
AcDbCircle
10
41.843467121267032
20
-5.7848871938972968
30
0
40
1.5000000000000036
210
-1.9608347394993984e-63
220
-5.6814933359423458e-33
230
1
0
CIRCLE
5
105
100
AcDbEntity
8
0
100
AcDbCircle
10
6.3768299633473777
20
112.34599181682908
30
0
40
1.5000000000000069
210
7.7037197775489434e-34
220
-7.2222372914521344e-33
230
1
0
CIRCLE
5
106
100
AcDbEntity
8
0
100
AcDbCircle
10
53.941429385351853
20
11.458581090885009
30
0
40
1.5000000000000036
210
-1.9608347394993984e-63
220
-5.6814933359423458e-33
230
1
0
CIRCLE
5
107
100
AcDbEntity
8
0
100
AcDbCircle
10
35.831035506959431
20
64.301437183695114
30
0
40
4.5000000000000115
210
-1.7718555488362523e-32
220
-1.444447458290991e-33
230
1
0
CIRCLE
5
108
100
AcDbEntity
8
0
100
AcDbCircle
10
41.297623441328575
20
7.6204714469737622
30
0
40
4.25
210
-6.1629758220391027e-33
220
-1.6370404527293468e-33
230
1
0
CIRCLE
5
109
100
AcDbEntity
8
0
100
AcDbCircle
10
-4.0834131022142062
20
104.94041837448836
30
0
40
4.2500000000000089
210
6.1629758220391239e-33
220
9.6296497219381396e-34
230
1
0
CIRCLE
5
110
100
AcDbEntity
8
0
100
AcDbCircle
10
-9.3206741914097808
20
-142.17132734680175
30
0
40
27.599999999999998
210
3.8518598887744724e-33
220
8.6666847497425545e-34
230
1
0
LWPOLYLINE
5
111
100
AcDbEntity
8
0
100
AcDbPolyline
90
4
70
1
43
0.0
10
-3.8206741914112818
20
27.274672653198124
10
-3.8206741914112818
20
33.274672653198138
42
-0.99999999999999989
10
-0.82067419141127251
20
33.27467265319811
10
-0.82067419141127695
20
27.274672653198124
42
-0.99999999999999989
0
LWPOLYLINE
5
112
100
AcDbEntity
8
0
100
AcDbPolyline
90
4
70
1
43
0.0
10
-3.820674191410296
20
-3.7253273468018815
10
-3.8206741914102915
20
2.274672653198123
42
-0.99999999999999989
10
-0.8206741914102933
20
2.2746726531981167
10
-0.82067419141029718
20
-3.7253273468018828
42
-0.99999999999999989
0
LWPOLYLINE
5
113
100
AcDbEntity
8
0
100
AcDbPolyline
90
4
70
1
43
0.0
10
27.179325808588718
20
27.274672653199087
10
27.179325808588732
20
33.274672653199076
42
-0.99999999999999989
10
30.179325808588757
20
33.274672653199083
10
30.179325808588725
20
27.274672653199076
42
-0.99999999999999989
0
LWPOLYLINE
5
114
100
AcDbEntity
8
0
100
AcDbPolyline
90
4
70
1
43
0.0
10
2.1793258085892093
20
11.774672653222062
10
2.1793258085892253
20
17.7746726531985
42
-0.99999999999999989
10
24.179325808589219
20
17.774672653198461
10
24.179325808589223
20
11.774672653174896
42
-0.99999999999999989
0
LWPOLYLINE
5
115
100
AcDbEntity
8
0
100
AcDbPolyline
90
4
70
1
43
0.0
10
27.179325808589681
20
-3.7253273468009294
10
27.179325808589688
20
2.2746726531990555
42
-0.99999999999999989
10
30.179325808589695
20
2.2746726531990871
10
30.179325808589688
20
-3.725327346800932
42
-0.99999999999999989
0
CIRCLE
5
116
100
AcDbEntity
8
0
100
AcDbCircle
10
-9.3206741914097933
20
-174.2713273468018
30
0
40
1.5000000000000036
210
-3.0814879110195787e-33
220
-1.6370404527291484e-33
230
1
0
CIRCLE
5
117
100
AcDbEntity
8
0
100
AcDbCircle
10
-41.42067419140983
20
-142.17132734680169
30
0
40
1.5000000000000036
210
-3.0814879110195787e-33
220
-1.6370404527291484e-33
230
1
0
CIRCLE
5
118
100
AcDbEntity
8
0
100
AcDbCircle
10
22.779325808590233
20
-142.17132734680175
30
0
40
1.4999999999999858
210
6.1629758220391588e-33
220
6.2592723192585124e-33
230
1
0
CIRCLE
5
119
100
AcDbEntity
8
0
100
AcDbCircle
10
-9.3206741914097595
20
-110.0713273468017
30
0
40
1.4999999999999858
210
6.1629758220391588e-33
220
6.2592723192585124e-33
230
1
0
LWPOLYLINE
5
120
100
AcDbEntity
8
0
100
AcDbPolyline
90
6
70
1
43
0.0
10
30.679325808590249
20
-20.088489509771978
42
3.4610558476981419
10
-49.320674191409786
20
-20.314616436128901
10
-49.320674191409765
20
-160.0713273468017
42
0.41421356237309537
10
-17.220674191409778
20
-192.17132734680177
10
-1.420674191409832
20
-192.17132734680177
42
0.41421356237309542
10
30.679325808590217
20
-160.07132734680175
0
LWPOLYLINE
5
121
100
AcDbEntity
8
0
100
AcDbPolyline
90
16
70
1
43
0.0
10
-52.820674191408202
20
-5.2755798784949786
10
-52.820674191408216
20
34.824925184893274
42
-0.19891236737964993
10
-52.527780972594769
20
35.532031966079828
10
-49.57803350428896
20
38.481779434385643
42
-0.19891236737965662
10
-48.870926723102393
20
38.774672653199104
10
-14.770421659714135
20
38.774672653199119
42
-0.19891236737965073
10
-14.063314878527606
20
38.481779434385672
10
-11.113567410221794
20
35.532031966079849
42
-0.19891236737966239
10
-10.820674191408335
20
34.824925184893296
10
-10.820674191408308
20
-5.2755798784949848
42
-0.19891236737966078
10
-11.11356741022176
20
-5.9826866596815362
10
-14.063314878527564
20
-8.9324341279873511
42
-0.19891236737965431
10
-14.770421659714113
20
-9.2253273468008032
10
-48.8709267231024
20
-9.2253273468008068
42
-0.19891236737965107
10
-49.578033504288925
20
-8.9324341279873547
10
-52.527780972594755
20
-5.9826866596815274
42
-0.19891236737965753
0
CIRCLE
5
122
100
AcDbEntity
8
0
100
AcDbCircle
10
-14.770421659714144
20
42.774672653199104
30
0
40
2.0000000000000018
210
7.7037197775489434e-34
220
5.585196838722984e-33
230
1
0
CIRCLE
5
123
100
AcDbEntity
8
0
100
AcDbCircle
10
-14.770421659714113
20
-13.22532734680081
30
0
40
1.9999999999999996
210
7.7037197775489434e-34
220
6.2592723192585165e-33
230
1
0
CIRCLE
5
124
100
AcDbEntity
8
0
100
AcDbCircle
10
-48.870926723102393
20
42.774672653199097
30
0
40
2.0000000000000018
210
7.7037197775489434e-34
220
5.585196838722984e-33
230
1
0
CIRCLE
5
125
100
AcDbEntity
8
0
100
AcDbCircle
10
-48.870926723102393
20
-13.22532734680081
30
0
40
2.0000000000000018
210
7.7037197775489434e-34
220
5.585196838722984e-33
230
1
0
ENDSEC
0
SECTION
2
OBJECTS
0
DICTIONARY
5
C
100
AcDbDictionary
3
ACAD_GROUP
350
D
3
ACAD_MLINESTYLE
350
17
0
DICTIONARY
5
D
100
AcDbDictionary
0
DICTIONARY
5
1A
330
C
100
AcDbDictionary
0
DICTIONARY
5
17
100
AcDbDictionary
0
ENDSEC
0
EOF
