0
SECTION
2
HEADER
9
$INSUNITS
70
4
9
$ACADVER
1
AC1014
9
$HANDSEED
5
FFFF
0
ENDSEC
0
SECTION
2
TABLES
0
TABLE
2
VPORT
5
8
100
AcDbSymbolTable
0
ENDTAB
0
TABLE
2
LTYPE
5
5
100
AcDbSymbolTable
0
LTYPE
5
14
100
AcDbSymbolTableRecord
100
AcDbLinetypeTableRecord
2
BYBLOCK
70
0
0
LTYPE
5
15
100
AcDbSymbolTableRecord
100
AcDbLinetypeTableRecord
2
BYLAYER
70
0
0
LTYPE
5
16
100
AcDbSymbolTableRecord
100
AcDbLinetypeTableRecord
2
DASHED
70
0
3
Dashed __ __ __ __ __ __ __ __ __ __ __ __ __ _
72
65
73
2
40
0.75
49
0.5
74
0
49
-0.25
74
0
0
ENDTAB
0
TABLE
2
LAYER
5
2
100
AcDbSymbolTable
70
2
0
LAYER
5
50
100
AcDbSymbolTableRecord
100
AcDbLayerTableRecord
2
0
70
0
62
7
6
CONTINUOUS
0
ENDTAB
0
TABLE
2
STYLE
5
3
100
AcDbSymbolTable
70
1
0
STYLE
5
11
100
AcDbSymbolTableRecord
100
AcDbTextStyleTableRecord
2
STANDARD
70
0
0
ENDTAB
0
TABLE
2
VIEW
5
6
100
AcDbSymbolTable
70
0
0
ENDTAB
0
TABLE
2
UCS
5
7
100
AcDbSymbolTable
70
0
0
ENDTAB
0
TABLE
2
APPID
5
9
100
AcDbSymbolTable
70
2
0
APPID
5
12
100
AcDbSymbolTableRecord
100
AcDbRegAppTableRecord
2
ACAD
70
0
0
ENDTAB
0
TABLE
2
DIMSTYLE
5
A
100
AcDbSymbolTable
70
1
0
ENDTAB
0
TABLE
2
BLOCK_RECORD
5
1
100
AcDbSymbolTable
70
1
0
BLOCK_RECORD
5
1F
100
AcDbSymbolTableRecord
100
AcDbBlockTableRecord
2
*MODEL_SPACE
0
BLOCK_RECORD
5
1B
100
AcDbSymbolTableRecord
100
AcDbBlockTableRecord
2
*PAPER_SPACE
0
ENDTAB
0
ENDSEC
0
SECTION
2
BLOCKS
0
BLOCK
5
20
100
AcDbEntity
100
AcDbBlockBegin
2
*MODEL_SPACE
0
ENDBLK
5
21
100
AcDbEntity
100
AcDbBlockEnd
0
BLOCK
5
1C
100
AcDbEntity
100
AcDbBlockBegin
2
*PAPER_SPACE
0
ENDBLK
5
1D
100
AcDbEntity
100
AcDbBlockEnd
0
ENDSEC
0
SECTION
2
ENTITIES
0
LWPOLYLINE
5
100
100
AcDbEntity
8
0
100
AcDbPolyline
90
8
70
1
43
0.0
10
-52.870674191409677
20
-15.224999984027981
42
0.41421356237309404
10
-50.870674191409677
20
-17.224999984027974
10
-12.77067419140964
20
-17.224999984027974
42
0.41421356237309404
10
-10.770674191409647
20
-15.224999984027995
10
-10.770674191409618
20
44.775000015972012
42
0.4142135623730947
10
-12.770674191409622
20
46.775000015972019
10
-50.870674191409648
20
46.775000015972026
42
0.41421356237309243
10
-52.87067419140967
20
44.775000015972033
0
LWPOLYLINE
5
101
100
AcDbEntity
8
0
100
AcDbPolyline
90
4
70
1
43
0.0
10
-45.820674191409026
20
2.2746726531991079
10
-45.820674191409026
20
-3.7253273468008761
42
-0.99999999999999989
10
-48.820674191409033
20
-3.7253273468008761
10
-48.820674191409033
20
2.2746726531991412
42
-0.99999999999999989
0
LWPOLYLINE
5
102
100
AcDbEntity
8
0
100
AcDbPolyline
90
4
70
1
43
0.0
10
-45.820674191408052
20
33.274672653199133
10
-45.820674191408052
20
27.27467265319914
42
-0.99999999999999989
10
-48.82067419140806
20
27.27467265319914
10
-48.82067419140806
20
33.27467265319914
42
-0.99999999999999989
0
LWPOLYLINE
5
103
100
AcDbEntity
8
0
100
AcDbPolyline
90
4
70
1
43
0.0
10
-14.820674191409049
20
2.2746726531981554
10
-14.820674191409049
20
-3.7253273468018486
42
-0.99999999999999989
10
-17.820674191409047
20
-3.7253273468018486
10
-17.820674191409047
20
2.2746726531981487
42
-0.99999999999999989
0
LWPOLYLINE
5
104
100
AcDbEntity
8
0
100
AcDbPolyline
90
4
70
1
43
0.0
10
-14.820674191408042
20
33.274672653198174
10
-14.820674191408044
20
27.274672653198163
42
-0.99999999999999989
10
-17.820674191408045
20
27.274672653198152
10
-17.820674191408049
20
33.274672653198145
42
-0.99999999999999989
0
LWPOLYLINE
5
105
100
AcDbEntity
8
0
100
AcDbPolyline
90
4
70
1
43
0.0
10
-20.820674191408557
20
17.774672653198536
10
-20.820674191408539
20
11.774672653222103
42
-0.99999999999999989
10
-42.820674191408571
20
11.774672653174941
10
-42.82067419140855
20
17.7746726531985
42
-0.99999999999999989
0
CIRCLE
5
106
100
AcDbEntity
8
0
100
AcDbCircle
10
-14.770421659714144
20
42.774672653199097
30
0
40
2.0000000000000018
210
7.7037197775489434e-34
220
3.6004076803775181e-80
230
1
0
CIRCLE
5
107
100
AcDbEntity
8
0
100
AcDbCircle
10
-48.870926723102414
20
42.77467265319909
30
0
40
2.0000000000000018
210
7.7037197775489434e-34
220
3.6004076803775181e-80
230
1
0
LWPOLYLINE
5
108
100
AcDbEntity
8
0
100
AcDbPolyline
90
2
70
1
43
0.0
10
-14.734236802039206
20
-15.224999984027981
10
-14.806606517389016
20
-15.224999984027981
42
-110.53443053890859
0
LWPOLYLINE
5
109
100
AcDbEntity
8
0
100
AcDbPolyline
90
2
70
1
43
0.0
10
-48.834741865427247
20
-15.224999984027976
10
-48.90711158077756
20
-15.224999984027981
42
-110.53443053814891
0
ENDSEC
0
SECTION
2
OBJECTS
0
DICTIONARY
5
C
100
AcDbDictionary
3
ACAD_GROUP
350
D
3
ACAD_MLINESTYLE
350
17
0
DICTIONARY
5
D
100
AcDbDictionary
0
DICTIONARY
5
1A
330
C
100
AcDbDictionary
0
DICTIONARY
5
17
100
AcDbDictionary
0
ENDSEC
0
EOF
