0
SECTION
2
HEADER
9
$INSUNITS
70
4
9
$ACADVER
1
AC1014
9
$HANDSEED
5
FFFF
0
ENDSEC
0
SECTION
2
TABLES
0
TABLE
2
VPORT
5
8
100
AcDbSymbolTable
0
ENDTAB
0
TABLE
2
LTYPE
5
5
100
AcDbSymbolTable
0
LTYPE
5
14
100
AcDbSymbolTableRecord
100
AcDbLinetypeTableRecord
2
BYBLOCK
70
0
0
LTYPE
5
15
100
AcDbSymbolTableRecord
100
AcDbLinetypeTableRecord
2
BYLAYER
70
0
0
LTYPE
5
16
100
AcDbSymbolTableRecord
100
AcDbLinetypeTableRecord
2
DASHED
70
0
3
Dashed __ __ __ __ __ __ __ __ __ __ __ __ __ _
72
65
73
2
40
0.75
49
0.5
74
0
49
-0.25
74
0
0
ENDTAB
0
TABLE
2
LAYER
5
2
100
AcDbSymbolTable
70
2
0
LAYER
5
50
100
AcDbSymbolTableRecord
100
AcDbLayerTableRecord
2
0
70
0
62
7
6
CONTINUOUS
0
ENDTAB
0
TABLE
2
STYLE
5
3
100
AcDbSymbolTable
70
1
0
STYLE
5
11
100
AcDbSymbolTableRecord
100
AcDbTextStyleTableRecord
2
STANDARD
70
0
0
ENDTAB
0
TABLE
2
VIEW
5
6
100
AcDbSymbolTable
70
0
0
ENDTAB
0
TABLE
2
UCS
5
7
100
AcDbSymbolTable
70
0
0
ENDTAB
0
TABLE
2
APPID
5
9
100
AcDbSymbolTable
70
2
0
APPID
5
12
100
AcDbSymbolTableRecord
100
AcDbRegAppTableRecord
2
ACAD
70
0
0
ENDTAB
0
TABLE
2
DIMSTYLE
5
A
100
AcDbSymbolTable
70
1
0
ENDTAB
0
TABLE
2
BLOCK_RECORD
5
1
100
AcDbSymbolTable
70
1
0
BLOCK_RECORD
5
1F
100
AcDbSymbolTableRecord
100
AcDbBlockTableRecord
2
*MODEL_SPACE
0
BLOCK_RECORD
5
1B
100
AcDbSymbolTableRecord
100
AcDbBlockTableRecord
2
*PAPER_SPACE
0
ENDTAB
0
ENDSEC
0
SECTION
2
BLOCKS
0
BLOCK
5
20
100
AcDbEntity
100
AcDbBlockBegin
2
*MODEL_SPACE
0
ENDBLK
5
21
100
AcDbEntity
100
AcDbBlockEnd
0
BLOCK
5
1C
100
AcDbEntity
100
AcDbBlockBegin
2
*PAPER_SPACE
0
ENDBLK
5
1D
100
AcDbEntity
100
AcDbBlockEnd
0
ENDSEC
0
SECTION
2
ENTITIES
0
CIRCLE
5
100
100
AcDbEntity
8
0
100
AcDbCircle
10
-9.3206741914104754
20
-110.0713273468017
30
0
40
1.4999999999999858
210
5.3926038442842604e-33
220
2.2148194360453212e-33
230
1
0
CIRCLE
5
101
100
AcDbEntity
8
0
100
AcDbCircle
10
22.779325808589537
20
-142.17132734680172
30
0
40
1.4999999999999858
210
5.3926038442842604e-33
220
2.2148194360453212e-33
230
1
0
CIRCLE
5
102
100
AcDbEntity
8
0
100
AcDbCircle
10
-41.420674191410527
20
-142.17132734680172
30
0
40
1.5000000000000036
210
-3.8518598887744717e-33
220
-5.6814933359423458e-33
230
1
0
CIRCLE
5
103
100
AcDbEntity
8
0
100
AcDbCircle
10
-9.3206741914104647
20
-174.2713273468018
30
0
40
1.5000000000000036
210
-3.8518598887744717e-33
220
-5.6814933359423458e-33
230
1
0
LWPOLYLINE
5
104
100
AcDbEntity
8
0
100
AcDbPolyline
90
6
70
1
43
0.0
10
-49.320674191410475
20
-160.07132734680172
42
0.41421356237309537
10
-17.220674191410446
20
-192.17132734680172
10
-1.4206741914104803
20
-192.17132734680175
42
0.41421356237309537
10
30.679325808589493
20
-160.07132734680172
10
30.679325808589457
20
-20.088489509777226
42
3.4610558476981419
10
-49.320674191410568
20
-20.314616436133672
0
CIRCLE
5
105
100
AcDbEntity
8
0
100
AcDbCircle
10
41.959391051910238
20
69.443738061187346
30
0
40
1.7500000000003626
210
-1.7718555488362586e-32
220
4.8148248609623507e-34
230
1
0
CIRCLE
5
106
100
AcDbEntity
8
0
100
AcDbCircle
10
30.688734629466062
20
70.429792728646788
30
0
40
1.7500000000000071
210
1.0785207688568533e-32
220
-3.8518598887709787e-34
230
1
0
CIRCLE
5
107
100
AcDbEntity
8
0
100
AcDbCircle
10
40.973336384450747
20
58.173081638743213
30
0
40
1.7500000000004867
210
-6.1629758220392054e-33
220
1.5407439555095894e-33
230
1
0
CIRCLE
5
108
100
AcDbEntity
8
0
100
AcDbCircle
10
29.702679962006609
20
59.159136306202655
30
0
40
1.7500000000001847
210
-3.8518598887744033e-33
220
-2.1185229388260843e-33
230
1
0
CIRCLE
5
109
100
AcDbEntity
8
0
100
AcDbCircle
10
41.297623441327829
20
7.6204714469738288
30
0
40
4.25
210
7.7037197775488928e-33
220
1.5407439555100395e-33
230
1
0
CIRCLE
5
110
100
AcDbEntity
8
0
100
AcDbCircle
10
-65.675436641144259
20
16.968191868732738
30
0
40
4.2500000000000089
210
6.1629758220391363e-33
220
5.7777898331637081e-34
230
1
0
CIRCLE
5
111
100
AcDbEntity
8
0
100
AcDbCircle
10
35.831035506958592
20
64.301437183695143
30
0
40
5.0000000000000107
210
1.0785207688568596e-32
220
-2.311115933264333e-33
230
1
0
CIRCLE
5
112
100
AcDbEntity
8
0
100
AcDbCircle
10
-4.0834131022150437
20
104.94041837448836
30
0
40
4.2500000000000089
210
6.1629758220391363e-33
220
5.7777898331637081e-34
230
1
0
CIRCLE
5
113
100
AcDbEntity
8
0
100
AcDbCircle
10
-9.3206741914104345
20
-142.17132734680189
30
0
40
27.600000000000048
210
-3.8518598887744717e-33
220
-1.2518544638517031e-33
230
1
0
LWPOLYLINE
5
114
100
AcDbEntity
8
0
100
AcDbPolyline
90
8
70
1
43
0.0
10
-19.280086785029642
20
-80.23664604897337
10
-19.280086785029646
20
-80.224505741068072
42
-0.41421356237309503
10
-16.780086785029646
20
-77.724505741068072
10
-1.7800867850296447
20
-77.724505741068072
42
-0.41421356237309537
10
0.71991321497035821
20
-80.224505741068072
10
0.71991321497036265
20
-80.226239555077882
42
-0.41401037756792025
10
-1.7783523697977883
20
-82.726238953438568
10
-16.778352369797791
20
-82.73664544733407
42
-0.41441677637470692
0
CIRCLE
5
115
100
AcDbEntity
8
0
100
AcDbCircle
10
13.738454173114318
20
-108.46834746396226
30
0
40
0.99999999999999645
210
6.1629758220391547e-33
220
-6.8370513025746873e-33
230
1
0
CIRCLE
5
116
100
AcDbEntity
8
0
100
AcDbCircle
10
-32.357404547595166
20
-108.49358471918472
30
0
40
0.99999999999999867
210
3.8518598887744717e-33
220
7.1259407942327727e-33
230
1
0
CIRCLE
5
117
100
AcDbEntity
8
0
100
AcDbCircle
10
17.916573636078443
20
-103.48905858368695
30
0
40
0.99999999999999645
210
6.1629758220391547e-33
220
-6.8370513025746873e-33
230
1
0
CIRCLE
5
118
100
AcDbEntity
8
0
100
AcDbCircle
10
-36.535524010557673
20
-103.51429583891134
30
0
40
0.99999999999999867
210
3.8518598887744717e-33
220
7.1259407942327727e-33
230
1
0
CIRCLE
5
119
100
AcDbEntity
8
0
100
AcDbCircle
10
53.941429385351853
20
11.458581090885016
30
0
40
1.5000000000000036
210
-1.9608347394993984e-63
220
-5.6814933359423458e-33
230
1
0
CIRCLE
5
120
100
AcDbEntity
8
0
100
AcDbCircle
10
-77.980778454171812
20
24.655325060467781
30
0
40
1.5000000000000036
210
-1.9608347394993984e-63
220
-5.6814933359423458e-33
230
1
0
CIRCLE
5
121
100
AcDbEntity
8
0
100
AcDbCircle
10
6.3768299633473777
20
112.3459918168291
30
0
40
1.5000000000000069
210
7.7037197775489434e-34
220
-7.2222372914521344e-33
230
1
0
CIRCLE
5
122
100
AcDbEntity
8
0
100
AcDbCircle
10
41.843467121267032
20
-5.7848871938972906
30
0
40
1.5000000000000036
210
-1.9608347394993984e-63
220
-5.6814933359423458e-33
230
1
0
CIRCLE
5
123
100
AcDbEntity
8
0
100
AcDbCircle
10
-68.835471744303774
20
4.0416464190518999
30
0
40
1.5000000000000036
210
-1.9608347394993984e-63
220
-5.6814933359423458e-33
230
1
0
CIRCLE
5
124
100
AcDbEntity
8
0
100
AcDbCircle
10
-13.060152389383322
20
114.07876102696605
30
0
40
1.5000000000000036
210
-1.9608347394993984e-63
220
-5.6814933359423458e-33
230
1
0
ENDSEC
0
SECTION
2
OBJECTS
0
DICTIONARY
5
C
100
AcDbDictionary
3
ACAD_GROUP
350
D
3
ACAD_MLINESTYLE
350
17
0
DICTIONARY
5
D
100
AcDbDictionary
0
DICTIONARY
5
1A
330
C
100
AcDbDictionary
0
DICTIONARY
5
17
100
AcDbDictionary
0
ENDSEC
0
EOF
