0
SECTION
2
HEADER
9
$INSUNITS
70
4
9
$ACADVER
1
AC1014
9
$HANDSEED
5
FFFF
0
ENDSEC
0
SECTION
2
TABLES
0
TABLE
2
VPORT
5
8
100
AcDbSymbolTable
0
ENDTAB
0
TABLE
2
LTYPE
5
5
100
AcDbSymbolTable
0
LTYPE
5
14
100
AcDbSymbolTableRecord
100
AcDbLinetypeTableRecord
2
BYBLOCK
70
0
0
LTYPE
5
15
100
AcDbSymbolTableRecord
100
AcDbLinetypeTableRecord
2
BYLAYER
70
0
0
LTYPE
5
16
100
AcDbSymbolTableRecord
100
AcDbLinetypeTableRecord
2
DASHED
70
0
3
Dashed __ __ __ __ __ __ __ __ __ __ __ __ __ _
72
65
73
2
40
0.75
49
0.5
74
0
49
-0.25
74
0
0
ENDTAB
0
TABLE
2
LAYER
5
2
100
AcDbSymbolTable
70
2
0
LAYER
5
50
100
AcDbSymbolTableRecord
100
AcDbLayerTableRecord
2
0
70
0
62
7
6
CONTINUOUS
0
ENDTAB
0
TABLE
2
STYLE
5
3
100
AcDbSymbolTable
70
1
0
STYLE
5
11
100
AcDbSymbolTableRecord
100
AcDbTextStyleTableRecord
2
STANDARD
70
0
0
ENDTAB
0
TABLE
2
VIEW
5
6
100
AcDbSymbolTable
70
0
0
ENDTAB
0
TABLE
2
UCS
5
7
100
AcDbSymbolTable
70
0
0
ENDTAB
0
TABLE
2
APPID
5
9
100
AcDbSymbolTable
70
2
0
APPID
5
12
100
AcDbSymbolTableRecord
100
AcDbRegAppTableRecord
2
ACAD
70
0
0
ENDTAB
0
TABLE
2
DIMSTYLE
5
A
100
AcDbSymbolTable
70
1
0
ENDTAB
0
TABLE
2
BLOCK_RECORD
5
1
100
AcDbSymbolTable
70
1
0
BLOCK_RECORD
5
1F
100
AcDbSymbolTableRecord
100
AcDbBlockTableRecord
2
*MODEL_SPACE
0
BLOCK_RECORD
5
1B
100
AcDbSymbolTableRecord
100
AcDbBlockTableRecord
2
*PAPER_SPACE
0
ENDTAB
0
ENDSEC
0
SECTION
2
BLOCKS
0
BLOCK
5
20
100
AcDbEntity
100
AcDbBlockBegin
2
*MODEL_SPACE
0
ENDBLK
5
21
100
AcDbEntity
100
AcDbBlockEnd
0
BLOCK
5
1C
100
AcDbEntity
100
AcDbBlockBegin
2
*PAPER_SPACE
0
ENDBLK
5
1D
100
AcDbEntity
100
AcDbBlockEnd
0
ENDSEC
0
SECTION
2
ENTITIES
0
LWPOLYLINE
5
100
100
AcDbEntity
8
0
100
AcDbPolyline
90
346
70
1
43
0.0
10
12.27949999999975
20
45.29900000000012
10
12.279499999999857
20
39.91600000000016
10
2.2794999999998602
20
39.91600000000016
10
2.2504999999998532
20
39.970000000000176
10
2.196499999999908
20
40.000000000000178
10
-7.7205000000001398
20
40.000000000000178
10
-7.7315000000000822
20
40.000000000000178
10
-7.7625000000001165
20
39.985000000000177
10
-7.7585000000000903
20
39.962000000000195
10
-7.7355000000000729
20
39.958000000000169
10
-7.7205000000001078
20
39.989000000000203
10
-7.7205000000001398
20
40.000000000000178
10
-7.7205000000001078
20
59.800000000000182
10
-7.7205000000001078
20
59.809000000000196
10
-7.7355000000000729
20
59.841000000000157
10
-7.7585000000000903
20
59.837000000000167
10
-7.7625000000001165
20
59.814000000000185
10
-7.7315000000000822
20
59.800000000000182
10
-7.7205000000001078
20
59.800000000000182
10
2.1964999999999399
20
59.800000000000182
10
2.2504999999998532
20
59.829000000000185
10
2.2794999999998566
20
59.883000000000166
10
2.2794999999998562
20
79.917000000000158
10
2.2504999999998532
20
79.970000000000169
10
2.196499999999908
20
80.001000000000175
10
-7.7205000000001398
20
80.001000000000175
10
-7.7315000000000822
20
80.001000000000175
10
-7.7625000000001165
20
79.985000000000184
10
-7.7585000000000903
20
79.962000000000188
10
-7.7355000000000729
20
79.958000000000169
10
-7.7205000000001078
20
79.990000000000165
10
-7.7205000000001398
20
80.001000000000175
10
-7.7205000000001078
20
106.91600000000017
10
-7.750500000000109
20
106.97000000000017
10
-7.8045000000000897
20
107.00000000000017
10
-27.720500000000101
20
107.00000000000017
10
-27.732500000000115
20
107.00000000000017
10
-27.763500000000079
20
106.98500000000018
10
-27.75850000000009
20
106.96200000000019
10
-27.736500000000071
20
106.95800000000017
10
-27.720500000000108
20
106.99000000000018
10
-27.720500000000101
20
107.00000000000017
10
-27.720500000000108
20
116.91700000000017
10
-27.750500000000109
20
116.97100000000017
10
-27.803500000000057
20
117.00000000000017
10
-47.837500000000077
20
117.00000000000017
10
-47.891500000000065
20
116.97100000000017
10
-47.920500000000104
20
116.91700000000017
10
-47.920500000000104
20
107.00000000000017
10
-47.920500000000104
20
106.99000000000018
10
-47.906500000000065
20
106.95800000000017
10
-47.883500000000083
20
106.96200000000019
10
-47.878500000000095
20
106.98500000000018
10
-47.910500000000091
20
107.00000000000017
10
-47.920500000000104
20
107.00000000000017
10
-67.719500000000096
20
107.00000000000017
10
-67.731500000000082
20
107.00000000000017
10
-67.762500000000117
20
106.98500000000018
10
-67.758500000000083
20
106.96200000000019
10
-67.735500000000116
20
106.95800000000017
10
-67.71950000000011
20
106.99000000000018
10
-67.719500000000096
20
107.00000000000017
10
-67.71950000000011
20
116.91700000000017
10
-67.750500000000102
20
116.97100000000017
10
-67.804500000000132
20
117.00000000000017
10
-87.838500000000124
20
117.00000000000017
10
-87.891500000000093
20
116.97100000000017
10
-87.920500000000104
20
116.91700000000017
10
-87.920500000000104
20
107.00000000000017
10
-87.920500000000104
20
106.99000000000018
10
-87.906500000000108
20
106.95800000000017
10
-87.883500000000083
20
106.96200000000019
10
-87.879500000000093
20
106.98500000000018
10
-87.911500000000132
20
107.00000000000017
10
-87.920500000000104
20
107.00000000000017
10
-107.7205000000001
20
107.00000000000017
10
-107.73150000000008
20
107.00000000000017
10
-107.76250000000012
20
106.98500000000018
10
-107.75850000000005
20
106.96200000000019
10
-107.73550000000007
20
106.95800000000017
10
-107.7205000000001
20
106.99000000000018
10
-107.7205000000001
20
107.00000000000017
10
-107.7205000000001
20
116.91700000000017
10
-107.7505000000001
20
116.97100000000017
10
-107.80450000000009
20
117.00000000000017
10
-127.83850000000008
20
117.00000000000017
10
-127.89250000000008
20
116.97100000000017
10
-127.92150000000008
20
116.91700000000017
10
-127.92150000000008
20
107.00000000000017
10
-127.92150000000008
20
106.99000000000018
10
-127.90750000000008
20
106.95800000000017
10
-127.88350000000007
20
106.96200000000019
10
-127.87950000000008
20
106.98500000000018
10
-127.91150000000007
20
107.00000000000017
10
-127.92150000000008
20
107.00000000000017
10
-147.72050000000007
20
107.00000000000017
10
-147.73150000000007
20
107.00000000000017
10
-147.76350000000005
20
106.98500000000018
10
-147.75950000000006
20
106.96200000000019
10
-147.73550000000006
20
106.95800000000017
10
-147.72050000000004
20
106.99000000000018
10
-147.72050000000007
20
107.00000000000017
10
-147.72050000000004
20
116.91700000000017
10
-147.75150000000008
20
116.97100000000017
10
-147.80450000000005
20
117.00000000000017
10
-167.83850000000004
20
117.00000000000017
10
-167.89110000000005
20
116.97100000000017
10
-167.92000000000004
20
116.91700000000017
10
-167.92000000000004
20
107.00000000000017
10
-167.92000000000004
20
106.99000000000018
10
-167.90590000000006
20
106.95800000000017
10
-167.88260000000005
20
106.96200000000019
10
-167.87840000000006
20
106.98500000000018
10
-167.91010000000003
20
107.00000000000017
10
-167.92000000000004
20
107.00000000000017
10
-187.72070000000008
20
107.00000000000017
10
-187.73200000000006
20
107.00000000000017
10
-187.76380000000006
20
106.98500000000018
10
-187.75810000000007
20
106.96200000000019
10
-187.73590000000007
20
106.95800000000017
10
-187.72070000000008
20
106.99000000000018
10
-187.72070000000008
20
107.00000000000017
10
-187.72070000000008
20
116.91700000000017
10
-187.74970000000008
20
116.97100000000017
10
-187.80360000000005
20
117.00000000000017
10
-207.83890000000008
20
117.00000000000017
10
-207.89120000000008
20
116.97100000000017
10
-207.92010000000005
20
116.91700000000017
10
-207.92010000000005
20
107.00000000000017
10
-207.92010000000008
20
106.99000000000018
10
-207.90630000000007
20
106.95800000000017
10
-207.88300000000004
20
106.96200000000019
10
-207.87880000000001
20
106.98500000000018
10
-207.91060000000002
20
107.00000000000017
10
-207.92010000000005
20
107.00000000000017
10
-227.8383
20
107.00000000000017
10
-227.89210000000003
20
106.97000000000017
10
-227.92100000000005
20
106.91600000000017
10
-227.92100000000005
20
80.001000000000175
10
-227.92100000000008
20
79.990000000000165
10
-227.90720000000005
20
79.958000000000169
10
-227.88380000000004
20
79.962000000000188
10
-227.87970000000004
20
79.985000000000184
10
-227.91140000000001
20
80.001000000000175
10
-227.92100000000005
20
80.001000000000175
10
-237.83880000000005
20
80.001000000000175
10
-237.89109999999999
20
79.970000000000169
10
-237.92010000000005
20
79.917000000000158
10
-237.92010000000005
20
59.883000000000166
10
-237.89110000000005
20
59.829000000000185
10
-237.83880000000005
20
59.800000000000182
10
-227.92100000000005
20
59.800000000000182
10
-227.91140000000001
20
59.800000000000182
10
-227.87970000000001
20
59.814000000000185
10
-227.88380000000006
20
59.837000000000167
10
-227.90720000000005
20
59.841000000000157
10
-227.92100000000005
20
59.809000000000196
10
-227.92100000000005
20
59.800000000000182
10
-227.92100000000005
20
40.000000000000178
10
-227.92100000000008
20
39.989000000000203
10
-227.90720000000005
20
39.958000000000169
10
-227.88380000000004
20
39.962000000000195
10
-227.87970000000004
20
39.985000000000177
10
-227.91140000000001
20
40.000000000000178
10
-227.92100000000005
20
40.000000000000178
10
-237.83880000000005
20
40.000000000000178
10
-237.89109999999999
20
39.970000000000176
10
-237.92010000000005
20
39.91600000000016
10
-237.92010000000005
20
19.882000000000165
10
-237.89110000000005
20
19.828000000000117
10
-237.83880000000005
20
19.799000000000149
10
-227.92100000000005
20
19.799000000000149
10
-227.91140000000001
20
19.799000000000149
10
-227.87970000000001
20
19.813000000000116
10
-227.88380000000006
20
19.837000000000131
10
-227.90720000000005
20
19.841000000000122
10
-227.92100000000005
20
19.809000000000161
10
-227.92100000000005
20
19.799000000000149
10
-227.92100000000005
20
1.3766765505351941e-13
10
-227.92100000000008
20
-0.010999999999867774
10
-227.90720000000005
20
-0.042999999999864258
10
-227.88380000000004
20
-0.038999999999873587
10
-227.87970000000004
20
-0.01499999999989399
10
-227.91140000000001
20
1.4210854715202004e-13
10
-227.92100000000005
20
1.3766765505351941e-13
10
-237.83880000000005
20
1.4210854715202004e-13
10
-237.89109999999999
20
-0.030999999999856705
10
-237.92010000000005
20
-0.083999999999910813
10
-237.92010000000005
20
-20.117999999999835
10
-237.89110000000005
20
-20.169999999999852
10
-237.83880000000005
20
-20.198999999999856
10
-227.92100000000005
20
-20.198999999999856
10
-227.91140000000001
20
-20.198999999999856
10
-227.87970000000001
20
-20.184999999999853
10
-227.88380000000006
20
-20.161999999999871
10
-227.90720000000005
20
-20.157999999999845
10
-227.92100000000005
20
-20.189999999999841
10
-227.92100000000005
20
-20.198999999999856
10
-227.92100000000005
20
-47.117999999999824
10
-227.89210000000003
20
-47.171999999999876
10
-227.8383
20
-47.199999999999882
10
-207.92010000000005
20
-47.199999999999882
10
-207.91060000000002
20
-47.199999999999882
10
-207.87880000000004
20
-47.186999999999841
10
-207.88300000000007
20
-47.162999999999862
10
-207.90630000000004
20
-47.158999999999907
10
-207.92010000000005
20
-47.190999999999867
10
-207.92010000000005
20
-47.199999999999882
10
-207.92010000000005
20
-57.117999999999824
10
-207.89120000000003
20
-57.170999999999843
10
-207.83890000000002
20
-57.199999999999882
10
-187.80360000000005
20
-57.199999999999882
10
-187.74970000000008
20
-57.170999999999843
10
-187.72070000000008
20
-57.117999999999824
10
-187.72070000000008
20
-47.199999999999882
10
-187.72070000000008
20
-47.190999999999867
10
-187.73590000000007
20
-47.158999999999907
10
-187.75810000000007
20
-47.162999999999862
10
-187.76380000000006
20
-47.186999999999841
10
-187.73200000000006
20
-47.199999999999882
10
-187.72070000000008
20
-47.199999999999882
10
-167.92000000000004
20
-47.199999999999882
10
-167.91010000000003
20
-47.199999999999882
10
-167.87840000000006
20
-47.186999999999841
10
-167.88260000000005
20
-47.162999999999862
10
-167.90590000000006
20
-47.158999999999907
10
-167.92000000000004
20
-47.190999999999867
10
-167.92000000000004
20
-47.199999999999882
10
-167.92000000000004
20
-57.117999999999824
10
-167.89110000000005
20
-57.170999999999843
10
-167.83850000000004
20
-57.199999999999882
10
-147.80450000000005
20
-57.199999999999882
10
-147.75150000000008
20
-57.170999999999843
10
-147.72050000000004
20
-57.117999999999824
10
-147.72050000000004
20
-47.199999999999882
10
-147.72050000000004
20
-47.190999999999867
10
-147.73550000000006
20
-47.158999999999907
10
-147.75950000000006
20
-47.162999999999862
10
-147.76350000000005
20
-47.186999999999841
10
-147.73150000000007
20
-47.199999999999882
10
-147.72050000000004
20
-47.199999999999882
10
-127.92150000000007
20
-47.199999999999882
10
-127.91150000000007
20
-47.199999999999882
10
-127.87950000000008
20
-47.186999999999841
10
-127.88350000000007
20
-47.162999999999862
10
-127.90750000000008
20
-47.158999999999907
10
-127.92150000000008
20
-47.190999999999867
10
-127.92150000000007
20
-47.199999999999882
10
-127.92150000000008
20
-57.117999999999824
10
-127.89250000000008
20
-57.170999999999843
10
-127.83850000000007
20
-57.199999999999882
10
-107.80450000000009
20
-57.199999999999882
10
-107.7505000000001
20
-57.170999999999843
10
-107.7205000000001
20
-57.117999999999824
10
-107.7205000000001
20
-47.199999999999882
10
-107.72050000000007
20
-47.190999999999867
10
-107.73550000000007
20
-47.158999999999907
10
-107.75850000000008
20
-47.162999999999862
10
-107.76250000000012
20
-47.186999999999841
10
-107.73150000000008
20
-47.199999999999882
10
-107.7205000000001
20
-47.199999999999882
10
-87.920500000000104
20
-47.199999999999882
10
-87.911500000000132
20
-47.199999999999882
10
-87.879500000000093
20
-47.186999999999841
10
-87.883500000000083
20
-47.162999999999862
10
-87.906500000000108
20
-47.158999999999907
10
-87.920500000000104
20
-47.190999999999867
10
-87.920500000000104
20
-47.199999999999882
10
-87.920500000000104
20
-57.117999999999824
10
-87.891500000000093
20
-57.170999999999843
10
-87.838500000000124
20
-57.199999999999882
10
-67.804500000000132
20
-57.199999999999882
10
-67.750500000000102
20
-57.170999999999843
10
-67.71950000000011
20
-57.117999999999824
10
-67.71950000000011
20
-47.199999999999882
10
-67.71950000000011
20
-47.190999999999867
10
-67.735500000000116
20
-47.158999999999907
10
-67.758500000000083
20
-47.162999999999862
10
-67.762500000000117
20
-47.186999999999841
10
-67.731500000000082
20
-47.199999999999882
10
-67.71950000000011
20
-47.199999999999882
10
-47.920500000000111
20
-47.199999999999882
10
-47.910500000000091
20
-47.199999999999882
10
-47.878500000000095
20
-47.186999999999841
10
-47.883500000000083
20
-47.162999999999862
10
-47.906500000000065
20
-47.158999999999907
10
-47.920500000000104
20
-47.190999999999867
10
-47.920500000000111
20
-47.199999999999882
10
-47.920500000000104
20
-57.117999999999824
10
-47.891500000000065
20
-57.170999999999843
10
-47.837500000000084
20
-57.199999999999882
10
-27.803500000000064
20
-57.199999999999882
10
-27.750500000000109
20
-57.170999999999843
10
-27.720500000000108
20
-57.117999999999824
10
-27.720500000000108
20
-47.199999999999882
10
-27.720500000000108
20
-47.190999999999867
10
-27.736500000000071
20
-47.158999999999907
10
-27.75850000000009
20
-47.162999999999862
10
-27.763500000000079
20
-47.186999999999841
10
-27.732500000000115
20
-47.199999999999882
10
-27.720500000000108
20
-47.199999999999882
10
-7.8045000000000968
20
-47.199999999999882
10
-7.750500000000109
20
-47.171999999999876
10
-7.7205000000001078
20
-47.117999999999824
10
-7.7205000000001078
20
-20.198999999999852
10
-7.7205000000001078
20
-20.189999999999841
10
-7.7355000000000729
20
-20.157999999999845
10
-7.7585000000000903
20
-20.161999999999871
10
-7.7625000000001165
20
-20.184999999999853
10
-7.7315000000000822
20
-20.198999999999856
10
-7.7205000000001078
20
-20.198999999999852
10
2.1964999999999399
20
-20.198999999999856
10
2.2504999999998532
20
-20.169999999999852
10
2.2794999999998566
20
-20.117999999999832
10
2.2794999999998562
20
-0.083999999999906372
10
2.2504999999998532
20
-0.030999999999856691
10
2.196499999999908
20
1.4211722076939992e-13
10
-7.7205000000001398
20
1.4210854715202004e-13
10
-7.7315000000000822
20
1.4211288396070998e-13
10
-7.7625000000001165
20
-0.014999999999893984
10
-7.7585000000000903
20
-0.03899999999987358
10
-7.7355000000000729
20
-0.042999999999864265
10
-7.7205000000001078
20
-0.010999999999867784
10
-7.7205000000001398
20
1.4210854715202004e-13
10
-7.7205000000001078
20
19.799000000000152
10
-7.7205000000001078
20
19.809000000000161
10
-7.7355000000000729
20
19.841000000000122
10
-7.7585000000000903
20
19.837000000000131
10
-7.7625000000001165
20
19.813000000000116
10
-7.7315000000000822
20
19.799000000000149
10
-7.7205000000001078
20
19.799000000000152
10
2.1964999999999399
20
19.799000000000149
10
2.2504999999998532
20
19.828000000000117
10
2.2794999999998566
20
19.882000000000133
10
12.279499999999853
20
19.882000000000133
10
12.27949999999975
20
14.499000000000066
10
28.279499999999725
20
14.499000000000066
10
28.279499999999729
20
20.659000000000063
10
18.279499999999768
20
20.659000000000063
10
18.279499999999764
20
26.819000000000059
10
28.279499999999725
20
26.819000000000095
10
28.279499999999729
20
32.979000000000092
10
18.279499999999768
20
32.979000000000092
10
18.279499999999764
20
39.139000000000124
10
28.279499999999725
20
39.139000000000124
10
28.279499999999729
20
45.29900000000012
0
ENDSEC
0
SECTION
2
OBJECTS
0
DICTIONARY
5
C
100
AcDbDictionary
3
ACAD_GROUP
350
D
3
ACAD_MLINESTYLE
350
17
0
DICTIONARY
5
D
100
AcDbDictionary
0
DICTIONARY
5
1A
330
C
100
AcDbDictionary
0
DICTIONARY
5
17
100
AcDbDictionary
0
ENDSEC
0
EOF
