0
SECTION
2
HEADER
9
$INSUNITS
70
4
9
$ACADVER
1
AC1014
9
$HANDSEED
5
FFFF
0
ENDSEC
0
SECTION
2
TABLES
0
TABLE
2
VPORT
5
8
100
AcDbSymbolTable
0
ENDTAB
0
TABLE
2
LTYPE
5
5
100
AcDbSymbolTable
0
LTYPE
5
14
100
AcDbSymbolTableRecord
100
AcDbLinetypeTableRecord
2
BYBLOCK
70
0
0
LTYPE
5
15
100
AcDbSymbolTableRecord
100
AcDbLinetypeTableRecord
2
BYLAYER
70
0
0
LTYPE
5
16
100
AcDbSymbolTableRecord
100
AcDbLinetypeTableRecord
2
DASHED
70
0
3
Dashed __ __ __ __ __ __ __ __ __ __ __ __ __ _
72
65
73
2
40
0.75
49
0.5
74
0
49
-0.25
74
0
0
ENDTAB
0
TABLE
2
LAYER
5
2
100
AcDbSymbolTable
70
2
0
LAYER
5
50
100
AcDbSymbolTableRecord
100
AcDbLayerTableRecord
2
0
70
0
62
7
6
CONTINUOUS
0
ENDTAB
0
TABLE
2
STYLE
5
3
100
AcDbSymbolTable
70
1
0
STYLE
5
11
100
AcDbSymbolTableRecord
100
AcDbTextStyleTableRecord
2
STANDARD
70
0
0
ENDTAB
0
TABLE
2
VIEW
5
6
100
AcDbSymbolTable
70
0
0
ENDTAB
0
TABLE
2
UCS
5
7
100
AcDbSymbolTable
70
0
0
ENDTAB
0
TABLE
2
APPID
5
9
100
AcDbSymbolTable
70
2
0
APPID
5
12
100
AcDbSymbolTableRecord
100
AcDbRegAppTableRecord
2
ACAD
70
0
0
ENDTAB
0
TABLE
2
DIMSTYLE
5
A
100
AcDbSymbolTable
70
1
0
ENDTAB
0
TABLE
2
BLOCK_RECORD
5
1
100
AcDbSymbolTable
70
1
0
BLOCK_RECORD
5
1F
100
AcDbSymbolTableRecord
100
AcDbBlockTableRecord
2
*MODEL_SPACE
0
BLOCK_RECORD
5
1B
100
AcDbSymbolTableRecord
100
AcDbBlockTableRecord
2
*PAPER_SPACE
0
ENDTAB
0
ENDSEC
0
SECTION
2
BLOCKS
0
BLOCK
5
20
100
AcDbEntity
100
AcDbBlockBegin
2
*MODEL_SPACE
0
ENDBLK
5
21
100
AcDbEntity
100
AcDbBlockEnd
0
BLOCK
5
1C
100
AcDbEntity
100
AcDbBlockBegin
2
*PAPER_SPACE
0
ENDBLK
5
1D
100
AcDbEntity
100
AcDbBlockEnd
0
ENDSEC
0
SECTION
2
ENTITIES
0
LWPOLYLINE
5
100
100
AcDbEntity
8
0
100
AcDbPolyline
90
84
70
1
43
0.0
10
-283.10656955092844
20
129.13111977945803
10
-283.10656955092844
20
119.33171977945801
10
-302.90656955092845
20
119.33171977945797
10
-302.90656955092845
20
129.131119779458
10
-323.10656955092844
20
129.13111977945795
10
-323.10656955092844
20
119.33171977945797
10
-342.90656955092845
20
119.33171977945791
10
-342.90656955092845
20
129.13111977945795
10
-388.10656955092844
20
129.13111977945786
10
-388.10656955092838
20
99.114719779457872
10
-388.07756955092833
20
99.060719779457884
10
-388.02456955092845
20
99.031819779457891
10
-378.10556955092841
20
99.031819779457905
10
-378.10556955092841
20
79.230719779457942
10
-388.02456955092839
20
79.2307197794579
10
-388.07756955092827
20
79.201819779457907
10
-388.10656955092838
20
79.149619779457907
10
-388.10656955092838
20
59.115719779457919
10
-388.07756955092827
20
59.061719779457903
10
-388.02456955092839
20
59.031719779457902
10
-378.10556955092835
20
59.031719779457923
10
-378.10556955092835
20
39.232519779457924
10
-388.02456955092839
20
39.23251977945791
10
-388.07756955092827
20
39.203519779457956
10
-388.10656955092838
20
39.14951977945794
10
-388.10656955092838
20
19.115519779457895
10
-388.07756955092822
20
19.061519779457949
10
-388.02456955092828
20
19.031519779457948
10
-378.10556955092829
20
19.031519779457962
10
-378.10556955092829
20
-0.76848022054200271
10
-388.02456955092828
20
-0.7684802205420882
10
-388.07756955092822
20
-0.79748022054197065
10
-388.10656955092833
20
-0.85148022054198691
10
-388.10656955092833
20
-20.885480220542103
10
-388.07756955092816
20
-20.938480220541997
10
-388.02456955092822
20
-20.969480220542032
10
-378.10556955092818
20
-20.969480220542017
10
-378.10556955092818
20
-40.768480220542017
10
-388.02456955092822
20
-40.76848022054206
10
-388.07756955092816
20
-40.797480220542006
10
-388.10656955092827
20
-40.849480220542027
10
-388.10656955092816
20
-70.869480220541959
10
-342.90656955092811
20
-70.869480220541888
10
-342.90656955092811
20
-61.06848022054195
10
-323.10656955092827
20
-61.068480220541915
10
-323.10656955092827
20
-70.86948022054186
10
-302.90656955092811
20
-70.869480220541845
10
-302.90656955092811
20
-61.068480220541915
10
-283.10656955092827
20
-61.068480220541879
10
-283.10656955092827
20
-70.869480220541789
10
-237.90656955092814
20
-70.869480220541746
10
-237.90656955092825
20
-40.849480220541807
10
-237.93556955092822
20
-40.797480220541793
10
-237.98956955092822
20
-40.768480220541825
10
-247.90656955092822
20
-40.768480220541846
10
-247.90656955092825
20
-20.969480220541836
10
-237.98956955092819
20
-20.969480220541804
10
-237.93556955092828
20
-20.938480220541784
10
-237.90656955092825
20
-20.885480220541801
10
-237.90656955092831
20
-0.85148022054175598
10
-237.93556955092828
20
-0.79748022054182865
10
-237.98956955092822
20
-0.76848022054178966
10
-247.90656955092828
20
-0.76848022054187504
10
-247.90656955092831
20
19.031519779458161
10
-237.98956955092825
20
19.031519779458158
10
-237.93556955092828
20
19.061519779458163
10
-237.90656955092831
20
19.115519779458179
10
-237.90656955092831
20
39.149519779458153
10
-237.93556955092836
20
39.203519779458169
10
-237.98956955092831
20
39.232519779458137
10
-247.90656955092834
20
39.232519779458123
10
-247.9065695509284
20
59.031719779458101
10
-237.98956955092834
20
59.031719779458115
10
-237.93556955092836
20
59.061719779458116
10
-237.9065695509284
20
59.115719779458132
10
-237.9065695509284
20
79.149619779458106
10
-237.93556955092842
20
79.201819779458134
10
-237.98956955092837
20
79.230719779458127
10
-247.90656955092842
20
79.230719779458113
10
-247.9065695509284
20
99.03181977945809
10
-237.98956955092842
20
99.031819779458118
10
-237.93556955092842
20
99.060719779458125
10
-237.9065695509284
20
99.114719779458099
10
-237.90656955092845
20
129.13111977945812
0
CIRCLE
5
101
100
AcDbEntity
8
0
100
AcDbCircle
10
-295.80656955092866
20
106.16023563437682
30
0
40
1.4000000000000055
210
3.8518598887744991e-34
220
-2.4651903288156619e-32
230
1
0
ENDSEC
0
SECTION
2
OBJECTS
0
DICTIONARY
5
C
100
AcDbDictionary
3
ACAD_GROUP
350
D
3
ACAD_MLINESTYLE
350
17
0
DICTIONARY
5
D
100
AcDbDictionary
0
DICTIONARY
5
1A
330
C
100
AcDbDictionary
0
DICTIONARY
5
17
100
AcDbDictionary
0
ENDSEC
0
EOF
