0
SECTION
2
HEADER
9
$INSUNITS
70
4
9
$ACADVER
1
AC1014
9
$HANDSEED
5
FFFF
0
ENDSEC
0
SECTION
2
TABLES
0
TABLE
2
VPORT
5
8
100
AcDbSymbolTable
0
ENDTAB
0
TABLE
2
LTYPE
5
5
100
AcDbSymbolTable
0
LTYPE
5
14
100
AcDbSymbolTableRecord
100
AcDbLinetypeTableRecord
2
BYBLOCK
70
0
0
LTYPE
5
15
100
AcDbSymbolTableRecord
100
AcDbLinetypeTableRecord
2
BYLAYER
70
0
0
LTYPE
5
16
100
AcDbSymbolTableRecord
100
AcDbLinetypeTableRecord
2
DASHED
70
0
3
Dashed __ __ __ __ __ __ __ __ __ __ __ __ __ _
72
65
73
2
40
0.75
49
0.5
74
0
49
-0.25
74
0
0
ENDTAB
0
TABLE
2
LAYER
5
2
100
AcDbSymbolTable
70
2
0
LAYER
5
50
100
AcDbSymbolTableRecord
100
AcDbLayerTableRecord
2
0
70
0
62
7
6
CONTINUOUS
0
ENDTAB
0
TABLE
2
STYLE
5
3
100
AcDbSymbolTable
70
1
0
STYLE
5
11
100
AcDbSymbolTableRecord
100
AcDbTextStyleTableRecord
2
STANDARD
70
0
0
ENDTAB
0
TABLE
2
VIEW
5
6
100
AcDbSymbolTable
70
0
0
ENDTAB
0
TABLE
2
UCS
5
7
100
AcDbSymbolTable
70
0
0
ENDTAB
0
TABLE
2
APPID
5
9
100
AcDbSymbolTable
70
2
0
APPID
5
12
100
AcDbSymbolTableRecord
100
AcDbRegAppTableRecord
2
ACAD
70
0
0
ENDTAB
0
TABLE
2
DIMSTYLE
5
A
100
AcDbSymbolTable
70
1
0
ENDTAB
0
TABLE
2
BLOCK_RECORD
5
1
100
AcDbSymbolTable
70
1
0
BLOCK_RECORD
5
1F
100
AcDbSymbolTableRecord
100
AcDbBlockTableRecord
2
*MODEL_SPACE
0
BLOCK_RECORD
5
1B
100
AcDbSymbolTableRecord
100
AcDbBlockTableRecord
2
*PAPER_SPACE
0
ENDTAB
0
ENDSEC
0
SECTION
2
BLOCKS
0
BLOCK
5
20
100
AcDbEntity
100
AcDbBlockBegin
2
*MODEL_SPACE
0
ENDBLK
5
21
100
AcDbEntity
100
AcDbBlockEnd
0
BLOCK
5
1C
100
AcDbEntity
100
AcDbBlockBegin
2
*PAPER_SPACE
0
ENDBLK
5
1D
100
AcDbEntity
100
AcDbBlockEnd
0
ENDSEC
0
SECTION
2
ENTITIES
0
CIRCLE
5
100
100
AcDbEntity
8
0
100
AcDbCircle
10
-47.616444461940588
20
34.397999556796833
30
0
40
1.2500000000000098
210
4.7488851877543442e-32
220
1.8099816965908889e-32
230
1
0
CIRCLE
5
101
100
AcDbEntity
8
0
100
AcDbCircle
10
-61.13847216780232
20
45.784604262410838
30
0
40
1.2500000000000098
210
4.7488851877543442e-32
220
1.8099816965908889e-32
230
1
0
CIRCLE
5
102
100
AcDbEntity
8
0
100
AcDbCircle
10
-72.525076873416324
20
32.262576556549128
30
0
40
1.2500000000000098
210
4.7488851877543442e-32
220
1.8099816965908889e-32
230
1
0
LWPOLYLINE
5
103
100
AcDbEntity
8
0
100
AcDbPolyline
90
4
70
1
43
0.0
10
-50.961788501465186
20
43.88429978337831
10
-49.253450101267021
20
23.957393854197729
10
-69.180356030447626
20
22.249055453999567
10
-70.888694430645785
20
42.175961383180123
0
CIRCLE
5
104
100
AcDbEntity
8
0
100
AcDbCircle
10
-59.003049167554586
20
20.875971850935116
30
0
40
1.249999999999992
210
3.526121168858201e-33
220
-5.0545761924783824e-33
230
1
0
CIRCLE
5
105
100
AcDbEntity
8
0
100
AcDbCircle
10
-115.83029111701548
20
-34.434499581322342
30
0
40
1.5000000000000107
210
1.0578363506574606e-32
220
-1.5163728577435148e-32
230
1
0
CIRCLE
5
106
100
AcDbEntity
8
0
100
AcDbCircle
10
-100.28345818088707
20
-7.6148055924618614
30
0
40
1.5000000000000107
210
1.0578363506574606e-32
220
-1.5163728577435148e-32
230
1
0
CIRCLE
5
107
100
AcDbEntity
8
0
100
AcDbCircle
10
-127.1031521697475
20
7.9320273436665998
30
0
40
1.5000000000000107
210
1.0578363506574606e-32
220
-1.5163728577435148e-32
230
1
0
CIRCLE
5
108
100
AcDbEntity
8
0
100
AcDbCircle
10
-121.46672164338155
20
-13.25123611882778
30
0
40
11.050000000000049
210
3.6910488370968827e-32
220
3.3263545543344036e-32
230
1
0
CIRCLE
5
109
100
AcDbEntity
8
0
100
AcDbCircle
10
-142.64998510587594
20
-18.887666645193896
30
0
40
1.5000000000000107
210
1.0578363506574606e-32
220
-1.5163728577435148e-32
230
1
0
CIRCLE
5
110
100
AcDbEntity
8
0
100
AcDbCircle
10
-34.035770270322388
20
64.868200859704785
30
0
40
1.5000000000000002
210
5.4541094215259852e-32
220
7.9906645809521264e-33
230
1
0
CIRCLE
5
111
100
AcDbEntity
8
0
100
AcDbCircle
10
-158.64031184381585
20
-4.9531973990492357
30
0
40
1.5000000000000002
210
5.4541094215259852e-32
220
7.9906645809521264e-33
230
1
0
CIRCLE
5
112
100
AcDbEntity
8
0
100
AcDbCircle
10
-157.72272876035831
20
66.457501380419075
30
0
40
1.5000000000000047
210
4.7488851877543448e-32
220
1.8099816965908897e-32
230
1
0
CIRCLE
5
113
100
AcDbEntity
8
0
100
AcDbCircle
10
-34.953353353779953
20
-6.5424979197634539
30
0
40
1.5000000000000002
210
5.4541094215259852e-32
220
7.9906645809521264e-33
230
1
0
CIRCLE
5
114
100
AcDbEntity
8
0
100
AcDbCircle
10
-97.255624140526663
20
-41.453197049140456
30
0
40
1.5000000000000002
210
5.4541094215259852e-32
220
7.9906645809521264e-33
230
1
0
CIRCLE
5
115
100
AcDbEntity
8
0
100
AcDbCircle
10
-95.420457973611548
20
101.36820050979597
30
0
40
1.5000000000000047
210
4.7488851877543448e-32
220
1.8099816965908897e-32
230
1
0
CIRCLE
5
116
100
AcDbEntity
8
0
100
AcDbCircle
10
-65.297518777370215
20
83.645722808669362
30
0
40
4.3000000000000229
210
7.0522423377164048e-33
220
-1.0109152384956765e-32
230
1
0
CIRCLE
5
117
100
AcDbEntity
8
0
100
AcDbCircle
10
-65.479386385696515
20
-23.744485889205535
30
0
40
4.3000000000000043
210
3.5261211688582024e-33
220
-5.0545761924783817e-33
230
1
0
CIRCLE
5
118
100
AcDbEntity
8
0
100
AcDbCircle
10
-158.37993450545258
20
30.108078643875309
30
0
40
4.3000000000000229
210
7.0522423377164048e-33
220
-1.0109152384956765e-32
230
1
0
CIRCLE
5
119
100
AcDbEntity
8
0
100
AcDbCircle
10
-96.338041057069162
20
29.957501730327781
30
0
40
75.000000000000369
210
-3.9518833071832237e-33
220
2.4333083529528965e-32
230
1
0
ENDSEC
0
SECTION
2
OBJECTS
0
DICTIONARY
5
C
100
AcDbDictionary
3
ACAD_GROUP
350
D
3
ACAD_MLINESTYLE
350
17
0
DICTIONARY
5
D
100
AcDbDictionary
0
DICTIONARY
5
1A
330
C
100
AcDbDictionary
0
DICTIONARY
5
17
100
AcDbDictionary
0
ENDSEC
0
EOF
