0
SECTION
2
HEADER
9
$INSUNITS
70
4
9
$ACADVER
1
AC1014
9
$HANDSEED
5
FFFF
0
ENDSEC
0
SECTION
2
TABLES
0
TABLE
2
VPORT
5
8
100
AcDbSymbolTable
0
ENDTAB
0
TABLE
2
LTYPE
5
5
100
AcDbSymbolTable
0
LTYPE
5
14
100
AcDbSymbolTableRecord
100
AcDbLinetypeTableRecord
2
BYBLOCK
70
0
0
LTYPE
5
15
100
AcDbSymbolTableRecord
100
AcDbLinetypeTableRecord
2
BYLAYER
70
0
0
LTYPE
5
16
100
AcDbSymbolTableRecord
100
AcDbLinetypeTableRecord
2
DASHED
70
0
3
Dashed __ __ __ __ __ __ __ __ __ __ __ __ __ _
72
65
73
2
40
0.75
49
0.5
74
0
49
-0.25
74
0
0
ENDTAB
0
TABLE
2
LAYER
5
2
100
AcDbSymbolTable
70
2
0
LAYER
5
50
100
AcDbSymbolTableRecord
100
AcDbLayerTableRecord
2
0
70
0
62
7
6
CONTINUOUS
0
ENDTAB
0
TABLE
2
STYLE
5
3
100
AcDbSymbolTable
70
1
0
STYLE
5
11
100
AcDbSymbolTableRecord
100
AcDbTextStyleTableRecord
2
STANDARD
70
0
0
ENDTAB
0
TABLE
2
VIEW
5
6
100
AcDbSymbolTable
70
0
0
ENDTAB
0
TABLE
2
UCS
5
7
100
AcDbSymbolTable
70
0
0
ENDTAB
0
TABLE
2
APPID
5
9
100
AcDbSymbolTable
70
2
0
APPID
5
12
100
AcDbSymbolTableRecord
100
AcDbRegAppTableRecord
2
ACAD
70
0
0
ENDTAB
0
TABLE
2
DIMSTYLE
5
A
100
AcDbSymbolTable
70
1
0
ENDTAB
0
TABLE
2
BLOCK_RECORD
5
1
100
AcDbSymbolTable
70
1
0
BLOCK_RECORD
5
1F
100
AcDbSymbolTableRecord
100
AcDbBlockTableRecord
2
*MODEL_SPACE
0
BLOCK_RECORD
5
1B
100
AcDbSymbolTableRecord
100
AcDbBlockTableRecord
2
*PAPER_SPACE
0
ENDTAB
0
ENDSEC
0
SECTION
2
BLOCKS
0
BLOCK
5
20
100
AcDbEntity
100
AcDbBlockBegin
2
*MODEL_SPACE
0
ENDBLK
5
21
100
AcDbEntity
100
AcDbBlockEnd
0
BLOCK
5
1C
100
AcDbEntity
100
AcDbBlockBegin
2
*PAPER_SPACE
0
ENDBLK
5
1D
100
AcDbEntity
100
AcDbBlockEnd
0
ENDSEC
0
SECTION
2
ENTITIES
0
LWPOLYLINE
5
100
100
AcDbEntity
8
0
100
AcDbPolyline
90
172
70
1
43
0.0
10
-60.067993896484602
20
79.962000360870391
10
-60.081993896484569
20
79.994000360870373
10
-60.081993896484569
20
80.004000360870378
10
-60.081993896484569
20
89.92100036087038
10
-60.053993896484563
20
89.974000360870406
10
-60.000993896484651
20
90.002000360870397
10
-39.964993896484593
20
90.002000360870397
10
-39.91199389648461
20
89.974000360870406
10
-39.882993896484571
20
89.92100036087038
10
-39.882993896484543
20
80.004000360870407
10
-39.882993896484571
20
79.994000360870388
10
-39.896993896484609
20
79.962000360870391
10
-39.920993896484624
20
79.966000360870382
10
-39.924993896484544
20
79.990000360870383
10
-39.892993896484548
20
80.004000360870378
10
-39.882993896484543
20
80.004000360870407
10
-20.081993896484533
20
80.004000360870407
10
-20.070993896484595
20
80.004000360870407
10
-20.03999389648456
20
79.990000360870397
10
-20.044993896484513
20
79.966000360870382
10
-20.066993896484604
20
79.962000360870391
10
-20.081993896484533
20
79.994000360870373
10
-20.081993896484533
20
80.004000360870407
10
-20.081993896484533
20
89.92100036087038
10
-20.052993896484566
20
89.974000360870406
10
-19.999993896484515
20
90.002000360870397
10
0.034006103515409329
20
90.002000360870397
10
0.088006103515354539
20
89.974000360870406
10
0.1170061035154646
20
89.92100036087038
10
0.11700610351546015
20
80.004000360870407
10
0.11700610351546459
20
79.994000360870388
10
0.10300610351542616
20
79.962000360870391
10
0.080006103515373184
20
79.966000360870382
10
0.07600610351545356
20
79.990000360870383
10
0.10700610351541684
20
80.004000360870378
10
0.11700610351546015
20
80.004000360870407
10
19.9160061035154
20
80.004000360870407
10
19.928006103515408
20
80.004000360870407
10
19.959006103515406
20
79.990000360870397
10
19.95500610351538
20
79.966000360870382
10
19.932006103515398
20
79.962000360870391
10
19.9160061035154
20
79.994000360870373
10
19.9160061035154
20
80.004000360870407
10
19.9160061035154
20
89.92100036087038
10
19.947006103515399
20
89.974000360870406
10
20.001006103515412
20
90.002000360870397
10
47.035006103515435
20
90.002000360870397
10
47.089006103515381
20
89.974000360870406
10
47.118006103515384
20
89.921000360870366
10
47.118006103515384
20
69.003000360870388
10
47.118006103515384
20
68.993000360870383
10
47.104006103515452
20
68.961000360870358
10
47.080006103515366
20
68.966000360870382
10
47.076006103515411
20
68.989000360870392
10
47.108006103515407
20
69.003000360870388
10
47.118006103515384
20
69.003000360870388
10
57.0350061035154
20
69.003000360870388
10
57.088006103515383
20
68.974000360870377
10
57.117006103515422
20
68.92100036087038
10
57.117006103515422
20
48.886200360870369
10
57.088006103515383
20
48.832200360870388
10
57.0350061035154
20
48.803300360870381
10
47.118006103515384
20
48.803300360870381
10
47.108006103515407
20
48.803300360870381
10
47.076006103515411
20
48.818500360870388
10
47.080006103515366
20
48.840700360870386
10
47.104006103515452
20
48.846000360870377
10
47.118006103515384
20
48.814600360870379
10
47.118006103515384
20
48.803300360870381
10
47.118006103515384
20
27.88600036087038
10
47.089006103515381
20
27.832400360870373
10
47.035006103515435
20
27.803500360870377
10
20.001006103515415
20
27.803500360870377
10
19.947006103515399
20
27.832400360870373
10
19.9160061035154
20
27.88600036087038
10
19.916006103515404
20
37.802600360870372
10
19.9160061035154
20
37.813500360870371
10
19.932006103515398
20
37.845300360870375
10
19.95500610351538
20
37.841100360870371
10
19.959006103515406
20
37.817800360870365
10
19.928006103515408
20
37.802600360870372
10
19.916006103515404
20
37.802600360870372
10
0.1170061035154646
20
37.802600360870372
10
0.10700610351541684
20
37.802600360870372
10
0.076006103515382492
20
37.817800360870365
10
0.080006103515373184
20
37.841100360870371
10
0.10300610351542616
20
37.845300360870375
10
0.11700610351546459
20
37.813500360870371
10
0.1170061035154646
20
37.802600360870372
10
0.11700610351546459
20
27.88600036087038
10
0.088006103515354539
20
27.832400360870373
10
0.034006103515413777
20
27.803500360870377
10
-19.999993896484511
20
27.803500360870377
10
-20.052993896484566
20
27.832400360870373
10
-20.081993896484533
20
27.88600036087038
10
-20.081993896484565
20
37.802600360870372
10
-20.081993896484533
20
37.813500360870371
10
-20.066993896484604
20
37.845300360870375
10
-20.044993896484513
20
37.841100360870371
10
-20.03999389648456
20
37.817800360870365
10
-20.070993896484595
20
37.802600360870372
10
-20.081993896484565
20
37.802600360870372
10
-39.882993896484571
20
37.802600360870372
10
-39.892993896484548
20
37.802600360870372
10
-39.924993896484544
20
37.817800360870365
10
-39.920993896484624
20
37.841100360870371
10
-39.896993896484609
20
37.845300360870375
10
-39.882993896484571
20
37.813500360870371
10
-39.882993896484571
20
37.802600360870372
10
-39.882993896484571
20
27.88600036087038
10
-39.91199389648461
20
27.832400360870373
10
-39.964993896484586
20
27.803500360870377
10
-60.000993896484651
20
27.803500360870377
10
-60.053993896484563
20
27.832400360870373
10
-60.081993896484569
20
27.88600036087038
10
-60.081993896484569
20
37.802600360870372
10
-60.081993896484569
20
37.813500360870371
10
-60.067993896484602
20
37.845300360870375
10
-60.046993896484615
20
37.841100360870371
10
-60.039993896484596
20
37.817800360870365
10
-60.071993896484592
20
37.802600360870372
10
-60.081993896484569
20
37.802600360870372
10
-79.883993896484611
20
37.802600360870372
10
-79.893993896484659
20
37.802600360870372
10
-79.925993896484641
20
37.817800360870365
10
-79.921993896484651
20
37.841100360870371
10
-79.897993896484564
20
37.845300360870375
10
-79.883993896484611
20
37.813500360870371
10
-79.883993896484611
20
37.802600360870372
10
-79.883993896484611
20
27.886000360870376
10
-79.911993896484688
20
27.83240036087037
10
-79.9649938964846
20
27.803500360870373
10
-106.99799389648459
20
27.803500360870373
10
-107.05499389648455
20
27.83240036087037
10
-107.08299389648457
20
27.886000360870369
10
-107.08299389648457
20
48.803300360870374
10
-107.08299389648457
20
48.814600360870372
10
-107.06899389648459
20
48.84600036087037
10
-107.04399389648461
20
48.840700360870379
10
-107.04099389648459
20
48.818500360870381
10
-107.07199389648463
20
48.803300360870374
10
-107.08299389648457
20
48.803300360870374
10
-116.99899389648462
20
48.803300360870374
10
-117.05199389648467
20
48.832200360870381
10
-117.0839938964846
20
48.886200360870369
10
-117.0839938964846
20
68.92100036087038
10
-117.05199389648467
20
68.974000360870377
10
-116.99899389648462
20
69.003000360870388
10
-107.08299389648457
20
69.003000360870402
10
-107.07199389648463
20
69.003000360870388
10
-107.04099389648459
20
68.989000360870392
10
-107.04399389648461
20
68.966000360870382
10
-107.06899389648459
20
68.961000360870358
10
-107.08299389648457
20
68.993000360870383
10
-107.08299389648457
20
69.003000360870402
10
-107.08299389648457
20
89.92100036087038
10
-107.05499389648455
20
89.974000360870406
10
-106.99799389648459
20
90.002000360870397
10
-79.9649938964846
20
90.002000360870397
10
-79.911993896484688
20
89.974000360870406
10
-79.883993896484611
20
89.92100036087038
10
-79.883993896484611
20
80.004000360870407
10
-79.883993896484611
20
79.994000360870388
10
-79.897993896484564
20
79.962000360870391
10
-79.921993896484651
20
79.966000360870382
10
-79.925993896484641
20
79.990000360870383
10
-79.893993896484659
20
80.004000360870378
10
-79.883993896484611
20
80.004000360870407
10
-60.081993896484569
20
80.004000360870378
10
-60.071993896484592
20
80.004000360870407
10
-60.039993896484596
20
79.990000360870397
10
-60.046993896484615
20
79.966000360870382
0
CIRCLE
5
101
100
AcDbEntity
8
0
100
AcDbCircle
10
20.419015116931689
20
58.903600360870392
30
0
40
12.500000000000002
210
-7.3552092124000216e-34
220
5.9011550173054305e-51
230
1
0
CIRCLE
5
102
100
AcDbEntity
8
0
100
AcDbCircle
10
-29.983493896484639
20
58.903600360870392
30
0
40
12.500000000000002
210
-7.3552092124000216e-34
220
5.9011550173054305e-51
230
1
0
CIRCLE
5
103
100
AcDbEntity
8
0
100
AcDbCircle
10
-80.384002909900801
20
58.903600360870463
30
0
40
12.500000000000002
210
-7.3552092124000216e-34
220
5.9011550173054305e-51
230
1
0
CIRCLE
5
104
100
AcDbEntity
8
0
100
AcDbCircle
10
39.700006103515477
20
45.339100360870418
30
0
40
1.9999999999999978
210
-1.9626053681157872e-34
220
1.5746171428437092e-51
230
1
0
CIRCLE
5
105
100
AcDbEntity
8
0
100
AcDbCircle
10
-99.49899389648462
20
72.502000360870497
30
0
40
1.9999999999999931
210
-1.9626053681158321e-34
220
-1.2325951644078309e-32
230
1
0
CIRCLE
5
106
100
AcDbEntity
8
0
100
AcDbCircle
10
39.5350061035154
20
72.50200036087044
30
0
40
1.9999999999999978
210
-1.9626053681157872e-34
220
1.5746171428437092e-51
230
1
0
CIRCLE
5
107
100
AcDbEntity
8
0
100
AcDbCircle
10
-99.415993896484707
20
45.339100360870468
30
0
40
1.9999999999999931
210
-1.9626053681158321e-34
220
-1.2325951644078309e-32
230
1
0
ENDSEC
0
SECTION
2
OBJECTS
0
DICTIONARY
5
C
100
AcDbDictionary
3
ACAD_GROUP
350
D
3
ACAD_MLINESTYLE
350
17
0
DICTIONARY
5
D
100
AcDbDictionary
0
DICTIONARY
5
1A
330
C
100
AcDbDictionary
0
DICTIONARY
5
17
100
AcDbDictionary
0
ENDSEC
0
EOF
