0
SECTION
2
HEADER
9
$INSUNITS
70
4
9
$ACADVER
1
AC1014
9
$HANDSEED
5
FFFF
0
ENDSEC
0
SECTION
2
TABLES
0
TABLE
2
VPORT
5
8
100
AcDbSymbolTable
0
ENDTAB
0
TABLE
2
LTYPE
5
5
100
AcDbSymbolTable
0
LTYPE
5
14
100
AcDbSymbolTableRecord
100
AcDbLinetypeTableRecord
2
BYBLOCK
70
0
0
LTYPE
5
15
100
AcDbSymbolTableRecord
100
AcDbLinetypeTableRecord
2
BYLAYER
70
0
0
LTYPE
5
16
100
AcDbSymbolTableRecord
100
AcDbLinetypeTableRecord
2
DASHED
70
0
3
Dashed __ __ __ __ __ __ __ __ __ __ __ __ __ _
72
65
73
2
40
0.75
49
0.5
74
0
49
-0.25
74
0
0
ENDTAB
0
TABLE
2
LAYER
5
2
100
AcDbSymbolTable
70
2
0
LAYER
5
50
100
AcDbSymbolTableRecord
100
AcDbLayerTableRecord
2
0
70
0
62
7
6
CONTINUOUS
0
ENDTAB
0
TABLE
2
STYLE
5
3
100
AcDbSymbolTable
70
1
0
STYLE
5
11
100
AcDbSymbolTableRecord
100
AcDbTextStyleTableRecord
2
STANDARD
70
0
0
ENDTAB
0
TABLE
2
VIEW
5
6
100
AcDbSymbolTable
70
0
0
ENDTAB
0
TABLE
2
UCS
5
7
100
AcDbSymbolTable
70
0
0
ENDTAB
0
TABLE
2
APPID
5
9
100
AcDbSymbolTable
70
2
0
APPID
5
12
100
AcDbSymbolTableRecord
100
AcDbRegAppTableRecord
2
ACAD
70
0
0
ENDTAB
0
TABLE
2
DIMSTYLE
5
A
100
AcDbSymbolTable
70
1
0
ENDTAB
0
TABLE
2
BLOCK_RECORD
5
1
100
AcDbSymbolTable
70
1
0
BLOCK_RECORD
5
1F
100
AcDbSymbolTableRecord
100
AcDbBlockTableRecord
2
*MODEL_SPACE
0
BLOCK_RECORD
5
1B
100
AcDbSymbolTableRecord
100
AcDbBlockTableRecord
2
*PAPER_SPACE
0
ENDTAB
0
ENDSEC
0
SECTION
2
BLOCKS
0
BLOCK
5
20
100
AcDbEntity
100
AcDbBlockBegin
2
*MODEL_SPACE
0
ENDBLK
5
21
100
AcDbEntity
100
AcDbBlockEnd
0
BLOCK
5
1C
100
AcDbEntity
100
AcDbBlockBegin
2
*PAPER_SPACE
0
ENDBLK
5
1D
100
AcDbEntity
100
AcDbBlockEnd
0
ENDSEC
0
SECTION
2
ENTITIES
0
CIRCLE
5
100
100
AcDbEntity
8
0
100
AcDbCircle
10
-220.42099407958972
20
45.339100360870432
30
0
40
1.9999999999999931
210
-3.0814879110195774e-33
220
-5.3926038442842604e-33
230
1
0
CIRCLE
5
101
100
AcDbEntity
8
0
100
AcDbCircle
10
-15.664694079589871
20
72.502000360870468
30
0
40
1.9999999999999976
210
-3.0814879110195774e-33
220
7.7037197775489434e-33
230
1
0
CIRCLE
5
102
100
AcDbEntity
8
0
100
AcDbCircle
10
-220.78169407958967
20
72.502000360870454
30
0
40
1.9999999999999931
210
-3.0814879110195774e-33
220
-5.3926038442842604e-33
230
1
0
CIRCLE
5
103
100
AcDbEntity
8
0
100
AcDbCircle
10
-15.30449407958983
20
45.339100360870418
30
0
40
1.9999999999999996
210
-3.0814879110195774e-33
220
1.4637067577342995e-32
230
1
0
LWPOLYLINE
5
104
100
AcDbEntity
8
0
100
AcDbPolyline
90
6
70
1
43
0.0
10
-7.881694079589856
20
68.80100036087039
10
-7.8926940795898304
20
68.80100036087039
10
-7.9236940795898647
20
68.81600036087039
10
-7.9196940795898385
20
68.839000360870386
10
-7.8966940795898211
20
68.844000360870396
10
-7.881694079589856
20
68.8120003608704
0
LWPOLYLINE
5
105
100
AcDbEntity
8
0
100
AcDbPolyline
90
246
70
1
43
0.0
10
-7.881694079589856
20
68.80100036087039
10
2.0353059204101918
20
68.80100036087039
10
2.089305920410105
20
68.831000360870391
10
2.1183059204101085
20
68.885000360870393
10
2.118305920410108
20
89.919000360870385
10
2.089305920410105
20
89.972000360870396
10
2.0353059204101598
20
90.000000360870416
10
-27.999694079589858
20
90.000000360870416
10
-28.052694079589813
20
89.972000360870396
10
-28.081694079589852
20
89.919000360870385
10
-28.081694079589852
20
80.002000360870397
10
-28.081694079589852
20
79.992000360870378
10
-28.068694079589847
20
79.96000036087041
10
-28.044694079589831
20
79.964000360870401
10
-28.040694079589841
20
79.988000360870402
10
-28.072694079589837
20
80.002000360870397
10
-28.081694079589852
20
80.002000360870397
10
-47.881694079589849
20
80.002000360870397
10
-47.89269407958983
20
80.002000360870383
10
-47.924694079589827
20
79.988000360870387
10
-47.918694079589841
20
79.964000360870386
10
-47.896694079589821
20
79.960000360870396
10
-47.881694079589856
20
79.992000360870378
10
-47.881694079589849
20
80.002000360870397
10
-47.881694079589856
20
89.919000360870371
10
-47.911694079589857
20
89.972000360870382
10
-47.964694079589805
20
90.000000360870388
10
-67.999694079589858
20
90.000000360870388
10
-68.053694079589846
20
89.972000360870382
10
-68.082694079589814
20
89.919000360870371
10
-68.082694079589814
20
80.002000360870383
10
-68.082694079589814
20
79.992000360870378
10
-68.068694079589847
20
79.960000360870396
10
-68.044694079589831
20
79.964000360870386
10
-68.040694079589841
20
79.988000360870387
10
-68.072694079589837
20
80.002000360870383
10
-68.082694079589814
20
80.002000360870383
10
-87.881694079589863
20
80.002000360870383
10
-87.892694079589859
20
80.002000360870383
10
-87.924694079589827
20
79.988000360870387
10
-87.918694079589869
20
79.964000360870386
10
-87.897694079589854
20
79.960000360870396
10
-87.881694079589863
20
79.992000360870378
10
-87.881694079589863
20
80.002000360870383
10
-87.881694079589863
20
89.919000360870371
10
-87.910694079589859
20
89.972000360870382
10
-87.964694079589833
20
90.000000360870388
10
-107.99969407958986
20
90.000000360870388
10
-108.05269407958986
20
89.972000360870382
10
-108.08069407958982
20
89.919000360870371
10
-108.08069407958982
20
80.002000360870383
10
-108.08069407958982
20
79.992000360870378
10
-108.06769407958981
20
79.960000360870396
10
-108.04369407958987
20
79.964000360870386
10
-108.03969407958985
20
79.988000360870387
10
-108.07169407958988
20
80.002000360870383
10
-108.08069407958982
20
80.002000360870383
10
-127.88169407958982
20
80.002000360870383
10
-127.89369407958985
20
80.002000360870383
10
-127.92469407958981
20
79.988000360870387
10
-127.91969407958982
20
79.964000360870386
10
-127.89769407958984
20
79.960000360870396
10
-127.88169407958983
20
79.992000360870378
10
-127.88169407958982
20
80.002000360870383
10
-127.88169407958983
20
89.919000360870371
10
-127.91069407958985
20
89.972000360870382
10
-127.96469407958982
20
90.000000360870388
10
-148.00069407958983
20
90.000000360870388
10
-148.0526940795898
20
89.972000360870382
10
-148.08169407958982
20
89.919000360870371
10
-148.08169407958982
20
80.002000360870383
10
-148.08169407958982
20
79.992000360870378
10
-148.06769407958981
20
79.960000360870396
10
-148.04469407958979
20
79.964000360870386
10
-148.0406940795898
20
79.988000360870387
10
-148.0716940795898
20
80.002000360870383
10
-148.08169407958982
20
80.002000360870383
10
-167.88119407958982
20
80.002000360870383
10
-167.89209407958981
20
80.002000360870383
10
-167.92389407958981
20
79.988000360870387
10
-167.9199940795898
20
79.964000360870386
10
-167.89639407958984
20
79.960000360870396
10
-167.88119407958982
20
79.992000360870378
10
-167.88119407958982
20
80.002000360870383
10
-167.88119407958982
20
89.919000360870371
10
-167.9114940795898
20
89.972000360870382
10
-167.96519407958979
20
90.000000360870388
10
-187.99909407958981
20
90.000000360870388
10
-188.05299407958981
20
89.972000360870382
10
-188.0819940795898
20
89.919000360870371
10
-188.0819940795898
20
80.002000360870383
10
-188.0819940795898
20
79.992000360870378
10
-188.0681940795898
20
79.960000360870396
10
-188.04459407958979
20
79.964000360870386
10
-188.0406940795898
20
79.988000360870387
10
-188.0723940795898
20
80.002000360870383
10
-188.0819940795898
20
80.002000360870383
10
-207.88159407958983
20
80.002000360870383
10
-207.8925940795898
20
80.002000360870383
10
-207.9242940795898
20
79.988000360870373
10
-207.92009407958983
20
79.964000360870372
10
-207.89679407958982
20
79.960000360870382
10
-207.88159407958983
20
79.99200036087035
10
-207.88159407958983
20
80.002000360870383
10
-207.88159407958983
20
89.919000360870342
10
-207.91199407958982
20
89.972000360870368
10
-207.96559407958981
20
90.000000360870374
10
-237.99999407958981
20
90.000000360870374
10
-238.05229407958984
20
89.972000360870368
10
-238.08129407958984
20
89.919000360870342
10
-238.08129407958984
20
68.885000360870364
10
-238.05229407958979
20
68.831000360870377
10
-237.99999407958981
20
68.801000360870376
10
-228.08219407958984
20
68.801000360870376
10
-228.07259407958981
20
68.801000360870376
10
-228.0408940795898
20
68.816000360870376
10
-228.04499407958983
20
68.839000360870372
10
-228.06839407958984
20
68.844000360870382
10
-228.08219407958984
20
68.812000360870385
10
-228.08219407958984
20
68.801000360870376
10
-228.08219407958984
20
49.001300360870374
10
-228.08219407958984
20
48.991400360870387
10
-228.06839407958984
20
48.960000360870382
10
-228.04499407958983
20
48.963900360870376
10
-228.0408940795898
20
48.987500360870385
10
-228.07259407958981
20
49.001300360870381
10
-228.08219407958984
20
49.001300360870374
10
-237.99999407958981
20
49.001300360870381
10
-238.05229407958984
20
48.972400360870374
10
-238.08129407958984
20
48.918400360870393
10
-238.08129407958984
20
27.884000360870385
10
-238.05229407958984
20
27.830400360870378
10
-237.99999407958981
20
27.801500360870381
10
-207.96559407958981
20
27.801500360870381
10
-207.91199407958982
20
27.830400360870378
10
-207.88159407958983
20
27.884000360870385
10
-207.88159407958983
20
37.800600360870376
10
-207.88159407958983
20
37.811500360870376
10
-207.89679407958982
20
37.84330036087038
10
-207.92009407958983
20
37.839100360870376
10
-207.9242940795898
20
37.815800360870369
10
-207.8925940795898
20
37.800600360870376
10
-207.88159407958983
20
37.800600360870376
10
-188.0819940795898
20
37.800600360870376
10
-188.0723940795898
20
37.800600360870376
10
-188.0406940795898
20
37.815800360870369
10
-188.04459407958979
20
37.839100360870376
10
-188.0681940795898
20
37.84330036087038
10
-188.0819940795898
20
37.811500360870376
10
-188.0819940795898
20
37.800600360870376
10
-188.0819940795898
20
27.884000360870385
10
-188.05299407958981
20
27.830400360870378
10
-187.99909407958981
20
27.801500360870381
10
-167.96519407958979
20
27.801500360870381
10
-167.9114940795898
20
27.830400360870378
10
-167.88119407958982
20
27.884000360870385
10
-167.88119407958982
20
37.800600360870376
10
-167.88119407958982
20
37.811500360870383
10
-167.89639407958984
20
37.843300360870387
10
-167.9199940795898
20
37.839100360870383
10
-167.92389407958981
20
37.815800360870377
10
-167.89209407958981
20
37.800600360870384
10
-167.88119407958982
20
37.800600360870376
10
-148.08169407958982
20
37.800600360870384
10
-148.0716940795898
20
37.800600360870384
10
-148.0406940795898
20
37.815800360870377
10
-148.04469407958979
20
37.839100360870383
10
-148.06769407958981
20
37.843300360870387
10
-148.08169407958982
20
37.811500360870383
10
-148.08169407958982
20
37.800600360870384
10
-148.08169407958982
20
27.884000360870388
10
-148.0526940795898
20
27.830400360870385
10
-148.00069407958983
20
27.801500360870385
10
-127.9646940795898
20
27.801500360870385
10
-127.91069407958985
20
27.830400360870385
10
-127.88169407958983
20
27.884000360870388
10
-127.88169407958983
20
37.800600360870384
10
-127.88169407958983
20
37.811500360870383
10
-127.89769407958984
20
37.843300360870387
10
-127.91969407958982
20
37.839100360870383
10
-127.92469407958981
20
37.815800360870377
10
-127.89369407958985
20
37.800600360870384
10
-127.88169407958983
20
37.800600360870384
10
-108.0806940795898
20
37.800600360870384
10
-108.07169407958988
20
37.800600360870384
10
-108.03969407958985
20
37.815800360870377
10
-108.04369407958987
20
37.839100360870383
10
-108.06769407958981
20
37.843300360870387
10
-108.08069407958982
20
37.811500360870383
10
-108.0806940795898
20
37.800600360870384
10
-108.08069407958982
20
27.884000360870388
10
-108.05269407958981
20
27.830400360870385
10
-107.99969407958983
20
27.801500360870385
10
-87.964694079589833
20
27.801500360870385
10
-87.910694079589859
20
27.830400360870385
10
-87.881694079589863
20
27.884000360870388
10
-87.881694079589863
20
37.800600360870384
10
-87.881694079589863
20
37.811500360870383
10
-87.897694079589854
20
37.843300360870387
10
-87.918694079589869
20
37.839100360870383
10
-87.924694079589827
20
37.815800360870377
10
-87.892694079589859
20
37.800600360870384
10
-87.881694079589863
20
37.800600360870384
10
-68.082694079589828
20
37.800600360870384
10
-68.072694079589837
20
37.800600360870384
10
-68.040694079589841
20
37.815800360870377
10
-68.044694079589831
20
37.839100360870383
10
-68.068694079589847
20
37.843300360870387
10
-68.082694079589814
20
37.811500360870383
10
-68.082694079589828
20
37.800600360870384
10
-68.082694079589814
20
27.884000360870388
10
-68.053694079589846
20
27.830400360870389
10
-67.999694079589858
20
27.801500360870392
10
-47.964694079589812
20
27.801500360870392
10
-47.911694079589857
20
27.830400360870389
10
-47.881694079589856
20
27.884000360870395
10
-47.881694079589856
20
37.800600360870391
10
-47.881694079589856
20
37.811500360870383
10
-47.896694079589821
20
37.843300360870387
10
-47.918694079589841
20
37.83910036087039
10
-47.924694079589827
20
37.815800360870384
10
-47.89269407958983
20
37.800600360870391
10
-47.881694079589856
20
37.800600360870391
10
-28.081694079589859
20
37.800600360870391
10
-28.072694079589837
20
37.800600360870391
10
-28.040694079589841
20
37.815800360870384
10
-28.044694079589831
20
37.83910036087039
10
-28.068694079589847
20
37.843300360870387
10
-28.081694079589852
20
37.811500360870383
10
-28.081694079589859
20
37.800600360870391
10
-28.081694079589852
20
27.884000360870395
10
-28.052694079589813
20
27.830400360870389
10
-27.99969407958983
20
27.801500360870392
10
2.0353059204101864
20
27.801500360870392
10
2.089305920410105
20
27.830400360870389
10
2.1183059204101085
20
27.884000360870395
10
2.118305920410108
20
48.9184003608704
10
2.089305920410105
20
48.972400360870374
10
2.0353059204101598
20
49.001300360870381
10
-7.881694079589888
20
49.001300360870381
10
-7.8926940795898304
20
49.001300360870381
10
-7.9236940795898647
20
48.987500360870385
10
-7.9196940795898385
20
48.963900360870376
10
-7.8966940795898211
20
48.960000360870382
10
-7.881694079589856
20
48.991400360870387
10
-7.881694079589888
20
49.001300360870381
0
ENDSEC
0
SECTION
2
OBJECTS
0
DICTIONARY
5
C
100
AcDbDictionary
3
ACAD_GROUP
350
D
3
ACAD_MLINESTYLE
350
17
0
DICTIONARY
5
D
100
AcDbDictionary
0
DICTIONARY
5
1A
330
C
100
AcDbDictionary
0
DICTIONARY
5
17
100
AcDbDictionary
0
ENDSEC
0
EOF
