0
SECTION
2
HEADER
9
$INSUNITS
70
4
9
$ACADVER
1
AC1014
9
$HANDSEED
5
FFFF
0
ENDSEC
0
SECTION
2
TABLES
0
TABLE
2
VPORT
5
8
100
AcDbSymbolTable
0
ENDTAB
0
TABLE
2
LTYPE
5
5
100
AcDbSymbolTable
0
LTYPE
5
14
100
AcDbSymbolTableRecord
100
AcDbLinetypeTableRecord
2
BYBLOCK
70
0
0
LTYPE
5
15
100
AcDbSymbolTableRecord
100
AcDbLinetypeTableRecord
2
BYLAYER
70
0
0
LTYPE
5
16
100
AcDbSymbolTableRecord
100
AcDbLinetypeTableRecord
2
DASHED
70
0
3
Dashed __ __ __ __ __ __ __ __ __ __ __ __ __ _
72
65
73
2
40
0.75
49
0.5
74
0
49
-0.25
74
0
0
ENDTAB
0
TABLE
2
LAYER
5
2
100
AcDbSymbolTable
70
2
0
LAYER
5
50
100
AcDbSymbolTableRecord
100
AcDbLayerTableRecord
2
0
70
0
62
7
6
CONTINUOUS
0
ENDTAB
0
TABLE
2
STYLE
5
3
100
AcDbSymbolTable
70
1
0
STYLE
5
11
100
AcDbSymbolTableRecord
100
AcDbTextStyleTableRecord
2
STANDARD
70
0
0
ENDTAB
0
TABLE
2
VIEW
5
6
100
AcDbSymbolTable
70
0
0
ENDTAB
0
TABLE
2
UCS
5
7
100
AcDbSymbolTable
70
0
0
ENDTAB
0
TABLE
2
APPID
5
9
100
AcDbSymbolTable
70
2
0
APPID
5
12
100
AcDbSymbolTableRecord
100
AcDbRegAppTableRecord
2
ACAD
70
0
0
ENDTAB
0
TABLE
2
DIMSTYLE
5
A
100
AcDbSymbolTable
70
1
0
ENDTAB
0
TABLE
2
BLOCK_RECORD
5
1
100
AcDbSymbolTable
70
1
0
BLOCK_RECORD
5
1F
100
AcDbSymbolTableRecord
100
AcDbBlockTableRecord
2
*MODEL_SPACE
0
BLOCK_RECORD
5
1B
100
AcDbSymbolTableRecord
100
AcDbBlockTableRecord
2
*PAPER_SPACE
0
ENDTAB
0
ENDSEC
0
SECTION
2
BLOCKS
0
BLOCK
5
20
100
AcDbEntity
100
AcDbBlockBegin
2
*MODEL_SPACE
0
ENDBLK
5
21
100
AcDbEntity
100
AcDbBlockEnd
0
BLOCK
5
1C
100
AcDbEntity
100
AcDbBlockBegin
2
*PAPER_SPACE
0
ENDBLK
5
1D
100
AcDbEntity
100
AcDbBlockEnd
0
ENDSEC
0
SECTION
2
ENTITIES
0
CIRCLE
5
100
100
AcDbEntity
8
0
100
AcDbCircle
10
-313.0055695509281
20
64.0548
30
0
40
12.499999999999998
210
-3.8891894751259021e-31
220
2.4651903288156605e-32
230
1
0
LWPOLYLINE
5
101
100
AcDbEntity
8
0
100
AcDbPolyline
90
4
70
1
43
0.0
10
-254.3565695509281
20
70.155499999999961
10
-266.65656955092811
20
70.155499999999961
10
-266.65656955092811
20
79.954499999999911
10
-254.3565695509281
20
79.954499999999911
0
LWPOLYLINE
5
102
100
AcDbEntity
8
0
100
AcDbPolyline
90
4
70
1
43
0.0
10
-371.65556955092813
20
70.155499999999961
10
-371.65556955092813
20
79.954499999999911
10
-359.35556955092818
20
79.954499999999911
10
-359.35556955092818
20
70.155499999999961
0
LWPOLYLINE
5
103
100
AcDbEntity
8
0
100
AcDbPolyline
90
44
70
1
43
0.0
10
-388.02256955092815
20
53.955499999999965
10
-378.10556955092818
20
53.955499999999965
10
-378.10556955092818
20
38.039099999999991
10
-378.07656955092807
20
37.985499999999995
10
-378.02356955092819
20
37.955099999999995
10
-343.10556955092818
20
37.955099999999995
10
-343.10556955092818
20
28.038500000000013
10
-343.07656955092807
20
27.984900000000007
10
-343.02256955092815
20
27.956000000000007
10
-322.98856955092816
20
27.956000000000007
10
-322.93556955092811
20
27.984900000000007
10
-322.90556955092813
20
28.03850000000001
10
-322.90556955092813
20
37.955099999999995
10
-303.10556955092818
20
37.955099999999995
10
-303.10556955092818
20
28.038500000000013
10
-303.07656955092807
20
27.984900000000007
10
-303.02456955092805
20
27.956000000000007
10
-282.98856955092816
20
27.956000000000007
10
-282.93456955092807
20
27.984900000000007
10
-282.90656955092811
20
28.03850000000001
10
-282.90656955092811
20
37.955099999999987
10
-247.98756955092813
20
37.955099999999995
10
-247.93456955092807
20
37.985499999999995
10
-247.90656955092814
20
38.039099999999991
10
-247.90656955092814
20
53.955499999999965
10
-237.98956955092817
20
53.955499999999965
10
-237.93356955092818
20
53.985499999999966
10
-237.90556955092819
20
54.039499999999961
10
-237.90556955092819
20
74.073499999999953
10
-237.93356955092818
20
74.127499999999955
10
-237.98956955092819
20
74.156499999999937
10
-247.90656955092817
20
74.156499999999937
10
-247.90656955092814
20
90.073499999999896
10
-247.93456955092807
20
90.126499999999922
10
-247.98756955092813
20
90.154499999999928
10
-378.02356955092819
20
90.154499999999928
10
-378.07656955092807
20
90.126499999999922
10
-378.10556955092807
20
90.073499999999896
10
-378.10556955092818
20
74.156499999999951
10
-388.02256955092815
20
74.156499999999937
10
-388.07656955092807
20
74.127499999999955
10
-388.10556955092807
20
74.073499999999939
10
-388.10556955092818
20
54.039499999999961
10
-388.07656955092807
20
53.985499999999966
0
ENDSEC
0
SECTION
2
OBJECTS
0
DICTIONARY
5
C
100
AcDbDictionary
3
ACAD_GROUP
350
D
3
ACAD_MLINESTYLE
350
17
0
DICTIONARY
5
D
100
AcDbDictionary
0
DICTIONARY
5
1A
330
C
100
AcDbDictionary
0
DICTIONARY
5
17
100
AcDbDictionary
0
ENDSEC
0
EOF
