0
SECTION
2
HEADER
9
$INSUNITS
70
4
9
$ACADVER
1
AC1014
9
$HANDSEED
5
FFFF
0
ENDSEC
0
SECTION
2
TABLES
0
TABLE
2
VPORT
5
8
100
AcDbSymbolTable
0
ENDTAB
0
TABLE
2
LTYPE
5
5
100
AcDbSymbolTable
0
LTYPE
5
14
100
AcDbSymbolTableRecord
100
AcDbLinetypeTableRecord
2
BYBLOCK
70
0
0
LTYPE
5
15
100
AcDbSymbolTableRecord
100
AcDbLinetypeTableRecord
2
BYLAYER
70
0
0
LTYPE
5
16
100
AcDbSymbolTableRecord
100
AcDbLinetypeTableRecord
2
DASHED
70
0
3
Dashed __ __ __ __ __ __ __ __ __ __ __ __ __ _
72
65
73
2
40
0.75
49
0.5
74
0
49
-0.25
74
0
0
ENDTAB
0
TABLE
2
LAYER
5
2
100
AcDbSymbolTable
70
2
0
LAYER
5
50
100
AcDbSymbolTableRecord
100
AcDbLayerTableRecord
2
0
70
0
62
7
6
CONTINUOUS
0
ENDTAB
0
TABLE
2
STYLE
5
3
100
AcDbSymbolTable
70
1
0
STYLE
5
11
100
AcDbSymbolTableRecord
100
AcDbTextStyleTableRecord
2
STANDARD
70
0
0
ENDTAB
0
TABLE
2
VIEW
5
6
100
AcDbSymbolTable
70
0
0
ENDTAB
0
TABLE
2
UCS
5
7
100
AcDbSymbolTable
70
0
0
ENDTAB
0
TABLE
2
APPID
5
9
100
AcDbSymbolTable
70
2
0
APPID
5
12
100
AcDbSymbolTableRecord
100
AcDbRegAppTableRecord
2
ACAD
70
0
0
ENDTAB
0
TABLE
2
DIMSTYLE
5
A
100
AcDbSymbolTable
70
1
0
ENDTAB
0
TABLE
2
BLOCK_RECORD
5
1
100
AcDbSymbolTable
70
1
0
BLOCK_RECORD
5
1F
100
AcDbSymbolTableRecord
100
AcDbBlockTableRecord
2
*MODEL_SPACE
0
BLOCK_RECORD
5
1B
100
AcDbSymbolTableRecord
100
AcDbBlockTableRecord
2
*PAPER_SPACE
0
ENDTAB
0
ENDSEC
0
SECTION
2
BLOCKS
0
BLOCK
5
20
100
AcDbEntity
100
AcDbBlockBegin
2
*MODEL_SPACE
0
ENDBLK
5
21
100
AcDbEntity
100
AcDbBlockEnd
0
BLOCK
5
1C
100
AcDbEntity
100
AcDbBlockBegin
2
*PAPER_SPACE
0
ENDBLK
5
1D
100
AcDbEntity
100
AcDbBlockEnd
0
ENDSEC
0
SECTION
2
ENTITIES
0
CIRCLE
5
100
100
AcDbEntity
8
0
100
AcDbCircle
10
-29.999999999999964
20
59.999999999999844
30
-3.5527136788005009e-14
40
2
210
-9.0688572277422122e-50
220
-1.9388411064876057e-66
230
1
0
CIRCLE
5
101
100
AcDbEntity
8
0
100
AcDbCircle
10
89.999999999999886
20
59.999999999999844
30
-3.5527136788005009e-14
40
2.0000000000000089
210
-1.5171448435708163e-48
220
-3.2435208906063299e-65
230
1
0
LWPOLYLINE
5
102
100
AcDbEntity
8
0
100
AcDbPolyline
90
4
70
1
43
0.0
10
-42.418780220541343
20
70.039799999999858
10
-54.718780220541376
20
70.039799999999858
10
-54.718780220541383
20
79.838899999999825
10
-42.41878022054135
20
79.838899999999825
0
LWPOLYLINE
5
103
100
AcDbEntity
8
0
100
AcDbPolyline
90
4
70
1
43
0.0
10
100.28171977945848
20
79.838899999999853
10
112.58211977945847
20
79.838899999999853
10
112.58211977945848
20
70.039799999999858
10
100.28171977945847
20
70.039799999999858
0
LWPOLYLINE
5
104
100
AcDbEntity
8
0
100
AcDbPolyline
90
60
70
1
43
0.0
10
129.03181977945846
20
73.923199999999838
10
129.03181977945846
20
89.957999999999814
10
129.00281977945846
20
90.010199999999827
10
128.95051977945846
20
90.039099999999834
10
-71.083780220541342
20
90.03909999999982
10
-71.137780220541273
20
90.010199999999813
10
-71.168780220541308
20
89.957999999999814
10
-71.168780220541308
20
73.923199999999852
10
-71.137780220541273
20
73.869199999999864
10
-71.083780220541328
20
73.83879999999985
10
-61.167780220541282
20
73.83879999999985
10
-61.167780220541417
20
54.03919999999988
10
-71.083780220541314
20
54.039199999999866
10
-71.137780220541273
20
54.010299999999873
10
-71.168780220541308
20
53.957999999999878
10
-71.168780220541308
20
37.923099999999891
10
-71.137780220541273
20
37.869399999999899
10
-71.083780220541328
20
37.839099999999895
10
-41.168780220541336
20
37.839099999999895
10
-41.168780220541343
20
27.922699999999907
10
-41.137780220541451
20
27.868999999999915
10
-41.083780220541364
20
27.839999999999915
10
-21.04978022054139
20
27.839999999999915
10
-20.996780220541318
20
27.868999999999915
10
-20.96778022054135
20
27.92269999999991
10
-20.96778022054135
20
37.839099999999902
10
-1.1677802205413279
20
37.839099999999895
10
-1.1677802205413457
20
27.922699999999907
10
-1.1377802205413445
20
27.868999999999915
10
-1.0837802205413993
20
27.839999999999915
10
18.950219779458575
20
27.839999999999915
10
19.004219779458502
20
27.868999999999915
10
19.033219779458541
20
27.92269999999991
10
19.03321977945847
20
37.839099999999902
10
38.832219779458498
20
37.839099999999902
10
38.832219779458498
20
27.922699999999914
10
38.863219779458532
20
27.868999999999915
10
38.916219779458515
20
27.839999999999915
10
58.950219779458486
20
27.839999999999915
10
59.002819779458484
20
27.868999999999915
10
59.031719779458491
20
27.92269999999991
10
59.031719779458491
20
37.839099999999902
10
78.83241977945849
20
37.839099999999902
10
78.83241977945849
20
27.922699999999914
10
78.861419779458487
20
27.868999999999918
10
78.915319779458471
20
27.839999999999918
10
98.950619779458464
20
27.839999999999918
10
99.00291977945848
20
27.868999999999918
10
99.031819779458488
20
27.922699999999914
10
99.031819779458459
20
37.839099999999902
10
128.95051977945843
20
37.839099999999902
10
129.00281977945846
20
37.869399999999906
10
129.03181977945846
20
37.923099999999899
10
129.03181977945846
20
53.957999999999878
10
129.00281977945846
20
54.010299999999873
10
128.95051977945846
20
54.03919999999988
10
119.03271977945849
20
54.039199999999866
10
119.03271977945847
20
73.83879999999985
10
128.95051977945843
20
73.83879999999985
10
129.00281977945846
20
73.869199999999836
0
LWPOLYLINE
5
105
100
AcDbEntity
8
0
100
AcDbPolyline
90
4
70
1
43
0.0
10
-23.216040117689438
20
74.437482732781461
10
83.217040117690203
20
74.437482732781518
10
83.217040117690161
20
49.964984048841465
10
-23.216040117689403
20
49.964984048841423
0
CIRCLE
5
106
100
AcDbEntity
8
0
100
AcDbCircle
10
40.326502841107171
20
46.072996800808809
30
-3.5527136788005009e-14
40
1.9999999999999911
210
-1.9721522630525295e-31
220
-4.2162863300591962e-48
230
1
0
CIRCLE
5
107
100
AcDbEntity
8
0
100
AcDbCircle
10
17.06242678292579
20
46.072996800808809
30
-3.5527136788005009e-14
40
1.9999999999999956
210
-8.0391670792412251e-49
220
-4.9303806576313238e-32
230
1
0
CIRCLE
5
108
100
AcDbEntity
8
0
100
AcDbCircle
10
-39.617999999999718
20
45.339099999999739
30
0
40
2
210
2.9864893124883805e-47
220
6.3848488268459687e-64
230
1
0
CIRCLE
5
109
100
AcDbEntity
8
0
100
AcDbCircle
10
99.416000000000224
20
45.339099999999775
30
0
40
2.0000000000000089
210
-9.1594722291457116e-47
220
-1.9582137887532854e-63
230
1
0
ENDSEC
0
SECTION
2
OBJECTS
0
DICTIONARY
5
C
100
AcDbDictionary
3
ACAD_GROUP
350
D
3
ACAD_MLINESTYLE
350
17
0
DICTIONARY
5
D
100
AcDbDictionary
0
DICTIONARY
5
1A
330
C
100
AcDbDictionary
0
DICTIONARY
5
17
100
AcDbDictionary
0
ENDSEC
0
EOF
