0
SECTION
2
HEADER
9
$INSUNITS
70
4
9
$ACADVER
1
AC1014
9
$HANDSEED
5
FFFF
0
ENDSEC
0
SECTION
2
TABLES
0
TABLE
2
VPORT
5
8
100
AcDbSymbolTable
0
ENDTAB
0
TABLE
2
LTYPE
5
5
100
AcDbSymbolTable
0
LTYPE
5
14
100
AcDbSymbolTableRecord
100
AcDbLinetypeTableRecord
2
BYBLOCK
70
0
0
LTYPE
5
15
100
AcDbSymbolTableRecord
100
AcDbLinetypeTableRecord
2
BYLAYER
70
0
0
LTYPE
5
16
100
AcDbSymbolTableRecord
100
AcDbLinetypeTableRecord
2
DASHED
70
0
3
Dashed __ __ __ __ __ __ __ __ __ __ __ __ __ _
72
65
73
2
40
0.75
49
0.5
74
0
49
-0.25
74
0
0
ENDTAB
0
TABLE
2
LAYER
5
2
100
AcDbSymbolTable
70
2
0
LAYER
5
50
100
AcDbSymbolTableRecord
100
AcDbLayerTableRecord
2
0
70
0
62
7
6
CONTINUOUS
0
ENDTAB
0
TABLE
2
STYLE
5
3
100
AcDbSymbolTable
70
1
0
STYLE
5
11
100
AcDbSymbolTableRecord
100
AcDbTextStyleTableRecord
2
STANDARD
70
0
0
ENDTAB
0
TABLE
2
VIEW
5
6
100
AcDbSymbolTable
70
0
0
ENDTAB
0
TABLE
2
UCS
5
7
100
AcDbSymbolTable
70
0
0
ENDTAB
0
TABLE
2
APPID
5
9
100
AcDbSymbolTable
70
2
0
APPID
5
12
100
AcDbSymbolTableRecord
100
AcDbRegAppTableRecord
2
ACAD
70
0
0
ENDTAB
0
TABLE
2
DIMSTYLE
5
A
100
AcDbSymbolTable
70
1
0
ENDTAB
0
TABLE
2
BLOCK_RECORD
5
1
100
AcDbSymbolTable
70
1
0
BLOCK_RECORD
5
1F
100
AcDbSymbolTableRecord
100
AcDbBlockTableRecord
2
*MODEL_SPACE
0
BLOCK_RECORD
5
1B
100
AcDbSymbolTableRecord
100
AcDbBlockTableRecord
2
*PAPER_SPACE
0
ENDTAB
0
ENDSEC
0
SECTION
2
BLOCKS
0
BLOCK
5
20
100
AcDbEntity
100
AcDbBlockBegin
2
*MODEL_SPACE
0
ENDBLK
5
21
100
AcDbEntity
100
AcDbBlockEnd
0
BLOCK
5
1C
100
AcDbEntity
100
AcDbBlockBegin
2
*PAPER_SPACE
0
ENDBLK
5
1D
100
AcDbEntity
100
AcDbBlockEnd
0
ENDSEC
0
SECTION
2
ENTITIES
0
CIRCLE
5
100
100
AcDbEntity
8
0
100
AcDbCircle
10
28.93251977945857
20
68.826216521457141
30
-7.1054273576010019e-14
40
12.499999999999989
210
6.2253956336926429e-49
220
1.3309342793300006e-65
230
1
0
LWPOLYLINE
5
101
100
AcDbEntity
8
0
100
AcDbPolyline
90
4
70
1
43
0.0
10
-26.356012505758493
20
40.798296010726709
10
-26.356012505758493
20
56.798296010726688
10
-10.356012505758493
20
56.798296010726688
10
-10.356012505758514
20
40.798296010726716
0
LWPOLYLINE
5
102
100
AcDbEntity
8
0
100
AcDbPolyline
90
4
70
1
43
0.0
10
58.643987494241415
20
56.798296010726688
10
74.643987494241415
20
56.798296010726688
10
74.643987494241415
20
40.798296010726716
10
58.643987494241415
20
40.798296010726716
0
LWPOLYLINE
5
103
100
AcDbEntity
8
0
100
AcDbPolyline
90
4
70
1
43
0.0
10
112.58211977945845
20
79.838499999999783
10
112.58211977945845
20
70.039499999999833
10
100.28171977945844
20
70.039499999999833
10
100.28171977945843
20
79.838499999999783
0
LWPOLYLINE
5
104
100
AcDbEntity
8
0
100
AcDbPolyline
90
4
70
1
43
0.0
10
-54.718780220541454
20
70.039499999999833
10
-54.718780220541454
20
79.838499999999783
10
-42.418780220541421
20
79.838499999999783
10
-42.418780220541414
20
70.039499999999833
0
LWPOLYLINE
5
105
100
AcDbEntity
8
0
100
AcDbPolyline
90
60
70
1
43
0.0
10
128.95051977945843
20
73.839499999999816
10
129.00281977945843
20
73.869499999999817
10
129.03181977945843
20
73.922499999999786
10
129.03181977945843
20
89.957499999999783
10
129.00281977945843
20
90.010499999999794
10
128.95051977945843
20
90.0384999999998
10
-71.083780220541414
20
90.0384999999998
10
-71.137780220541345
20
90.010499999999794
10
-71.168780220541379
20
89.957499999999783
10
-71.168780220541379
20
73.9224999999998
10
-71.137780220541345
20
73.869499999999817
10
-71.083780220541399
20
73.839499999999816
10
-61.167780220541353
20
73.839499999999816
10
-61.167780220541417
20
54.03949999999984
10
-71.083780220541385
20
54.039499999999862
10
-71.137780220541345
20
54.010499999999851
10
-71.168780220541379
20
53.957499999999854
10
-71.168780220541379
20
37.92309999999987
10
-71.137780220541345
20
37.869499999999867
10
-71.083780220541399
20
37.83909999999986
10
-41.168780220541407
20
37.83909999999986
10
-41.168780220541414
20
27.922499999999886
10
-41.13778022054138
20
27.868899999999883
10
-41.083780220541435
20
27.839999999999883
10
-21.04978022054139
20
27.839999999999883
10
-20.996780220541389
20
27.868899999999883
10
-20.967780220541421
20
27.922499999999886
10
-20.967780220541421
20
37.83909999999986
10
-1.167780220541399
20
37.83909999999986
10
-1.1677802205414167
20
27.922499999999886
10
-1.1377802205414156
20
27.868899999999883
10
-1.0837802205414704
20
27.839999999999883
10
18.950219779458504
20
27.839999999999883
10
19.00421977945852
20
27.868899999999883
10
19.033219779458488
20
27.922499999999886
10
19.033219779458488
20
37.83909999999986
10
38.832219779458477
20
37.839099999999867
10
38.832219779458477
20
27.922499999999886
10
38.863219779458511
20
27.868899999999886
10
38.916219779458494
20
27.839999999999886
10
58.950219779458465
20
27.839999999999886
10
59.002819779458463
20
27.868899999999886
10
59.03171977945847
20
27.922499999999889
10
59.03171977945847
20
37.839099999999874
10
78.832419779458462
20
37.839099999999867
10
78.832419779458462
20
27.922499999999893
10
78.861419779458473
20
27.868899999999886
10
78.915319779458457
20
27.839999999999886
10
98.950619779458449
20
27.839999999999886
10
99.002919779458438
20
27.868899999999886
10
99.031819779458459
20
27.922499999999889
10
99.031819779458459
20
37.839099999999867
10
128.9505197794584
20
37.839099999999867
10
129.00281977945843
20
37.869499999999874
10
129.03181977945843
20
37.92309999999987
10
129.03181977945843
20
53.957499999999854
10
129.00281977945843
20
54.010499999999851
10
128.95051977945843
20
54.039499999999862
10
119.03271977945846
20
54.039499999999862
10
119.03271977945846
20
73.839499999999816
0
ENDSEC
0
SECTION
2
OBJECTS
0
DICTIONARY
5
C
100
AcDbDictionary
3
ACAD_GROUP
350
D
3
ACAD_MLINESTYLE
350
17
0
DICTIONARY
5
D
100
AcDbDictionary
0
DICTIONARY
5
1A
330
C
100
AcDbDictionary
0
DICTIONARY
5
17
100
AcDbDictionary
0
ENDSEC
0
EOF
