0
SECTION
2
HEADER
9
$INSUNITS
70
4
9
$ACADVER
1
AC1014
9
$HANDSEED
5
FFFF
0
ENDSEC
0
SECTION
2
TABLES
0
TABLE
2
VPORT
5
8
100
AcDbSymbolTable
0
ENDTAB
0
TABLE
2
LTYPE
5
5
100
AcDbSymbolTable
0
LTYPE
5
14
100
AcDbSymbolTableRecord
100
AcDbLinetypeTableRecord
2
BYBLOCK
70
0
0
LTYPE
5
15
100
AcDbSymbolTableRecord
100
AcDbLinetypeTableRecord
2
BYLAYER
70
0
0
LTYPE
5
16
100
AcDbSymbolTableRecord
100
AcDbLinetypeTableRecord
2
DASHED
70
0
3
Dashed __ __ __ __ __ __ __ __ __ __ __ __ __ _
72
65
73
2
40
0.75
49
0.5
74
0
49
-0.25
74
0
0
ENDTAB
0
TABLE
2
LAYER
5
2
100
AcDbSymbolTable
70
2
0
LAYER
5
50
100
AcDbSymbolTableRecord
100
AcDbLayerTableRecord
2
0
70
0
62
7
6
CONTINUOUS
0
ENDTAB
0
TABLE
2
STYLE
5
3
100
AcDbSymbolTable
70
1
0
STYLE
5
11
100
AcDbSymbolTableRecord
100
AcDbTextStyleTableRecord
2
STANDARD
70
0
0
ENDTAB
0
TABLE
2
VIEW
5
6
100
AcDbSymbolTable
70
0
0
ENDTAB
0
TABLE
2
UCS
5
7
100
AcDbSymbolTable
70
0
0
ENDTAB
0
TABLE
2
APPID
5
9
100
AcDbSymbolTable
70
2
0
APPID
5
12
100
AcDbSymbolTableRecord
100
AcDbRegAppTableRecord
2
ACAD
70
0
0
ENDTAB
0
TABLE
2
DIMSTYLE
5
A
100
AcDbSymbolTable
70
1
0
ENDTAB
0
TABLE
2
BLOCK_RECORD
5
1
100
AcDbSymbolTable
70
1
0
BLOCK_RECORD
5
1F
100
AcDbSymbolTableRecord
100
AcDbBlockTableRecord
2
*MODEL_SPACE
0
BLOCK_RECORD
5
1B
100
AcDbSymbolTableRecord
100
AcDbBlockTableRecord
2
*PAPER_SPACE
0
ENDTAB
0
ENDSEC
0
SECTION
2
BLOCKS
0
BLOCK
5
20
100
AcDbEntity
100
AcDbBlockBegin
2
*MODEL_SPACE
0
ENDBLK
5
21
100
AcDbEntity
100
AcDbBlockEnd
0
BLOCK
5
1C
100
AcDbEntity
100
AcDbBlockBegin
2
*PAPER_SPACE
0
ENDBLK
5
1D
100
AcDbEntity
100
AcDbBlockEnd
0
ENDSEC
0
SECTION
2
ENTITIES
0
LWPOLYLINE
5
100
100
AcDbEntity
8
0
100
AcDbPolyline
90
4
70
1
43
0.0
10
23.216040117689758
20
49.964984048841607
10
-83.217040117690019
20
49.964984048841615
10
-83.217040117690033
20
74.437482732781675
10
23.21604011768974
20
74.43748273278166
0
CIRCLE
5
101
100
AcDbEntity
8
0
100
AcDbCircle
10
-17.062426782925542
20
46.072996800808951
30
0
40
1.9999999999999978
210
5.8677100746182498e-48
220
2.4651903288156619e-32
230
1
0
CIRCLE
5
102
100
AcDbEntity
8
0
100
AcDbCircle
10
-40.326502841106979
20
46.072996800808951
30
0
40
1.9999999999999931
210
4.930380657631326e-32
220
2.4651903288156619e-32
230
1
0
CIRCLE
5
103
100
AcDbEntity
8
0
100
AcDbCircle
10
39.452999999999818
20
72.50199999999991
30
0
40
2.0000000000000022
210
4.930380657631326e-32
220
4.9303806576313238e-32
230
1
0
CIRCLE
5
104
100
AcDbEntity
8
0
100
AcDbCircle
10
39.617999999999896
20
45.339099999999902
30
0
40
2.0000000000000022
210
4.930380657631326e-32
220
4.9303806576313238e-32
230
1
0
CIRCLE
5
105
100
AcDbEntity
8
0
100
AcDbCircle
10
-99.499000000000024
20
72.501999999999938
30
0
40
1.9999999999999931
210
4.930380657631326e-32
220
2.4651903288156619e-32
230
1
0
CIRCLE
5
106
100
AcDbEntity
8
0
100
AcDbCircle
10
-99.416000000000111
20
45.339099999999917
30
0
40
2.0000000000000111
210
4.930380657631326e-32
220
2.4651903288156619e-32
230
1
0
LWPOLYLINE
5
107
100
AcDbEntity
8
0
100
AcDbPolyline
90
6
70
1
43
0.0
10
0.18899999999991479
20
80.157199999999946
10
0.18899999999991479
20
80.147599999999954
10
0.17499999999994742
20
80.115899999999954
10
0.15399999999996083
20
80.120099999999923
10
0.14699999999994162
20
80.143399999999929
10
0.1789999999999381
20
80.157199999999946
0
LWPOLYLINE
5
108
100
AcDbEntity
8
0
100
AcDbPolyline
90
166
70
1
43
0.0
10
0.18899999999991479
20
80.157199999999946
10
0.18899999999991482
20
90.075199999999924
10
0.16099999999990899
20
90.127399999999938
10
0.10799999999999699
20
90.156299999999945
10
-19.928000000000065
20
90.156299999999945
10
-19.981000000000044
20
90.127399999999938
10
-20.010000000000083
20
90.075199999999924
10
-20.010000000000083
20
80.157199999999946
10
-20.010000000000083
20
80.147599999999954
10
-19.996000000000045
20
80.115899999999954
10
-19.97200000000003
20
80.120099999999923
10
-19.96800000000011
20
80.143399999999929
10
-20.000000000000107
20
80.157199999999946
10
-20.010000000000083
20
80.157199999999946
10
-39.811000000000092
20
80.157199999999946
10
-39.82200000000006
20
80.157199999999946
10
-39.853000000000094
20
80.143399999999929
10
-39.848000000000141
20
80.120099999999923
10
-39.82600000000005
20
80.115899999999954
10
-39.811000000000121
20
80.147599999999954
10
-39.811000000000092
20
80.157199999999946
10
-39.811000000000121
20
90.075199999999924
10
-39.840000000000089
20
90.127399999999938
10
-39.893000000000143
20
90.156299999999945
10
-59.927000000000064
20
90.156299999999945
10
-59.981000000000009
20
90.127399999999938
10
-60.010000000000119
20
90.075199999999924
10
-60.010000000000119
20
80.157199999999946
10
-60.010000000000119
20
80.147599999999954
10
-59.99600000000008
20
80.115899999999954
10
-59.973000000000027
20
80.120099999999923
10
-59.969000000000108
20
80.143399999999929
10
-60.000000000000071
20
80.157199999999946
10
-60.010000000000119
20
80.157199999999946
10
-79.809000000000125
20
80.157199999999946
10
-79.82100000000014
20
80.157199999999946
10
-79.852000000000132
20
80.143399999999929
10
-79.848000000000098
20
80.120099999999923
10
-79.825000000000131
20
80.115899999999954
10
-79.809000000000125
20
80.147599999999954
10
-79.809000000000125
20
80.157199999999946
10
-79.809000000000125
20
90.075199999999924
10
-79.840000000000117
20
90.127399999999938
10
-79.894000000000148
20
90.156299999999945
10
-106.92800000000017
20
90.156299999999945
10
-106.98200000000011
20
90.127399999999938
10
-107.01100000000011
20
90.075199999999924
10
-107.01100000000011
20
69.156499999999937
10
-107.01100000000011
20
69.146599999999935
10
-106.99700000000018
20
69.11519999999993
10
-106.9730000000001
20
69.119099999999932
10
-106.96900000000014
20
69.142699999999934
10
-107.00100000000013
20
69.156499999999937
10
-107.01100000000011
20
69.156499999999937
10
-116.92800000000013
20
69.156499999999937
10
-116.98100000000011
20
69.12759999999993
10
-117.01000000000015
20
69.074999999999932
10
-117.01000000000015
20
49.039799999999929
10
-116.98100000000011
20
48.986099999999944
10
-116.92800000000013
20
48.95709999999994
10
-107.01100000000011
20
48.95709999999994
10
-107.00100000000013
20
48.95709999999994
10
-106.96900000000014
20
48.972299999999933
10
-106.9730000000001
20
48.994399999999928
10
-106.99700000000018
20
48.99989999999994
10
-107.01100000000011
20
48.968199999999925
10
-107.01100000000011
20
48.95709999999994
10
-107.01100000000011
20
28.039899999999935
10
-106.98200000000011
20
27.986199999999922
10
-106.92800000000017
20
27.957199999999936
10
-79.894000000000148
20
27.957199999999936
10
-79.840000000000117
20
27.986199999999922
10
-79.809000000000125
20
28.039899999999932
10
-79.809000000000125
20
37.956299999999935
10
-79.809000000000125
20
37.967299999999945
10
-79.825000000000131
20
37.998999999999931
10
-79.848000000000098
20
37.99489999999993
10
-79.852000000000132
20
37.971399999999932
10
-79.82100000000014
20
37.956299999999935
10
-79.809000000000125
20
37.956299999999935
10
-60.010000000000119
20
37.956299999999935
10
-60.000000000000071
20
37.956299999999935
10
-59.969000000000037
20
37.971399999999932
10
-59.973000000000027
20
37.99489999999993
10
-59.99600000000008
20
37.998999999999931
10
-60.010000000000119
20
37.967299999999945
10
-60.010000000000119
20
37.956299999999935
10
-60.010000000000119
20
28.039899999999932
10
-59.981000000000009
20
27.986199999999922
10
-59.927000000000064
20
27.957199999999936
10
-39.893000000000136
20
27.957199999999936
10
-39.840000000000089
20
27.986199999999922
10
-39.811000000000121
20
28.039899999999932
10
-39.811000000000121
20
37.956299999999935
10
-39.811000000000121
20
37.967299999999945
10
-39.82600000000005
20
37.998999999999931
10
-39.848000000000141
20
37.99489999999993
10
-39.853000000000094
20
37.971399999999932
10
-39.82200000000006
20
37.956299999999935
10
-39.811000000000121
20
37.956299999999935
10
-20.010000000000115
20
37.956299999999935
10
-20.000000000000107
20
37.956299999999935
10
-19.96800000000011
20
37.971399999999932
10
-19.97200000000003
20
37.99489999999993
10
-19.996000000000045
20
37.998999999999931
10
-20.010000000000083
20
37.967299999999945
10
-20.010000000000115
20
37.956299999999935
10
-20.010000000000083
20
28.039899999999932
10
-19.981000000000044
20
27.986199999999922
10
-19.928000000000061
20
27.957199999999936
10
0.10800000000000143
20
27.957199999999936
10
0.16099999999990899
20
27.986199999999922
10
0.18899999999991479
20
28.039899999999932
10
0.18899999999991482
20
37.956299999999935
10
0.18899999999991479
20
37.967299999999945
10
0.17499999999994742
20
37.998999999999931
10
0.15399999999996083
20
37.99489999999993
10
0.14699999999994162
20
37.971399999999932
10
0.1789999999999381
20
37.956299999999935
10
0.18899999999991482
20
37.956299999999935
10
19.990999999999953
20
37.956299999999935
10
20.000999999999998
20
37.956299999999935
10
20.032999999999994
20
37.971399999999932
10
20.029000000000003
20
37.99489999999993
10
20.004999999999917
20
37.998999999999931
10
19.99099999999995
20
37.967299999999945
10
19.990999999999953
20
37.956299999999935
10
19.99099999999995
20
28.039899999999932
10
20.019000000000027
20
27.986199999999922
10
20.071999999999939
20
27.957199999999936
10
47.104999999999926
20
27.957199999999936
10
47.1619999999999
20
27.986199999999922
10
47.189999999999905
20
28.039899999999932
10
47.189999999999905
20
48.95709999999994
10
47.189999999999905
20
48.968199999999925
10
47.175999999999938
20
48.99989999999994
10
47.150999999999961
20
48.994399999999928
10
47.147999999999932
20
48.972299999999933
10
47.178999999999967
20
48.95709999999994
10
47.189999999999905
20
48.95709999999994
10
57.105999999999959
20
48.95709999999994
10
57.159000000000013
20
48.986099999999944
10
57.190999999999939
20
49.039799999999936
10
57.190999999999939
20
69.074999999999946
10
57.159000000000013
20
69.12759999999993
10
57.105999999999959
20
69.156499999999937
10
47.189999999999905
20
69.156499999999937
10
47.178999999999967
20
69.156499999999937
10
47.147999999999932
20
69.142699999999934
10
47.150999999999961
20
69.119099999999932
10
47.175999999999938
20
69.11519999999993
10
47.189999999999905
20
69.146599999999935
10
47.189999999999905
20
69.156499999999937
10
47.189999999999905
20
90.075199999999924
10
47.1619999999999
20
90.127399999999938
10
47.104999999999926
20
90.156299999999945
10
20.071999999999935
20
90.156299999999945
10
20.019000000000027
20
90.127399999999938
10
19.99099999999995
20
90.075199999999924
10
19.99099999999995
20
80.157199999999946
10
19.99099999999995
20
80.147599999999954
10
20.004999999999917
20
80.115899999999954
10
20.029000000000003
20
80.120099999999923
10
20.032999999999994
20
80.143399999999929
10
20.000999999999998
20
80.157199999999946
10
19.99099999999995
20
80.157199999999946
0
CIRCLE
5
109
100
AcDbEntity
8
0
100
AcDbCircle
10
-89.999999999999829
20
59.999999999999964
30
0
40
2.0000000000000111
210
9.8607613152626563e-32
220
2.4651903288156619e-32
230
1
0
CIRCLE
5
110
100
AcDbEntity
8
0
100
AcDbCircle
10
30.000000000000213
20
59.999999999999964
30
0
40
2.0000000000000022
210
9.8607613152626563e-32
220
4.9303806576313238e-32
230
1
0
ENDSEC
0
SECTION
2
OBJECTS
0
DICTIONARY
5
C
100
AcDbDictionary
3
ACAD_GROUP
350
D
3
ACAD_MLINESTYLE
350
17
0
DICTIONARY
5
D
100
AcDbDictionary
0
DICTIONARY
5
1A
330
C
100
AcDbDictionary
0
DICTIONARY
5
17
100
AcDbDictionary
0
ENDSEC
0
EOF
