0
SECTION
2
HEADER
9
$INSUNITS
70
4
9
$ACADVER
1
AC1014
9
$HANDSEED
5
FFFF
0
ENDSEC
0
SECTION
2
TABLES
0
TABLE
2
VPORT
5
8
100
AcDbSymbolTable
0
ENDTAB
0
TABLE
2
LTYPE
5
5
100
AcDbSymbolTable
0
LTYPE
5
14
100
AcDbSymbolTableRecord
100
AcDbLinetypeTableRecord
2
BYBLOCK
70
0
0
LTYPE
5
15
100
AcDbSymbolTableRecord
100
AcDbLinetypeTableRecord
2
BYLAYER
70
0
0
LTYPE
5
16
100
AcDbSymbolTableRecord
100
AcDbLinetypeTableRecord
2
DASHED
70
0
3
Dashed __ __ __ __ __ __ __ __ __ __ __ __ __ _
72
65
73
2
40
0.75
49
0.5
74
0
49
-0.25
74
0
0
ENDTAB
0
TABLE
2
LAYER
5
2
100
AcDbSymbolTable
70
2
0
LAYER
5
50
100
AcDbSymbolTableRecord
100
AcDbLayerTableRecord
2
0
70
0
62
7
6
CONTINUOUS
0
ENDTAB
0
TABLE
2
STYLE
5
3
100
AcDbSymbolTable
70
1
0
STYLE
5
11
100
AcDbSymbolTableRecord
100
AcDbTextStyleTableRecord
2
STANDARD
70
0
0
ENDTAB
0
TABLE
2
VIEW
5
6
100
AcDbSymbolTable
70
0
0
ENDTAB
0
TABLE
2
UCS
5
7
100
AcDbSymbolTable
70
0
0
ENDTAB
0
TABLE
2
APPID
5
9
100
AcDbSymbolTable
70
2
0
APPID
5
12
100
AcDbSymbolTableRecord
100
AcDbRegAppTableRecord
2
ACAD
70
0
0
ENDTAB
0
TABLE
2
DIMSTYLE
5
A
100
AcDbSymbolTable
70
1
0
ENDTAB
0
TABLE
2
BLOCK_RECORD
5
1
100
AcDbSymbolTable
70
1
0
BLOCK_RECORD
5
1F
100
AcDbSymbolTableRecord
100
AcDbBlockTableRecord
2
*MODEL_SPACE
0
BLOCK_RECORD
5
1B
100
AcDbSymbolTableRecord
100
AcDbBlockTableRecord
2
*PAPER_SPACE
0
ENDTAB
0
ENDSEC
0
SECTION
2
BLOCKS
0
BLOCK
5
20
100
AcDbEntity
100
AcDbBlockBegin
2
*MODEL_SPACE
0
ENDBLK
5
21
100
AcDbEntity
100
AcDbBlockEnd
0
BLOCK
5
1C
100
AcDbEntity
100
AcDbBlockBegin
2
*PAPER_SPACE
0
ENDBLK
5
1D
100
AcDbEntity
100
AcDbBlockEnd
0
ENDSEC
0
SECTION
2
ENTITIES
0
LWPOLYLINE
5
100
100
AcDbEntity
8
0
100
AcDbPolyline
90
326
70
1
43
0.0
10
228.28170000000006
20
59.883000000000131
10
238.19870000000009
20
59.883000000000131
10
238.25170000000003
20
59.912000000000134
10
238.28070000000008
20
59.966000000000115
10
238.28070000000008
20
80.000000000000114
10
238.25170000000003
20
80.053000000000125
10
238.19870000000006
20
80.084000000000117
10
228.28170000000003
20
80.084000000000117
10
228.2717000000001
20
80.084000000000117
10
228.23970000000006
20
80.068000000000126
10
228.24370000000002
20
80.045000000000144
10
228.26770000000013
20
80.041000000000111
10
228.28170000000006
20
80.073000000000121
10
228.28170000000003
20
80.084000000000117
10
228.28170000000006
20
106.99900000000012
10
228.25270000000006
20
107.05300000000011
10
228.19870000000009
20
107.08300000000011
10
208.28070000000008
20
107.08300000000011
10
208.27070000000009
20
107.08300000000011
10
208.23870000000002
20
107.06800000000014
10
208.24370000000002
20
107.04500000000013
10
208.2667000000001
20
107.04100000000011
10
208.28070000000011
20
107.07300000000012
10
208.28070000000008
20
107.08300000000011
10
208.28070000000011
20
117.00000000000011
10
208.25170000000003
20
117.05400000000012
10
208.19870000000009
20
117.08300000000011
10
188.16370000000006
20
117.08300000000011
10
188.11070000000004
20
117.05400000000012
10
188.08170000000007
20
117.00000000000011
10
188.08170000000007
20
107.08300000000011
10
188.08170000000007
20
107.07300000000012
10
188.09670000000008
20
107.04100000000011
10
188.11870000000002
20
107.04500000000013
10
188.12370000000004
20
107.06800000000014
10
188.09270000000015
20
107.08300000000011
10
188.08170000000007
20
107.08300000000011
10
168.28070000000008
20
107.08300000000011
10
168.27070000000009
20
107.08300000000011
10
168.23870000000011
20
107.06800000000014
10
168.2427000000001
20
107.04500000000013
10
168.2667000000001
20
107.04100000000011
10
168.28070000000008
20
107.07300000000012
10
168.28070000000008
20
107.08300000000011
10
168.28070000000008
20
117.00000000000011
10
168.25170000000003
20
117.05400000000012
10
168.19870000000012
20
117.08300000000011
10
148.16370000000018
20
117.08300000000011
10
148.10970000000009
20
117.05400000000012
10
148.08070000000012
20
117.00000000000011
10
148.08070000000012
20
107.08300000000011
10
148.08070000000012
20
107.07300000000012
10
148.09570000000011
20
107.04100000000011
10
148.1187000000001
20
107.04500000000013
10
148.12370000000013
20
107.06800000000014
10
148.09170000000006
20
107.08300000000011
10
148.08070000000012
20
107.08300000000011
10
128.28170000000011
20
107.08300000000011
10
128.27070000000012
20
107.08300000000011
10
128.23970000000014
20
107.06800000000014
10
128.24270000000004
20
107.04500000000013
10
128.26770000000008
20
107.04100000000011
10
128.28170000000011
20
107.07300000000012
10
128.28170000000011
20
107.08300000000011
10
128.28170000000011
20
117.00000000000011
10
128.24970000000013
20
117.05400000000012
10
128.19670000000013
20
117.08300000000011
10
108.16670000000009
20
117.08300000000011
10
108.10970000000012
20
117.05400000000012
10
108.08170000000011
20
117.00000000000011
10
108.08170000000011
20
107.08300000000011
10
108.08170000000011
20
107.07300000000012
10
108.09570000000015
20
107.04100000000011
10
108.12070000000013
20
107.04500000000013
10
108.12370000000016
20
107.06800000000014
10
108.09170000000009
20
107.08300000000011
10
108.08170000000011
20
107.08300000000011
10
88.279700000000147
20
107.08300000000011
10
88.2697000000001
20
107.08300000000011
10
88.241700000000094
20
107.06800000000014
10
88.244700000000122
20
107.04500000000013
10
88.265700000000109
20
107.04100000000011
10
88.279700000000147
20
107.07300000000012
10
88.279700000000147
20
107.08300000000011
10
88.279700000000147
20
117.00000000000011
10
88.251700000000071
20
117.05400000000012
10
88.198700000000159
20
117.08300000000011
10
68.164700000000181
20
117.08300000000011
10
68.111700000000113
20
117.05400000000012
10
68.079700000000116
20
117.00000000000011
10
68.079700000000116
20
107.08300000000011
10
68.079700000000116
20
107.07300000000012
10
68.094700000000117
20
107.04100000000011
10
68.118700000000132
20
107.04500000000013
10
68.122700000000123
20
107.06800000000014
10
68.090700000000126
20
107.08300000000011
10
68.079700000000116
20
107.08300000000011
10
48.282700000000112
20
107.08300000000011
10
48.271700000000095
20
107.08300000000011
10
48.239700000000099
20
107.06800000000014
10
48.24370000000016
20
107.04500000000013
10
48.267700000000104
20
107.04100000000011
10
48.282700000000105
20
107.07300000000012
10
48.282700000000112
20
107.08300000000011
10
48.282700000000105
20
117.00000000000011
10
48.250700000000109
20
117.05400000000012
10
48.197700000000125
20
117.08300000000011
10
28.163700000000141
20
117.08300000000011
10
28.11070000000008
20
117.05400000000012
10
28.081700000000112
20
117.00000000000011
10
28.081700000000112
20
107.08300000000011
10
28.081700000000112
20
107.07300000000012
10
28.096700000000112
20
107.04100000000011
10
28.117700000000028
20
107.04500000000013
10
28.124700000000118
20
107.06800000000014
10
28.09270000000005
20
107.08300000000011
10
28.081700000000112
20
107.08300000000011
10
8.1647000000001739
20
107.08300000000011
10
8.1117000000001127
20
107.05300000000011
10
8.0797000000001162
20
106.99900000000012
10
8.0797000000001162
20
80.084000000000117
10
8.0797000000001162
20
80.073000000000121
10
8.0977000000000743
20
80.041000000000111
10
8.1187000000001319
20
80.045000000000144
10
8.1217000000000894
20
80.068000000000126
10
8.0907000000001261
20
80.084000000000117
10
8.0797000000001162
20
80.084000000000117
10
-1.8372999999998962
20
80.084000000000117
10
-1.8902999999998471
20
80.053000000000125
10
-1.9182999999998529
20
80.000000000000114
10
-1.9182999999998531
20
59.966000000000115
10
-1.8902999999998471
20
59.912000000000134
10
-1.837299999999864
20
59.883000000000131
10
8.0797000000001482
20
59.883000000000131
10
8.0907000000001261
20
59.883000000000131
10
8.1217000000000894
20
59.897000000000133
10
8.1187000000001319
20
59.920000000000115
10
8.0977000000000743
20
59.924000000000106
10
8.0797000000001162
20
59.892000000000145
10
8.0797000000001482
20
59.883000000000131
10
8.0797000000001162
20
40.083000000000126
10
8.0797000000001162
20
40.072000000000152
10
8.0977000000000743
20
40.041000000000118
10
8.1187000000001319
20
40.045000000000144
10
8.1217000000000894
20
40.068000000000126
10
8.0907000000001261
20
40.083000000000126
10
8.0797000000001162
20
40.083000000000126
10
-1.8372999999998962
20
40.083000000000126
10
-1.8902999999998471
20
40.053000000000125
10
-1.9182999999998529
20
39.999000000000109
10
-1.9182999999998531
20
19.965000000000114
10
-1.8902999999998471
20
19.911000000000065
10
-1.837299999999864
20
19.882000000000097
10
8.0797000000001482
20
19.882000000000097
10
8.0907000000001261
20
19.882000000000097
10
8.1217000000000894
20
19.896000000000065
10
8.1187000000001319
20
19.92000000000008
10
8.0977000000000743
20
19.924000000000071
10
8.0797000000001162
20
19.89200000000011
10
8.0797000000001482
20
19.882000000000097
10
8.0797000000001162
20
0.083000000000086338
10
8.0797000000001162
20
0.072000000000080902
10
8.0977000000000743
20
0.040000000000084412
10
8.1187000000001319
20
0.04400000000007509
10
8.1217000000000894
20
0.068000000000054683
10
8.0907000000001261
20
0.083000000000090779
10
8.0797000000001162
20
0.083000000000086338
10
-1.8372999999998962
20
0.083000000000090779
10
-1.8902999999998471
20
0.052000000000091966
10
-1.9182999999998529
20
-0.00099999999996215096
10
-1.9182999999998531
20
-20.034999999999886
10
-1.8902999999998471
20
-20.086999999999904
10
-1.837299999999864
20
-20.115999999999907
10
8.0797000000001482
20
-20.115999999999907
10
8.0907000000001261
20
-20.115999999999907
10
8.1217000000000894
20
-20.101999999999904
10
8.1187000000001319
20
-20.078999999999922
10
8.0977000000000743
20
-20.074999999999896
10
8.0797000000001162
20
-20.106999999999893
10
8.0797000000001482
20
-20.115999999999907
10
8.0797000000001162
20
-47.034999999999876
10
8.1117000000001127
20
-47.088999999999928
10
8.1647000000001668
20
-47.116999999999933
10
28.081700000000104
20
-47.116999999999933
10
28.09270000000005
20
-47.116999999999933
10
28.124700000000118
20
-47.103999999999893
10
28.117700000000028
20
-47.079999999999913
10
28.096700000000112
20
-47.075999999999958
10
28.081700000000112
20
-47.107999999999919
10
28.081700000000104
20
-47.116999999999933
10
28.081700000000112
20
-57.034999999999876
10
28.11070000000008
20
-57.087999999999894
10
28.163700000000134
20
-57.116999999999933
10
48.197700000000118
20
-57.116999999999933
10
48.250700000000109
20
-57.087999999999894
10
48.282700000000105
20
-57.034999999999876
10
48.282700000000105
20
-47.116999999999933
10
48.282700000000105
20
-47.107999999999919
10
48.267700000000104
20
-47.075999999999958
10
48.24370000000016
20
-47.079999999999913
10
48.239700000000099
20
-47.103999999999893
10
48.271700000000095
20
-47.116999999999933
10
48.282700000000105
20
-47.116999999999933
10
68.079700000000102
20
-47.116999999999933
10
68.090700000000126
20
-47.116999999999933
10
68.122700000000123
20
-47.103999999999893
10
68.118700000000132
20
-47.079999999999913
10
68.094700000000117
20
-47.075999999999958
10
68.079700000000116
20
-47.107999999999919
10
68.079700000000102
20
-47.116999999999933
10
68.079700000000116
20
-57.034999999999876
10
68.111700000000113
20
-57.087999999999894
10
68.164700000000167
20
-57.116999999999933
10
88.198700000000159
20
-57.116999999999933
10
88.251700000000071
20
-57.087999999999894
10
88.279700000000147
20
-57.034999999999876
10
88.279700000000147
20
-47.116999999999933
10
88.279700000000147
20
-47.107999999999919
10
88.265700000000109
20
-47.075999999999958
10
88.244700000000122
20
-47.079999999999913
10
88.241700000000094
20
-47.103999999999893
10
88.2697000000001
20
-47.116999999999933
10
88.279700000000147
20
-47.116999999999933
10
108.08170000000011
20
-47.116999999999933
10
108.09170000000009
20
-47.116999999999933
10
108.12370000000016
20
-47.103999999999893
10
108.12070000000013
20
-47.079999999999913
10
108.09570000000015
20
-47.075999999999958
10
108.08170000000011
20
-47.107999999999919
10
108.08170000000011
20
-47.116999999999933
10
108.08170000000011
20
-57.034999999999876
10
108.10970000000012
20
-57.087999999999894
10
108.16670000000009
20
-57.116999999999933
10
128.19670000000016
20
-57.116999999999933
10
128.24970000000013
20
-57.087999999999894
10
128.28170000000011
20
-57.034999999999876
10
128.28170000000011
20
-47.116999999999933
10
128.28170000000011
20
-47.107999999999919
10
128.26770000000008
20
-47.075999999999958
10
128.24270000000004
20
-47.079999999999913
10
128.23970000000014
20
-47.103999999999893
10
128.27070000000012
20
-47.116999999999933
10
128.28170000000011
20
-47.116999999999933
10
148.08070000000012
20
-47.116999999999933
10
148.09170000000006
20
-47.116999999999933
10
148.12370000000013
20
-47.103999999999893
10
148.1187000000001
20
-47.079999999999913
10
148.09570000000011
20
-47.075999999999958
10
148.08070000000012
20
-47.107999999999919
10
148.08070000000012
20
-47.116999999999933
10
148.08070000000012
20
-57.034999999999876
10
148.10970000000009
20
-57.087999999999894
10
148.16370000000018
20
-57.116999999999933
10
168.19870000000012
20
-57.116999999999933
10
168.25170000000003
20
-57.087999999999894
10
168.28070000000008
20
-57.034999999999876
10
168.28070000000008
20
-47.116999999999933
10
168.28070000000008
20
-47.107999999999919
10
168.2667000000001
20
-47.075999999999958
10
168.2427000000001
20
-47.079999999999913
10
168.23870000000011
20
-47.103999999999893
10
168.27070000000009
20
-47.116999999999933
10
168.28070000000008
20
-47.116999999999933
10
188.08170000000007
20
-47.116999999999933
10
188.09270000000015
20
-47.116999999999933
10
188.12370000000004
20
-47.103999999999893
10
188.11870000000002
20
-47.079999999999913
10
188.09670000000008
20
-47.075999999999958
10
188.08170000000007
20
-47.107999999999919
10
188.08170000000007
20
-47.116999999999933
10
188.08170000000007
20
-57.034999999999876
10
188.11070000000004
20
-57.087999999999894
10
188.16370000000009
20
-57.116999999999933
10
208.19870000000012
20
-57.116999999999933
10
208.2517
20
-57.087999999999894
10
208.28070000000008
20
-57.034999999999876
10
208.28070000000011
20
-47.116999999999933
10
208.28070000000008
20
-47.107999999999919
10
208.26670000000007
20
-47.075999999999958
10
208.24370000000005
20
-47.079999999999913
10
208.23870000000002
20
-47.103999999999893
10
208.27070000000009
20
-47.116999999999933
10
208.28070000000011
20
-47.116999999999933
10
228.19870000000012
20
-47.116999999999933
10
228.25270000000003
20
-47.088999999999928
10
228.28170000000003
20
-47.034999999999876
10
228.28170000000006
20
-20.115999999999904
10
228.28170000000003
20
-20.106999999999893
10
228.2677000000001
20
-20.074999999999896
10
228.24370000000005
20
-20.078999999999922
10
228.23970000000008
20
-20.101999999999904
10
228.2717000000001
20
-20.115999999999907
10
228.28170000000006
20
-20.115999999999904
10
238.19870000000009
20
-20.115999999999907
10
238.25170000000003
20
-20.086999999999904
10
238.28070000000008
20
-20.034999999999883
10
238.28070000000008
20
-0.00099999999995770139
10
238.25170000000003
20
0.05200000000009198
10
238.19870000000006
20
0.083000000000090779
10
228.28170000000003
20
0.083000000000090779
10
228.2717000000001
20
0.083000000000090779
10
228.23970000000006
20
0.068000000000054683
10
228.24370000000002
20
0.04400000000007509
10
228.26770000000013
20
0.040000000000084406
10
228.28170000000006
20
0.072000000000080888
10
228.28170000000003
20
0.083000000000090779
10
228.28170000000006
20
19.882000000000101
10
228.28170000000003
20
19.89200000000011
10
228.2677000000001
20
19.924000000000071
10
228.24370000000005
20
19.92000000000008
10
228.23970000000008
20
19.896000000000065
10
228.2717000000001
20
19.882000000000097
10
228.28170000000006
20
19.882000000000101
10
238.19870000000009
20
19.882000000000097
10
238.25170000000003
20
19.911000000000065
10
238.28070000000008
20
19.965000000000082
10
238.28070000000008
20
39.99900000000008
10
238.25170000000003
20
40.053000000000125
10
238.19870000000006
20
40.083000000000126
10
228.28170000000003
20
40.083000000000126
10
228.2717000000001
20
40.083000000000126
10
228.23970000000006
20
40.068000000000126
10
228.24370000000002
20
40.045000000000144
10
228.26770000000013
20
40.041000000000118
10
228.28170000000006
20
40.072000000000152
10
228.28170000000003
20
40.083000000000126
0
LWPOLYLINE
5
101
100
AcDbEntity
8
0
100
AcDbPolyline
90
6
70
1
43
0.0
10
228.28170000000006
20
59.883000000000131
10
228.2717000000001
20
59.883000000000131
10
228.23970000000008
20
59.897000000000133
10
228.24370000000005
20
59.920000000000115
10
228.2677000000001
20
59.924000000000106
10
228.28170000000003
20
59.892000000000145
0
CIRCLE
5
102
100
AcDbEntity
8
0
100
AcDbCircle
10
96.400000000000034
20
30.000000000000178
30
0
40
5.1500000000000066
210
-9.6162256138894664e-68
220
3.8518598887744717e-34
230
1
0
CIRCLE
5
103
100
AcDbEntity
8
0
100
AcDbCircle
10
174.00870800318222
20
65.381242689123241
30
0
40
0.81217500000001075
210
6.1629758220391561e-33
220
-3.8518598887744726e-34
230
1
0
LWPOLYLINE
5
104
100
AcDbEntity
8
0
100
AcDbPolyline
90
4
70
1
43
0.0
10
175.50899331252577
20
54.93838560201123
10
179.47661914403574
20
59.666817940782735
42
-0.99999998946328783
10
182.54079688942016
20
57.095667469750104
10
178.57317108500166
20
52.367235163265029
42
-0.99999999999999989
0
LWPOLYLINE
5
105
100
AcDbEntity
8
0
100
AcDbPolyline
90
4
70
1
43
0.0
10
185.99999999999997
20
41.300000000000132
10
208.99999999999983
20
41.300000000000175
42
-0.99999999999999989
10
208.99999999999991
20
18.700000000000177
10
185.99999999999997
20
18.700000000000152
42
-0.99999999999999989
0
LWPOLYLINE
5
106
100
AcDbEntity
8
0
100
AcDbPolyline
90
4
70
1
43
0.0
10
176.5
20
47.000000000000135
10
186.49999999999991
20
47.000000000000135
42
-0.99999999999999989
10
186.49999999999991
20
44.000000000000163
10
176.49999999999991
20
44.000000000000163
42
-0.99999999999999989
0
CIRCLE
5
107
100
AcDbEntity
8
0
100
AcDbCircle
10
170.04108219876369
20
-0.65281038263780289
30
0
40
1.0000000000000147
210
-9.6162256138894697e-68
220
3.8518598887744717e-34
230
1
0
CIRCLE
5
108
100
AcDbEntity
8
0
100
AcDbCircle
10
170.04108219876369
20
60.652810382638158
30
0
40
0.81217500000001075
210
6.1629758220391561e-33
220
-3.8518598887744726e-34
230
1
0
LWPOLYLINE
5
109
100
AcDbEntity
8
0
100
AcDbPolyline
90
4
70
1
43
0.0
10
176.5
20
16.000000000000121
10
186.50000000000003
20
16.000000000000043
42
-0.99999999999999989
10
186.49999999999994
20
13.000000000000158
10
176.5
20
13.000000000000149
42
-0.99999999999999989
0
LWPOLYLINE
5
110
100
AcDbEntity
8
0
100
AcDbPolyline
90
4
70
1
43
0.0
10
207.5
20
47.000000000000135
10
217.5
20
47.000000000000156
42
-0.99999999999999989
10
217.49999999999994
20
44.000000000000142
10
207.49999999999994
20
44.000000000000163
42
-0.99999999999999989
0
LWPOLYLINE
5
111
100
AcDbEntity
8
0
100
AcDbPolyline
90
4
70
1
43
0.0
10
207.5
20
16.000000000000121
10
217.49999999999994
20
16.000000000000028
42
-0.99999999999999989
10
217.49999999999994
20
13.000000000000171
10
207.5
20
13.000000000000149
42
-0.99999999999999989
0
LWPOLYLINE
5
112
100
AcDbEntity
8
0
100
AcDbPolyline
90
4
70
1
43
0.0
10
179.47661911694428
20
0.33318209150397848
10
175.50899328543426
20
5.0616144302754149
42
-0.99999998946328783
10
178.5731710850016
20
7.6327648367353262
10
182.54079688942025
20
2.9043325302501555
42
-0.99999999999999989
0
CIRCLE
5
113
100
AcDbEntity
8
0
100
AcDbCircle
10
174.00870800318222
20
-5.3812426891229137
30
0
40
1.0000000000000147
210
-9.6162256138894697e-68
220
3.8518598887744717e-34
230
1
0
LWPOLYLINE
5
114
100
AcDbEntity
8
0
100
AcDbPolyline
90
4
70
1
43
0.0
10
37.36938224031325
20
102.57644957437148
42
0.068979649872949994
10
25.615472807647109
20
90.539545277112239
42
1.0000000074505806
10
30.443187857545205
20
86.976798107162153
42
-0.068979649872949994
10
41.045957701866335
20
97.834847221210097
42
0.99999999999999989
0
LWPOLYLINE
5
115
100
AcDbEntity
8
0
100
AcDbPolyline
90
4
70
1
43
0.0
10
25.615472807647066
20
-30.539545277111799
42
0.06897964987295091
10
37.369382240313193
20
-42.576449574371047
42
0.99999999999999989
10
41.045957701866342
20
-37.834847221209728
42
-0.068979649872950882
10
30.443187857545212
20
-26.976798107161763
42
1.0000000074505806
0
ENDSEC
0
SECTION
2
OBJECTS
0
DICTIONARY
5
C
100
AcDbDictionary
3
ACAD_GROUP
350
D
3
ACAD_MLINESTYLE
350
17
0
DICTIONARY
5
D
100
AcDbDictionary
0
DICTIONARY
5
1A
330
C
100
AcDbDictionary
0
DICTIONARY
5
17
100
AcDbDictionary
0
ENDSEC
0
EOF
