0
SECTION
2
HEADER
9
$INSUNITS
70
4
9
$ACADVER
1
AC1014
9
$HANDSEED
5
FFFF
0
ENDSEC
0
SECTION
2
TABLES
0
TABLE
2
VPORT
5
8
100
AcDbSymbolTable
0
ENDTAB
0
TABLE
2
LTYPE
5
5
100
AcDbSymbolTable
0
LTYPE
5
14
100
AcDbSymbolTableRecord
100
AcDbLinetypeTableRecord
2
BYBLOCK
70
0
0
LTYPE
5
15
100
AcDbSymbolTableRecord
100
AcDbLinetypeTableRecord
2
BYLAYER
70
0
0
LTYPE
5
16
100
AcDbSymbolTableRecord
100
AcDbLinetypeTableRecord
2
DASHED
70
0
3
Dashed __ __ __ __ __ __ __ __ __ __ __ __ __ _
72
65
73
2
40
0.75
49
0.5
74
0
49
-0.25
74
0
0
ENDTAB
0
TABLE
2
LAYER
5
2
100
AcDbSymbolTable
70
2
0
LAYER
5
50
100
AcDbSymbolTableRecord
100
AcDbLayerTableRecord
2
0
70
0
62
7
6
CONTINUOUS
0
ENDTAB
0
TABLE
2
STYLE
5
3
100
AcDbSymbolTable
70
1
0
STYLE
5
11
100
AcDbSymbolTableRecord
100
AcDbTextStyleTableRecord
2
STANDARD
70
0
0
ENDTAB
0
TABLE
2
VIEW
5
6
100
AcDbSymbolTable
70
0
0
ENDTAB
0
TABLE
2
UCS
5
7
100
AcDbSymbolTable
70
0
0
ENDTAB
0
TABLE
2
APPID
5
9
100
AcDbSymbolTable
70
2
0
APPID
5
12
100
AcDbSymbolTableRecord
100
AcDbRegAppTableRecord
2
ACAD
70
0
0
ENDTAB
0
TABLE
2
DIMSTYLE
5
A
100
AcDbSymbolTable
70
1
0
ENDTAB
0
TABLE
2
BLOCK_RECORD
5
1
100
AcDbSymbolTable
70
1
0
BLOCK_RECORD
5
1F
100
AcDbSymbolTableRecord
100
AcDbBlockTableRecord
2
*MODEL_SPACE
0
BLOCK_RECORD
5
1B
100
AcDbSymbolTableRecord
100
AcDbBlockTableRecord
2
*PAPER_SPACE
0
ENDTAB
0
ENDSEC
0
SECTION
2
BLOCKS
0
BLOCK
5
20
100
AcDbEntity
100
AcDbBlockBegin
2
*MODEL_SPACE
0
ENDBLK
5
21
100
AcDbEntity
100
AcDbBlockEnd
0
BLOCK
5
1C
100
AcDbEntity
100
AcDbBlockBegin
2
*PAPER_SPACE
0
ENDBLK
5
1D
100
AcDbEntity
100
AcDbBlockEnd
0
ENDSEC
0
SECTION
2
ENTITIES
0
CIRCLE
5
100
100
AcDbEntity
8
0
100
AcDbCircle
10
22.420674180984999
20
-253.17132747173258
30
0
40
1.5000000000000033
210
7.7037197775489434e-34
220
-1.2325951644078309e-32
230
1
0
CIRCLE
5
101
100
AcDbEntity
8
0
100
AcDbCircle
10
-9.6793258190149967
20
-110.0713274717327
30
0
40
1.4999999999999856
210
1.007834123372838e-78
220
-1.2325951644078309e-32
230
1
0
CIRCLE
5
102
100
AcDbEntity
8
0
100
AcDbCircle
10
-9.6793258190150073
20
-174.27132747173266
30
0
40
1.5000000000000033
210
7.7037197775489434e-34
220
-1.2325951644078309e-32
230
1
0
CIRCLE
5
103
100
AcDbEntity
8
0
100
AcDbCircle
10
-9.6793258190150517
20
-285.27132747173266
30
0
40
1.5000000000000033
210
7.7037197775489434e-34
220
-1.2325951644078309e-32
230
1
0
CIRCLE
5
104
100
AcDbEntity
8
0
100
AcDbCircle
10
-9.6793258190150429
20
-221.07132747173264
30
0
40
1.4999999999999856
210
1.007834123372838e-78
220
-1.2325951644078309e-32
230
1
0
CIRCLE
5
105
100
AcDbEntity
8
0
100
AcDbCircle
10
22.420674180985039
20
-142.1713274717327
30
0
40
1.5000000000000033
210
7.7037197775489434e-34
220
-1.2325951644078309e-32
230
1
0
CIRCLE
5
106
100
AcDbEntity
8
0
100
AcDbCircle
10
-41.779325819014986
20
-142.1713274717327
30
0
40
1.4999999999999856
210
1.007834123372838e-78
220
-1.2325951644078309e-32
230
1
0
CIRCLE
5
107
100
AcDbEntity
8
0
100
AcDbCircle
10
-41.77932581901505
20
-253.17132747173258
30
0
40
1.4999999999999856
210
1.007834123372838e-78
220
-1.2325951644078309e-32
230
1
0
LWPOLYLINE
5
108
100
AcDbEntity
8
0
100
AcDbPolyline
90
4
70
1
43
0.0
10
19.320674180984788
20
-199.17132747173272
10
-3.179325819015161
20
-199.17132747173275
42
-0.99999999999999989
10
-3.1793258190151255
20
-196.17132747173272
10
19.320674180984778
20
-196.17132747173275
42
-0.99999999999999989
0
LWPOLYLINE
5
109
100
AcDbEntity
8
0
100
AcDbPolyline
90
4
70
1
43
0.0
10
-16.179325819015119
20
-199.17132747173272
10
-38.679325819015084
20
-199.17132747173284
42
-0.99999999999999989
10
-38.679325819015112
20
-196.17132747173264
10
-16.179325819015126
20
-196.17132747173275
42
-0.99999999999999989
0
LWPOLYLINE
5
110
100
AcDbEntity
8
0
100
AcDbPolyline
90
8
70
1
43
0.0
10
-17.579325819014965
20
-92.171327471732752
42
0.41421356237309515
10
-49.679325819014991
20
-124.27132747173273
10
-49.679325819015041
20
-271.07132747173267
42
0.41421356237309387
10
-17.579325819015047
20
-303.17132747173264
10
-1.7793258190150718
20
-303.1713274717327
42
0.41421356237309531
10
30.320674180984927
20
-271.07132747173262
10
30.320674180985002
20
-124.27132747173273
42
0.41421356237309459
10
-1.7793258190149848
20
-92.171327471732781
0
CIRCLE
5
111
100
AcDbEntity
8
0
100
AcDbCircle
10
-9.6793258190150393
20
-253.1713274717327
30
0
40
27.600000000000001
210
-7.9541477772343511e-48
220
-1.8488927466117467e-32
230
1
0
CIRCLE
5
112
100
AcDbEntity
8
0
100
AcDbCircle
10
-9.5089195776209881
20
-142.17132747173275
30
0
40
27.599999999999998
210
-7.7037197775489451e-34
220
6.1629758220391561e-33
230
1
0
CIRCLE
5
113
100
AcDbEntity
8
0
100
AcDbCircle
10
-17.579325819015047
20
-298.67132747173264
30
0
40
1.50000000000001
210
5.0391706168641901e-79
220
-6.1629758220391547e-33
230
1
0
CIRCLE
5
114
100
AcDbEntity
8
0
100
AcDbCircle
10
25.820674180984962
20
-189.77132747173266
30
0
40
1.4999999999999856
210
1.007834123372838e-78
220
-1.2325951644078309e-32
230
1
0
CIRCLE
5
115
100
AcDbEntity
8
0
100
AcDbCircle
10
-45.179325819015013
20
-189.77132747173269
30
0
40
1.5000000000000033
210
7.7037197775489434e-34
220
-1.2325951644078309e-32
230
1
0
CIRCLE
5
116
100
AcDbEntity
8
0
100
AcDbCircle
10
-1.7793258190150523
20
-298.67132747173264
30
0
40
1.4999999999999978
210
-7.7037197775489434e-34
220
1.2325951644078309e-32
230
1
0
CIRCLE
5
117
100
AcDbEntity
8
0
100
AcDbCircle
10
25.820674180984962
20
-205.57132747173262
30
0
40
1.5000000000000033
210
7.7037197775489434e-34
220
-1.2325951644078309e-32
230
1
0
CIRCLE
5
118
100
AcDbEntity
8
0
100
AcDbCircle
10
-45.179325819015006
20
-205.57132747173267
30
0
40
1.5000000000000033
210
7.7037197775489434e-34
220
-1.2325951644078309e-32
230
1
0
CIRCLE
5
119
100
AcDbEntity
8
0
100
AcDbCircle
10
17.535524000132245
20
-214.51429596384224
30
0
40
0.99999999999999845
210
-2.734723510778822e-63
220
-6.1629758220391547e-33
230
1
0
CIRCLE
5
120
100
AcDbEntity
8
0
100
AcDbCircle
10
-32.73845418353973
20
-219.46834758889312
30
0
40
0.99999999999999623
210
-1.0938894043115288e-62
220
-2.4651903288156619e-32
230
1
0
CIRCLE
5
121
100
AcDbEntity
8
0
100
AcDbCircle
10
13.357404537169749
20
-219.49358484411559
30
0
40
0.99999999999999845
210
-2.734723510778822e-63
220
-6.1629758220391547e-33
230
1
0
CIRCLE
5
122
100
AcDbEntity
8
0
100
AcDbCircle
10
-36.916573646503863
20
-214.48905870861782
30
0
40
0.99999999999999623
210
-1.0938894043115288e-62
220
-2.4651903288156619e-32
230
1
0
ENDSEC
0
SECTION
2
OBJECTS
0
DICTIONARY
5
C
100
AcDbDictionary
3
ACAD_GROUP
350
D
3
ACAD_MLINESTYLE
350
17
0
DICTIONARY
5
D
100
AcDbDictionary
0
DICTIONARY
5
1A
330
C
100
AcDbDictionary
0
DICTIONARY
5
17
100
AcDbDictionary
0
ENDSEC
0
EOF
