0
SECTION
2
HEADER
9
$INSUNITS
70
4
9
$ACADVER
1
AC1014
9
$HANDSEED
5
FFFF
0
ENDSEC
0
SECTION
2
TABLES
0
TABLE
2
VPORT
5
8
100
AcDbSymbolTable
0
ENDTAB
0
TABLE
2
LTYPE
5
5
100
AcDbSymbolTable
0
LTYPE
5
14
100
AcDbSymbolTableRecord
100
AcDbLinetypeTableRecord
2
BYBLOCK
70
0
0
LTYPE
5
15
100
AcDbSymbolTableRecord
100
AcDbLinetypeTableRecord
2
BYLAYER
70
0
0
LTYPE
5
16
100
AcDbSymbolTableRecord
100
AcDbLinetypeTableRecord
2
DASHED
70
0
3
Dashed __ __ __ __ __ __ __ __ __ __ __ __ __ _
72
65
73
2
40
0.75
49
0.5
74
0
49
-0.25
74
0
0
ENDTAB
0
TABLE
2
LAYER
5
2
100
AcDbSymbolTable
70
2
0
LAYER
5
50
100
AcDbSymbolTableRecord
100
AcDbLayerTableRecord
2
0
70
0
62
7
6
CONTINUOUS
0
ENDTAB
0
TABLE
2
STYLE
5
3
100
AcDbSymbolTable
70
1
0
STYLE
5
11
100
AcDbSymbolTableRecord
100
AcDbTextStyleTableRecord
2
STANDARD
70
0
0
ENDTAB
0
TABLE
2
VIEW
5
6
100
AcDbSymbolTable
70
0
0
ENDTAB
0
TABLE
2
UCS
5
7
100
AcDbSymbolTable
70
0
0
ENDTAB
0
TABLE
2
APPID
5
9
100
AcDbSymbolTable
70
2
0
APPID
5
12
100
AcDbSymbolTableRecord
100
AcDbRegAppTableRecord
2
ACAD
70
0
0
ENDTAB
0
TABLE
2
DIMSTYLE
5
A
100
AcDbSymbolTable
70
1
0
ENDTAB
0
TABLE
2
BLOCK_RECORD
5
1
100
AcDbSymbolTable
70
1
0
BLOCK_RECORD
5
1F
100
AcDbSymbolTableRecord
100
AcDbBlockTableRecord
2
*MODEL_SPACE
0
BLOCK_RECORD
5
1B
100
AcDbSymbolTableRecord
100
AcDbBlockTableRecord
2
*PAPER_SPACE
0
ENDTAB
0
ENDSEC
0
SECTION
2
BLOCKS
0
BLOCK
5
20
100
AcDbEntity
100
AcDbBlockBegin
2
*MODEL_SPACE
0
ENDBLK
5
21
100
AcDbEntity
100
AcDbBlockEnd
0
BLOCK
5
1C
100
AcDbEntity
100
AcDbBlockBegin
2
*PAPER_SPACE
0
ENDBLK
5
1D
100
AcDbEntity
100
AcDbBlockEnd
0
ENDSEC
0
SECTION
2
ENTITIES
0
LWPOLYLINE
5
100
100
AcDbEntity
8
0
100
AcDbPolyline
90
43
70
1
43
0.0
10
370.42756955092847
20
111.08416977945791
10
370.52356955092841
20
110.89256977945792
10
370.53356955092846
20
110.85126977945791
10
370.54756955092847
20
110.8099697794579
10
370.57256955092845
20
110.59766977945792
10
370.54756955092847
20
110.38546977945792
10
370.53356955092846
20
110.34416977945793
10
370.52356955092841
20
110.30276977945789
10
370.42756955092847
20
110.1112697794579
10
370.29356955092845
20
109.94586977945789
10
370.26256955092839
20
109.9169697794579
10
370.23056955092835
20
109.88936977945791
10
370.0465695509285
20
109.77916977945793
10
369.84256955092854
20
109.71296977945791
10
369.79956955092837
20
109.70606977945789
10
369.75756955092839
20
109.70056977945788
10
369.54256955092853
20
109.70746977945791
10
369.33756955092855
20
109.7611697794579
10
369.29956955092842
20
109.77916977945789
10
369.26056955092838
20
109.79706977945793
10
369.08356955092847
20
109.91836977945792
10
368.93956955092841
20
110.0754697794579
10
368.91456955092843
20
110.1112697794579
10
368.88956955092846
20
110.14846977945791
10
368.80856955092844
20
110.34416977945793
10
368.76956955092845
20
110.53436977945793
10
368.76956955092845
20
110.6610697794579
10
368.80856955092844
20
110.85126977945791
10
368.88956955092846
20
111.04836977945791
10
368.91456955092843
20
111.08416977945791
10
368.93956955092841
20
111.12136977945792
10
369.08356955092847
20
111.27846977945791
10
369.26056955092838
20
111.39836977945791
10
369.29956955092842
20
111.41626977945791
10
369.33756955092855
20
111.4341697794579
10
369.54256955092853
20
111.48926977945791
10
369.75756955092839
20
111.49476977945793
10
369.79956955092837
20
111.48796977945793
10
369.84256955092854
20
111.48246977945789
10
370.0465695509285
20
111.41626977945791
10
370.23056955092835
20
111.30606977945791
10
370.26256955092839
20
111.27706977945792
10
370.29356955092845
20
111.24946977945794
0
LWPOLYLINE
5
101
100
AcDbEntity
8
0
100
AcDbPolyline
90
31
70
1
43
0.0
10
352.93056955092845
20
118.86596977945794
10
352.93356955092838
20
118.86036977945791
10
377.93556955092839
20
93.860069779457902
10
377.93856955092843
20
93.855769779457916
10
377.98756955092847
20
93.831069779457934
10
378.02356955092841
20
93.831069779457891
10
378.07656955092847
20
93.860069779457902
10
378.10456955092837
20
93.913669779457905
10
378.10456955092837
20
100.08056977945787
10
388.02056955092843
20
100.08056977945786
10
388.07356955092848
20
100.11086977945787
10
388.10556955092841
20
100.16456977945786
10
388.10556955092841
20
112.69926977945785
10
388.07356955092848
20
112.75156977945787
10
388.02056955092843
20
112.78046977945789
10
378.10456955092837
20
112.7804697794579
10
378.10456955092837
20
118.94856977945787
10
378.07656955092847
20
119.00236977945788
10
378.02356955092841
20
119.03126977945789
10
371.85356955092851
20
119.0312697794579
10
371.85356955092851
20
128.94906977945789
10
371.8245695509284
20
129.00136977945789
10
371.77256955092849
20
129.03036977945791
10
359.23756955092847
20
129.03036977945791
10
359.18456955092842
20
129.00136977945792
10
359.15356955092841
20
128.94906977945791
10
359.15356955092841
20
119.03126977945792
10
352.98656955092844
20
119.03126977945794
10
352.93356955092838
20
119.00236977945792
10
352.90556955092848
20
118.9485697794579
10
352.90556955092848
20
118.91416977945792
0
ENDSEC
0
SECTION
2
OBJECTS
0
DICTIONARY
5
C
100
AcDbDictionary
3
ACAD_GROUP
350
D
3
ACAD_MLINESTYLE
350
17
0
DICTIONARY
5
D
100
AcDbDictionary
0
DICTIONARY
5
1A
330
C
100
AcDbDictionary
0
DICTIONARY
5
17
100
AcDbDictionary
0
ENDSEC
0
EOF
