0
SECTION
2
HEADER
9
$INSUNITS
70
4
9
$ACADVER
1
AC1014
9
$HANDSEED
5
FFFF
0
ENDSEC
0
SECTION
2
TABLES
0
TABLE
2
VPORT
5
8
100
AcDbSymbolTable
0
ENDTAB
0
TABLE
2
LTYPE
5
5
100
AcDbSymbolTable
0
LTYPE
5
14
100
AcDbSymbolTableRecord
100
AcDbLinetypeTableRecord
2
BYBLOCK
70
0
0
LTYPE
5
15
100
AcDbSymbolTableRecord
100
AcDbLinetypeTableRecord
2
BYLAYER
70
0
0
LTYPE
5
16
100
AcDbSymbolTableRecord
100
AcDbLinetypeTableRecord
2
DASHED
70
0
3
Dashed __ __ __ __ __ __ __ __ __ __ __ __ __ _
72
65
73
2
40
0.75
49
0.5
74
0
49
-0.25
74
0
0
ENDTAB
0
TABLE
2
LAYER
5
2
100
AcDbSymbolTable
70
2
0
LAYER
5
50
100
AcDbSymbolTableRecord
100
AcDbLayerTableRecord
2
0
70
0
62
7
6
CONTINUOUS
0
ENDTAB
0
TABLE
2
STYLE
5
3
100
AcDbSymbolTable
70
1
0
STYLE
5
11
100
AcDbSymbolTableRecord
100
AcDbTextStyleTableRecord
2
STANDARD
70
0
0
ENDTAB
0
TABLE
2
VIEW
5
6
100
AcDbSymbolTable
70
0
0
ENDTAB
0
TABLE
2
UCS
5
7
100
AcDbSymbolTable
70
0
0
ENDTAB
0
TABLE
2
APPID
5
9
100
AcDbSymbolTable
70
2
0
APPID
5
12
100
AcDbSymbolTableRecord
100
AcDbRegAppTableRecord
2
ACAD
70
0
0
ENDTAB
0
TABLE
2
DIMSTYLE
5
A
100
AcDbSymbolTable
70
1
0
ENDTAB
0
TABLE
2
BLOCK_RECORD
5
1
100
AcDbSymbolTable
70
1
0
BLOCK_RECORD
5
1F
100
AcDbSymbolTableRecord
100
AcDbBlockTableRecord
2
*MODEL_SPACE
0
BLOCK_RECORD
5
1B
100
AcDbSymbolTableRecord
100
AcDbBlockTableRecord
2
*PAPER_SPACE
0
ENDTAB
0
ENDSEC
0
SECTION
2
BLOCKS
0
BLOCK
5
20
100
AcDbEntity
100
AcDbBlockBegin
2
*MODEL_SPACE
0
ENDBLK
5
21
100
AcDbEntity
100
AcDbBlockEnd
0
BLOCK
5
1C
100
AcDbEntity
100
AcDbBlockBegin
2
*PAPER_SPACE
0
ENDBLK
5
1D
100
AcDbEntity
100
AcDbBlockEnd
0
ENDSEC
0
SECTION
2
ENTITIES
0
LWPOLYLINE
5
100
100
AcDbEntity
8
0
100
AcDbPolyline
90
12
70
1
43
0.0
10
247.90656955092834
20
119.03271977945808
10
247.90656955092811
20
-61.002580220541788
10
247.93556955092811
20
-61.055580220541756
10
247.9885695509281
20
-61.084580220541795
10
378.02456955092805
20
-61.08458022054198
10
378.07756955092816
20
-61.055580220541898
10
378.10556955092812
20
-61.002580220541915
10
378.10556955092841
20
119.03271977945789
10
378.07756955092833
20
119.08501977945789
10
378.02456955092839
20
119.11401977945789
10
247.98856955092833
20
119.11401977945809
10
247.93556955092834
20
119.08501977945809
0
LWPOLYLINE
5
101
100
AcDbEntity
8
0
100
AcDbPolyline
90
43
70
1
43
0.0
10
256.73356955092834
20
109.3382197794581
10
256.43756955092834
20
109.28171977945807
10
256.24056955092834
20
109.28171977945807
10
255.94556955092833
20
109.33821977945806
10
255.63856955092831
20
109.46771977945809
10
255.5825695509283
20
109.50361977945809
10
255.52556955092831
20
109.5407197794581
10
255.28156955092834
20
109.76401977945807
10
255.0945695509283
20
110.03821977945806
10
255.06556955092833
20
110.09891977945807
10
255.03756955092831
20
110.16081977945808
10
254.95356955092831
20
110.48191977945807
10
254.94356955092832
20
110.81411977945807
10
254.95356955092831
20
110.88021977945806
10
254.96356955092836
20
110.9477197794581
10
255.06656955092831
20
111.26331977945809
10
255.23756955092836
20
111.54851977945809
10
255.28056955092836
20
111.59821977945809
10
255.32456955092835
20
111.64911977945808
10
255.5825695509283
20
111.85861977945807
10
255.88056955092833
20
112.00611977945806
10
255.94456955092829
20
112.02401977945806
10
256.00856955092831
20
112.04331977945807
10
256.33956955092833
20
112.08181977945807
10
256.66956955092837
20
112.04331977945807
10
256.7325695509283
20
112.02401977945806
10
256.79756955092836
20
112.00611977945806
10
257.09656955092834
20
111.85861977945807
10
257.35256955092837
20
111.64911977945808
10
257.39656955092835
20
111.59821977945809
10
257.44056955092833
20
111.54851977945809
10
257.61256955092836
20
111.26331977945809
10
257.71456955092833
20
110.94771977945808
10
257.72456955092832
20
110.88021977945807
10
257.73456955092831
20
110.81411977945805
10
257.72456955092832
20
110.48191977945805
10
257.64056955092832
20
110.16081977945805
10
257.61156955092827
20
110.09891977945806
10
257.58456955092834
20
110.03821977945805
10
257.39656955092835
20
109.76401977945807
10
257.15256955092832
20
109.54071977945807
10
257.09656955092834
20
109.50361977945809
10
257.03956955092838
20
109.46771977945809
0
LWPOLYLINE
5
102
100
AcDbEntity
8
0
100
AcDbPolyline
90
43
70
1
43
0.0
10
368.61556955092817
20
-51.735580220541948
10
368.85856955092822
20
-51.510580220541939
10
368.91556955092818
20
-51.474580220542023
10
368.97156955092811
20
-51.437580220542003
10
369.27856955092813
20
-51.308580220541913
10
369.57556955092809
20
-51.252580220541972
10
369.7725695509281
20
-51.252580220541972
10
370.06856955092815
20
-51.308580220541913
10
370.37256955092806
20
-51.437580220541932
10
370.42856955092816
20
-51.474580220541988
10
370.48556955092812
20
-51.510580220541975
10
370.73256955092808
20
-51.735580220541983
10
370.9195695509282
20
-52.009580220542055
10
370.94756955092811
20
-52.071580220541982
10
370.97556955092813
20
-52.132580220542017
10
371.06056955092811
20
-52.453580220542015
10
371.06756955092806
20
-52.783580220542028
10
371.05656955092809
20
-52.851580220542012
10
371.04956955092814
20
-52.917580220542071
10
370.94756955092811
20
-53.233580220541974
10
370.77456955092816
20
-53.518580220541985
10
370.73256955092808
20
-53.569580220542043
10
370.68656955092814
20
-53.618580220542036
10
370.42856955092816
20
-53.829580220542077
10
370.13256955092811
20
-53.97558022054195
10
370.0655695509281
20
-53.99558022054201
10
370.00156955092814
20
-54.013580220541968
10
369.67356955092816
20
-54.051580220541879
10
369.34256955092815
20
-54.013580220541897
10
369.27856955092813
20
-53.99558022054201
10
369.21556955092819
20
-53.975580220541985
10
368.91556955092818
20
-53.82958022054197
10
368.65756955092814
20
-53.618580220542
10
368.61556955092817
20
-53.569580220541937
10
368.56956955092812
20
-53.518580220541878
10
368.40056955092814
20
-53.233580220541938
10
368.29456955092814
20
-52.917580220541964
10
368.28756955092808
20
-52.851580220541976
10
368.27656955092812
20
-52.783580220541992
10
368.28756955092808
20
-52.45358022054198
10
368.37256955092806
20
-52.132580220541982
10
368.40056955092814
20
-52.071580220541946
10
368.42856955092822
20
-52.00958022054202
0
LWPOLYLINE
5
103
100
AcDbEntity
8
0
100
AcDbPolyline
90
43
70
1
43
0.0
10
368.53056955092836
20
109.86731977945792
10
368.49556955092839
20
109.92391977945789
10
368.45656955092835
20
109.98031977945793
10
368.32956955092834
20
110.28761977945791
10
368.27356955092841
20
110.5825197794579
10
368.27356955092841
20
110.7796197794579
10
368.32956955092834
20
111.07591977945791
10
368.45656955092835
20
111.38181977945791
10
368.49556955092839
20
111.43831977945791
10
368.53056955092836
20
111.49481977945794
10
368.7565695509283
20
111.74011977945793
10
369.03156955092834
20
111.92751977945792
10
369.09156955092834
20
111.95511977945792
10
369.15156955092834
20
111.98401977945792
10
369.47256955092831
20
112.0681197794579
10
369.80456955092836
20
112.07631977945792
10
369.87156955092826
20
112.06671977945791
10
369.93856955092838
20
112.05701977945793
10
370.25256955092829
20
111.95511977945792
10
370.53856955092834
20
111.7828197794579
10
370.58756955092832
20
111.73871977945791
10
370.64056955092832
20
111.69601977945791
10
370.85256955092831
20
111.43831977945791
10
370.99656955092831
20
111.14071977945791
10
371.01456955092834
20
111.07591977945791
10
371.03556955092836
20
111.01251977945793
10
371.07056955092833
20
110.68181977945795
10
371.03556955092836
20
110.35101977945793
10
371.01456955092834
20
110.28631977945793
10
370.99656955092831
20
110.22291977945791
10
370.85256955092831
20
109.92391977945789
10
370.64056955092832
20
109.6675197794579
10
370.58756955092832
20
109.6234197794579
10
370.53856955092834
20
109.5793197794579
10
370.25256955092829
20
109.40841977945792
10
369.93856955092838
20
109.30511977945791
10
369.87156955092826
20
109.29551977945792
10
369.80456955092836
20
109.28581977945794
10
369.47256955092831
20
109.29551977945792
10
369.15156955092834
20
109.37951977945794
10
369.09156955092834
20
109.40711977945793
10
369.03156955092834
20
109.43601977945792
10
368.7565695509283
20
109.62341977945795
0
LWPOLYLINE
5
104
100
AcDbEntity
8
0
100
AcDbPolyline
90
42
70
1
43
0.0
10
257.7385695509281
20
-52.552580220541856
10
257.7385695509281
20
-52.749580220541858
10
257.68256955092806
20
-53.045580220541879
10
257.55356955092805
20
-53.352580220541839
10
257.51656955092812
20
-53.409580220541883
10
257.48056955092812
20
-53.466580220541786
10
257.25656955092808
20
-53.709580220541824
10
256.98156955092816
20
-53.897580220541812
10
256.92056955092812
20
-53.926580220541851
10
256.85956955092814
20
-53.953580220541753
10
256.53856955092812
20
-54.03758022054177
10
256.2075695509281
20
-54.047580220541818
10
256.14056955092803
20
-54.037580220541841
10
256.07356955092814
20
-54.028580220541826
10
255.75856955092809
20
-53.924580220541856
10
255.47256955092814
20
-53.753580220541792
10
255.42156955092807
20
-53.709580220541824
10
255.37256955092815
20
-53.665580220541855
10
255.16156955092811
20
-53.409580220541883
10
255.01556955092809
20
-53.110580220541763
10
254.99656955092809
20
-53.04658022054177
10
254.97856955092814
20
-52.982580220541777
10
254.93956955092813
20
-52.651580220541732
10
254.97856955092814
20
-52.320580220541828
10
254.99656955092809
20
-52.257580220541868
10
255.01556955092809
20
-52.192580220541842
10
255.16156955092811
20
-51.895580220541788
10
255.37256955092815
20
-51.637580220541821
10
255.42156955092807
20
-51.594580220541815
10
255.47256955092814
20
-51.550580220541846
10
255.75856955092809
20
-51.378580220541821
10
256.07356955092814
20
-51.276580220541845
10
256.2075695509281
20
-51.256580220541821
10
256.53856955092812
20
-51.265580220541764
10
256.85956955092814
20
-51.349580220541782
10
256.92056955092812
20
-51.378580220541821
10
256.98156955092816
20
-51.405580220541864
10
257.25656955092808
20
-51.593580220541853
10
257.48056955092812
20
-51.838580220541814
10
257.51656955092812
20
-51.895580220541788
10
257.55356955092805
20
-51.9515802205418
10
257.68256955092806
20
-52.257580220541868
0
LWPOLYLINE
5
105
100
AcDbEntity
8
0
100
AcDbPolyline
90
4
70
1
43
0.0
10
265.90166445723577
20
100.73955917095567
10
355.90166445723582
20
100.73955917095557
42
-0.99999999999999989
10
355.90166445723582
20
90.739559170955573
10
265.90166445723577
20
90.739559170955715
42
-0.99999999999999989
0
LWPOLYLINE
5
106
100
AcDbEntity
8
0
100
AcDbPolyline
90
4
70
1
43
0.0
10
265.9016644572356
20
-3.2604408290442066
10
355.90166445723571
20
-3.2604408290443532
42
-0.99999999999999989
10
355.90166445723571
20
-13.260440829044345
10
265.9016644572356
20
-13.260440829044207
42
-0.99999999999999989
0
LWPOLYLINE
5
107
100
AcDbEntity
8
0
100
AcDbPolyline
90
4
70
1
43
0.0
10
265.9016644572356
20
22.73955917095579
10
355.90166445723571
20
22.739559170955644
42
-0.99999999999999989
10
355.90166445723571
20
12.739559170955651
10
265.9016644572356
20
12.73955917095579
42
-0.99999999999999989
0
LWPOLYLINE
5
108
100
AcDbEntity
8
0
100
AcDbPolyline
90
4
70
1
43
0.0
10
265.90166445723571
20
74.739559170955687
10
355.90166445723577
20
74.739559170955573
42
-0.99999999999999989
10
355.90166445723577
20
64.739559170955573
10
265.90166445723571
20
64.739559170955729
42
-0.99999999999999989
0
LWPOLYLINE
5
109
100
AcDbEntity
8
0
100
AcDbPolyline
90
4
70
1
43
0.0
10
355.9016644572356
20
-39.260440829044327
10
265.90166445723554
20
-39.260440829044178
42
-0.99999999999999989
10
265.90166445723554
20
-29.260440829044189
10
355.9016644572356
20
-29.260440829044327
42
-0.99999999999999989
0
LWPOLYLINE
5
110
100
AcDbEntity
8
0
100
AcDbPolyline
90
4
70
1
43
0.0
10
265.90166445723571
20
48.739559170955751
10
355.90166445723577
20
48.739559170955609
42
-0.99999999999999989
10
355.90166445723577
20
38.739559170955616
10
265.90166445723571
20
38.739559170955751
42
-0.99999999999999989
0
ENDSEC
0
SECTION
2
OBJECTS
0
DICTIONARY
5
C
100
AcDbDictionary
3
ACAD_GROUP
350
D
3
ACAD_MLINESTYLE
350
17
0
DICTIONARY
5
D
100
AcDbDictionary
0
DICTIONARY
5
1A
330
C
100
AcDbDictionary
0
DICTIONARY
5
17
100
AcDbDictionary
0
ENDSEC
0
EOF
